<svg id="Layer_1" data-name="Layer 1" xmlns="http://www.w3.org/2000/svg" viewBox="0 0 690.82 159.33"><defs><style>.cls-1{font-size:24px;fill:#1d1d4c;font-family:Quicksand-Bold, Quicksand;font-weight:700;}.cls-1,.cls-3{stroke:#1d1d4c;stroke-miterlimit:10;}.cls-2{fill:#00a99d;}.cls-3{fill:none;}.cls-4{opacity:0.82;}</style></defs><title>branding-titulo</title><text class="cls-1" transform="translate(27.94 44.24)">DISEÑO</text><path class="cls-2" d="M21.85,66.28h29.9q13.89,0,20.85,3.75t7,12.65q0,13.69-16.5,16.4v.2q20,2.49,20,17.4,0,10.89-8.2,15.25t-23.6,4.35H21.85v-1.9h6.5V68.18h-6.5Zm26,1.9V99h2.6q5.19,0,7.25-3.15c1.36-2.1,2-5.32,2-9.65v-4.7q0-7.41-1.8-10.35t-6.9-2.95Zm0,32.7v33.5h4.7q5.49,0,7.7-3.8t2.2-11.2v-5.3q0-6.6-2.7-9.9t-9.6-3.3Z"/><path class="cls-2" d="M138.45,100.88h-5.3v33.5h6.5v1.9h-32.5v-1.9h6.5V68.18h-6.5v-1.9h30.2q13,0,18.45,1.35t7.65,3.25q4.8,3.9,4.8,12.4t-4.2,12.15q-4.2,3.64-12.8,4.35v.3q8.1,1.1,11.3,4.8t3.2,12.4v5.3a28.52,28.52,0,0,0,.55,7,2.27,2.27,0,0,0,2.35,1.8,3.23,3.23,0,0,0,2.85-1.65q1-1.65,1.95-6.95l1.7.2q-1.11,8.49-3.85,11.4t-11,2.9q-8.21,0-11.65-3.85T145.25,119v-7.3c0-3.74-.49-6.47-1.45-8.2S141.05,100.88,138.45,100.88Zm-5.3-32.7V99h3.2c3.8,0,6.61-1.17,8.45-3.5s2.75-6.14,2.75-11.4v-2.9q0-7.91-2.65-10.45t-8.45-2.55Z"/><path class="cls-2" d="M239.45,134.38l-7.3-21.6h-19.8l-7.7,21.6h7.5v1.9h-15.3v-1.9h4.7l25.5-68.7h8.2l25.2,68.7h4.6v1.9h-32.7v-1.9Zm-16.8-50-9.4,26.2h18.1Z"/><path class="cls-2" d="M344.65,68.18v68.1h-14l-34.3-64.7v62.8h5.5v1.9h-13.7v-1.9h5.5V68.18h-5.5v-1.9h27.6l26.19,50.2V68.18h-5.5v-1.9h13.71v1.9Z"/><path class="cls-3" d="M16.85,62.28h29.9q13.89,0,20.85,3.75t7,12.65q0,13.69-16.5,16.4v.2q20,2.49,20,17.4,0,10.89-8.2,15.25t-23.6,4.35H16.85v-1.9h6.5V64.18h-6.5Zm26,1.9V95h2.6q5.19,0,7.25-3.15c1.36-2.1,2-5.32,2-9.65v-4.7q0-7.41-1.8-10.35t-6.9-2.95Zm0,32.7v33.5h4.7q5.49,0,7.7-3.8t2.2-11.2v-5.3q0-6.6-2.7-9.9t-9.6-3.3Z"/><path class="cls-3" d="M133.45,96.88h-5.3v33.5h6.5v1.9h-32.5v-1.9h6.5V64.18h-6.5v-1.9h30.2q13,0,18.45,1.35t7.65,3.25q4.8,3.9,4.8,12.4t-4.2,12.15q-4.2,3.64-12.8,4.35v.3q8.1,1.1,11.3,4.8t3.2,12.4v5.3a28.52,28.52,0,0,0,.55,7,2.27,2.27,0,0,0,2.35,1.8,3.23,3.23,0,0,0,2.85-1.65q1-1.65,1.95-7l1.7.2q-1.11,8.49-3.85,11.4t-11,2.9q-8.21,0-11.65-3.85T140.25,115v-7.3c0-3.74-.49-6.47-1.45-8.2S136.05,96.88,133.45,96.88Zm-5.3-32.7V95h3.2c3.8,0,6.61-1.17,8.45-3.5s2.75-6.14,2.75-11.4v-2.9q0-7.91-2.65-10.45t-8.45-2.55Z"/><path class="cls-3" d="M234.45,130.38l-7.3-21.6h-19.8l-7.7,21.6h7.5v1.9h-15.3v-1.9h4.7l25.5-68.7h8.2l25.2,68.7h4.6v1.9h-32.7v-1.9Zm-16.8-50-9.4,26.2h18.1Z"/><path class="cls-3" d="M339.65,64.18v68.1h-14l-34.3-64.7v62.8h5.5v1.9h-13.7v-1.9h5.5V64.18h-5.5v-1.9h27.6l26.19,50.2V64.18h-5.5v-1.9h13.71v1.9Z"/><g class="cls-4"><path class="cls-2" d="M444,100.08q0,20.6-11.59,28.7-10.71,7.5-29.41,7.5H374.75v-1.9h6.6V68.18h-6.6v-1.9h30.89q19.22,0,28.81,7.85T444,100.08Zm-43.19,34.3h3.79q10.11,0,14.46-7.15t4.35-24v-5.8q0-22.5-8.6-27.1-4.11-2.2-11.61-2.2h-2.39Z"/><path class="cls-2" d="M470.64,66.28h30.5v1.9h-5.5v66.2h5.5v1.9h-30.5v-1.9h5.5V68.18h-5.5Z"/><path class="cls-2" d="M582.64,68.18v68.1h-14l-34.3-64.7v62.8h5.5v1.9h-13.7v-1.9h5.5V68.18h-5.5v-1.9h27.6l26.2,50.2V68.18h-5.5v-1.9h13.7v1.9Z"/><path class="cls-2" d="M648.64,135.28q4.9,0,6.25-1.8c.9-1.2,1.35-3.24,1.35-6.1V108h-6.4v-2.2h28.8V108h-3.9v28.2h-1.5a5.91,5.91,0,0,0-5.1-2.5,55,55,0,0,0-8.35,1.8,48.5,48.5,0,0,1-11.85,1.8q-16.29,0-25.25-8.8t-9-26.45q0-17.65,9.35-27.25t25.15-9.6a49.63,49.63,0,0,1,12.25,1.55,55.64,55.64,0,0,0,7.15,1.55,2.17,2.17,0,0,0,1.5-.45,5.92,5.92,0,0,0,1.1-1.55h1.1l.8,21.7h-1.8a71.15,71.15,0,0,0-9.85-15.25q-4.95-5.55-11-5.55-15.3,0-15.3,29.9V105q0,15,3.75,22.65T648.64,135.28Z"/></g></svg>