<svg id="Layer_1" data-name="Layer 1" xmlns="http://www.w3.org/2000/svg" viewBox="0 0 713.25 159.33"><defs><style>.cls-1{font-size:24px;fill:#1d1d4c;font-family:Quicksand-Bold, Quicksand;font-weight:700;}.cls-1,.cls-3{stroke:#1d1d4c;stroke-miterlimit:10;}.cls-2{fill:#00a99d;}.cls-3{fill:none;}</style></defs><title>editorial-titulo</title><text class="cls-1" transform="translate(13.77 44.24)">DISEÑO</text><path class="cls-2" d="M18.17,68.07H68.61l1,19.21H67.83q-4.08-9.8-8.53-13.43T46.2,70.21H42.81v30H46.1a9.92,9.92,0,0,0,7.67-3.45,19.76,19.76,0,0,0,4.36-9.26h1.46v28.71H57.94q-1.75-7.28-4.71-10.38a10.65,10.65,0,0,0-8.1-3.1H42.81v31.13h3.68a22.63,22.63,0,0,0,15.18-5.33,27.09,27.09,0,0,0,8.58-13.68h1.94L71.42,136H18.17v-2.14h5.72V70.21H18.17Z"/><path class="cls-2" d="M165.3,100.86q0,20-11.25,27.83Q143.67,136,125.54,136H98.09v-1.85h6.4V69.92h-6.4V68.07h30q18.62,0,27.93,7.62T165.3,100.86Zm-41.9,33.26h3.69q9.79,0,14-6.93T145.32,104V98.33q0-21.81-8.34-26.28-4-2.13-11.25-2.13H123.4Z"/><path class="cls-2" d="M191.1,68.07h29.58v1.85h-5.33v64.2h5.33V136H191.1v-1.85h5.33V69.92H191.1Z"/><path class="cls-2" d="M304.19,68.07l1,24.35h-1.85q-4.26-12.9-7.56-17.6a10.9,10.9,0,0,0-9.51-4.71h-1.16v63.82h8.24v2h-35.4v-2h8.25V70.11h-1.26A11,11,0,0,0,255.3,75q-3.39,4.89-7.46,17.41H246l1-24.35Z"/><path class="cls-2" d="M361.41,136.94q-16.2,0-24.2-8.78t-8-25.41q0-16.64,8.58-26.19T362.09,67q15.71,0,23.71,9.07t8,25.75q0,16.68-8.1,25.89T361.41,136.94ZM373.82,106V98.82q0-17.75-1.74-22.4-1.95-5.34-5.53-6.6A13.9,13.9,0,0,0,361.6,69a14.25,14.25,0,0,0-5,.78,7.17,7.17,0,0,0-3.44,2.72A18.88,18.88,0,0,0,351,76.61a26.91,26.91,0,0,0-1.31,6q-.57,5.63-.58,16.59v7q0,11.84.92,16.83a21.6,21.6,0,0,0,2.28,7.13q3,4.75,9.31,4.75,7.66,0,9.94-6.45T373.82,106Z"/><path class="cls-2" d="M449,101.63h-5.14v32.49h6.3V136H418.63v-1.85h6.3V69.92h-6.3V68.07h29.29q12.61,0,17.89,1.31t7.42,3.16q4.66,3.78,4.66,12t-4.07,11.79q-4.08,3.54-12.42,4.22v.29q7.86,1.06,11,4.65t3.11,12v5.14a27.68,27.68,0,0,0,.53,6.79,2.2,2.2,0,0,0,2.28,1.74,3.13,3.13,0,0,0,2.76-1.6q1-1.59,1.89-6.74l1.65.2q-1.06,8.24-3.73,11.05t-10.62,2.82q-8,0-11.3-3.74t-3.35-14v-7.08q0-5.43-1.4-8T449,101.63Zm-5.14-31.71V99.79H447q5.54,0,8.2-3.4t2.66-11V82.53q0-7.66-2.57-10.14t-8.19-2.47Z"/><path class="cls-2" d="M508.44,68.07H538v1.85h-5.33v64.2H538V136H508.44v-1.85h5.33V69.92h-5.33Z"/><path class="cls-2" d="M601.74,134.12l-7.08-21h-19.2l-7.47,21h7.27V136H560.43v-1.85H565l24.74-66.63h7.95l24.44,66.63h4.46V136H594.86v-1.85ZM585.45,85.63,576.33,111h17.56Z"/><path class="cls-2" d="M648.59,68.07H683.5v2.14H673.22v63.62h3.49q8.25,0,13.14-5t9.94-15.52h2L700,136h-51.4v-2.14h5.72V70.21h-5.72Z"/><path class="cls-3" d="M14.17,64.07H64.61l1,19.21H63.83q-4.08-9.8-8.53-13.43T42.2,66.21H38.81v30H42.1a9.92,9.92,0,0,0,7.67-3.45,19.76,19.76,0,0,0,4.36-9.26h1.46v28.71H53.94q-1.75-7.28-4.71-10.38a10.65,10.65,0,0,0-8.1-3.1H38.81v31.13h3.68a22.63,22.63,0,0,0,15.18-5.33,27.09,27.09,0,0,0,8.58-13.68h1.94L67.42,132H14.17v-2.14h5.72V66.21H14.17Z"/><path class="cls-3" d="M161.3,96.86q0,20-11.25,27.83Q139.67,132,121.54,132H94.09v-1.85h6.4V65.92h-6.4V64.07h30q18.62,0,27.93,7.62T161.3,96.86Zm-41.9,33.26h3.69q9.79,0,14-6.93T141.32,100V94.33q0-21.81-8.34-26.28-4-2.13-11.25-2.13H119.4Z"/><path class="cls-3" d="M187.1,64.07h29.58v1.85h-5.33v64.2h5.33V132H187.1v-1.85h5.33V65.92H187.1Z"/><path class="cls-3" d="M300.19,64.07l1,24.35h-1.85q-4.26-12.9-7.56-17.6a10.9,10.9,0,0,0-9.51-4.71h-1.16v63.82h8.24v2h-35.4v-2h8.25V66.11h-1.26A11,11,0,0,0,251.3,71q-3.39,4.89-7.46,17.41H242l1-24.35Z"/><path class="cls-3" d="M357.41,132.94q-16.2,0-24.2-8.78t-8-25.41q0-16.64,8.58-26.19T358.09,63q15.71,0,23.71,9.07t8,25.75q0,16.68-8.1,25.89T357.41,132.94ZM369.82,102V94.82q0-17.75-1.74-22.4-1.95-5.34-5.53-6.6A13.9,13.9,0,0,0,357.6,65a14.25,14.25,0,0,0-5,.78,7.17,7.17,0,0,0-3.44,2.72A18.88,18.88,0,0,0,347,72.61a26.91,26.91,0,0,0-1.31,6q-.57,5.63-.58,16.59v7q0,11.84.92,16.83a21.6,21.6,0,0,0,2.28,7.13q3,4.75,9.31,4.75,7.66,0,9.94-6.45T369.82,102Z"/></svg>