<svg id="Layer_1" data-name="Layer 1" xmlns="http://www.w3.org/2000/svg" viewBox="0 0 690.82 103.05"><defs><style>.cls-1{fill:#00a99d;}.cls-2{fill:none;stroke:#1d1d4c;stroke-miterlimit:10;}</style></defs><title>ilustracion titulo</title><path class="cls-1" d="M20.54,20.93H47.07v1.65H42.28V80.16h4.79v1.66H20.54V80.16h4.78V22.58H20.54Z"/><path class="cls-1" d="M59.77,20.93H91.08v1.91H81.86V79.9H85q7.4,0,11.79-4.52t8.91-13.92h1.83l-1.66,20.36H59.77V79.9H64.9V22.84H59.77Z"/><path class="cls-1" d="M143.05,75.55q2.73,4.26,9.87,4.26t11-4.43q3.83-4.44,3.83-13.48V22.58h-5.66V20.93h12.7v1.65H170V61.29q0,10.79-4.79,16.09t-16.91,5.3q-12.14,0-18.53-5t-6.39-17.31V22.58h-4.79V20.93H146v1.65h-5.65V63.29Q140.31,71.29,143.05,75.55Z"/><path class="cls-1" d="M212.24,80.86a13.07,13.07,0,0,0,7.7-2.35,8.1,8.1,0,0,0,3.35-7.09,8.33,8.33,0,0,0-3.61-7.26,34.36,34.36,0,0,0-10.27-4.39,70.4,70.4,0,0,1-9.65-3.27,25.36,25.36,0,0,1-5.7-3.65q-5.4-4.51-5.39-14a18.24,18.24,0,0,1,5.52-13.31Q199.71,20,209.28,20a36.84,36.84,0,0,1,9.61,1.35,35.58,35.58,0,0,0,6.22,1.35c.81,0,1.54-.58,2.18-1.74h1l.61,17.57h-1.39a54,54,0,0,0-8.74-12.13q-4.58-4.57-9.92-4.57t-8.3,2.48a8.17,8.17,0,0,0-3,6.61,7.08,7.08,0,0,0,3.52,6.35,31.83,31.83,0,0,0,8.66,3.61c3.42.93,5.66,1.56,6.74,1.91s2.4.83,4,1.44a20.37,20.37,0,0,1,3.91,1.91,27.83,27.83,0,0,1,3.22,2.52A12.05,12.05,0,0,1,230.24,52a19.86,19.86,0,0,1,2.35,9.92q0,9.39-5.87,15.09t-15.44,5.69a57.48,57.48,0,0,1-11.35-1.3q-6.39-1.3-7.09-1.3c-.81,0-1.59.87-2.35,2.6h-1.21L188.41,62h1.48a47.58,47.58,0,0,0,9.78,13.22Q205.63,80.85,212.24,80.86Z"/><path class="cls-1" d="M296.26,20.93l.87,21.83h-1.65Q291.64,31.19,288.69,27a9.75,9.75,0,0,0-8.52-4.22h-1.05V80h7.4v1.83H254.77V80h7.39V22.76H261a9.86,9.86,0,0,0-8.61,4.39q-3,4.39-6.7,15.61h-1.65l.87-21.83Z"/><path class="cls-1" d="M337.57,51H333V80.16h5.66v1.66H310.35V80.16H316V22.58h-5.65V20.93h26.27q11.29,0,16,1.18t6.66,2.82q4.17,3.39,4.17,10.79t-3.65,10.57q-3.66,3.16-11.13,3.78v.26q7,1,9.82,4.17t2.79,10.79V69.9A24.92,24.92,0,0,0,361.8,76a2,2,0,0,0,2,1.56,2.83,2.83,0,0,0,2.48-1.43c.61-1,1.17-3,1.69-6.05l1.48.18q-1,7.4-3.35,9.91t-9.52,2.52q-7.14,0-10.13-3.34t-3-12.57V60.42c0-3.25-.42-5.62-1.26-7.13S339.83,51,337.57,51ZM333,22.58V49.37h2.79q5,0,7.35-3t2.39-9.92V33.89q0-6.87-2.31-9.09c-1.53-1.48-4-2.22-7.35-2.22Z"/><path class="cls-1" d="M416.72,80.16l-6.35-18.78H393.15l-6.7,18.78H393v1.66H379.67V80.16h4.09l22.18-59.75h7.13L435,80.16h4v1.66H410.55V80.16ZM402.11,36.67l-8.18,22.79h15.75Z"/><path class="cls-1" d="M478.65,21.71q-13.48,0-13.48,26v6.87q0,12.36,3.56,19.35t10.53,7q9.57,0,17.57-18.62h1.56l-.61,19.4h-.95a5.24,5.24,0,0,0-1-1.35,1.83,1.83,0,0,0-1.26-.39,52,52,0,0,0-6.31,1.35,46.82,46.82,0,0,1-11.13,1.34q-14.18,0-22-7.65t-7.79-23q0-15.36,8.14-23.71T477.43,20a40.43,40.43,0,0,1,10.4,1.35,42.22,42.22,0,0,0,5.95,1.35,1.92,1.92,0,0,0,1.31-.39,5,5,0,0,0,1-1.35h1l.7,18.87h-1.57q-3.92-8.77-8-13.43T478.65,21.71Z"/><path class="cls-1" d="M514.74,20.93h26.53v1.65h-4.78V80.16h4.78v1.66H514.74V80.16h4.79V22.58h-4.79Z"/><path class="cls-1" d="M584.59,82.68q-14.54,0-21.7-7.87T555.71,52q0-14.93,7.7-23.49T585.2,20q14.09,0,21.26,8.14t7.18,23.09q0,15-7.27,23.22T584.59,82.68Zm11.13-27.74V48.5q0-15.91-1.57-20.09-1.74-4.78-4.95-5.91a12.39,12.39,0,0,0-4.44-.7,12.73,12.73,0,0,0-4.48.7,6.42,6.42,0,0,0-3.09,2.43,17.15,17.15,0,0,0-2,3.65,23.51,23.51,0,0,0-1.18,5.4q-.52,5-.52,14.87v6.26q0,10.62.83,15.09a19.17,19.17,0,0,0,2,6.4q2.7,4.26,8.35,4.26,6.87,0,8.92-5.79T595.72,54.94ZM577.19,17.19l10-14.09,4.17.35a4.6,4.6,0,0,1,3.18,1.3,3.88,3.88,0,0,1,1,2.61q0,3.48-3.83,5.05l-13.83,5.65Z"/><path class="cls-1" d="M677.22,22.58V81.82H665L635.21,25.54V80.16H640v1.66H628.07V80.16h4.79V22.58h-4.79V20.93h24l22.79,43.66v-42h-4.79V20.93H682v1.65Z"/><path class="cls-2" d="M16.54,16.93H43.07v1.65H38.28V76.16h4.79v1.66H16.54V76.16h4.78V18.58H16.54Z"/><path class="cls-2" d="M55.77,16.93H87.08v1.91H77.86V75.9H81q7.4,0,11.79-4.52t8.91-13.92h1.83l-1.66,20.36H55.77V75.9H60.9V18.84H55.77Z"/><path class="cls-2" d="M139.05,71.55q2.73,4.26,9.87,4.26t11-4.43q3.83-4.44,3.83-13.48V18.58h-5.66V16.93h12.7v1.65H166V57.29q0,10.79-4.79,16.09t-16.91,5.3q-12.14,0-18.53-5t-6.39-17.31V18.58h-4.79V16.93H142v1.65h-5.65V59.29Q136.31,67.29,139.05,71.55Z"/><path class="cls-2" d="M208.24,76.86a13.07,13.07,0,0,0,7.7-2.35,8.1,8.1,0,0,0,3.35-7.09,8.33,8.33,0,0,0-3.61-7.26,34.36,34.36,0,0,0-10.27-4.39,70.4,70.4,0,0,1-9.65-3.27,25.36,25.36,0,0,1-5.7-3.65q-5.4-4.51-5.39-14a18.24,18.24,0,0,1,5.52-13.31Q195.71,16,205.28,16a36.84,36.84,0,0,1,9.61,1.35,35.58,35.58,0,0,0,6.22,1.35c.81,0,1.54-.58,2.18-1.74h1l.61,17.57h-1.39a54,54,0,0,0-8.74-12.13q-4.58-4.57-9.92-4.57t-8.3,2.48a8.17,8.17,0,0,0-3,6.61,7.08,7.08,0,0,0,3.52,6.35,31.83,31.83,0,0,0,8.66,3.61c3.42.93,5.66,1.56,6.74,1.91s2.4.83,4,1.44a20.37,20.37,0,0,1,3.91,1.91,27.83,27.83,0,0,1,3.22,2.52A12.05,12.05,0,0,1,226.24,48a19.86,19.86,0,0,1,2.35,9.92q0,9.39-5.87,15.09t-15.44,5.69a57.48,57.48,0,0,1-11.35-1.3q-6.39-1.3-7.09-1.3c-.81,0-1.59.87-2.35,2.6h-1.21L184.41,58h1.48a47.58,47.58,0,0,0,9.78,13.22Q201.63,76.85,208.24,76.86Z"/><path class="cls-2" d="M292.26,16.93l.87,21.83h-1.65Q287.64,27.2,284.69,23a9.75,9.75,0,0,0-8.52-4.22h-1.05V76h7.4v1.83H250.77V76h7.39V18.76H257a9.86,9.86,0,0,0-8.61,4.39q-3,4.39-6.7,15.61h-1.65l.87-21.83Z"/></svg>