<?xml version="1.0" encoding="utf-8"?>
<!-- Generator: Adobe Illustrator 22.0.0, SVG Export Plug-In . SVG Version: 6.00 Build 0)  -->
<svg version="1.1" id="Layer_1" xmlns="http://www.w3.org/2000/svg" xmlns:xlink="http://www.w3.org/1999/xlink" x="0px" y="0px"
	 viewBox="0 0 584.8 230.3" style="enable-background:new 0 0 584.8 230.3;" xml:space="preserve">
<style type="text/css">
	.st0{fill:#EB483F;}
	.st1{fill:#00A99D;}
</style>
<title>branding-titulo</title>
<g>
	<g>
		<path class="st0" d="M50.4,108l-6.6-19.4H26L19.1,108h6.8v1.7H12.1V108h4.2l23-61.8h7.4L69.3,108h4.1v1.7H44V108H50.4z M35.3,63
			l-8.5,23.6h16.3L35.3,63z"/>
		<path class="st0" d="M129.8,47.5c-9.3,0-14,9-14,26.9v7.1c0,8.5,1.2,15.2,3.7,20c2.5,4.8,6.1,7.2,10.9,7.2
			c6.6,0,12.7-6.4,18.2-19.3h1.6l-0.6,20.1h-1c-0.4-0.7-0.7-1.1-1-1.4c-0.3-0.3-0.7-0.4-1.3-0.4c-0.6,0-2.7,0.5-6.5,1.4
			c-3.8,0.9-7.6,1.4-11.5,1.4c-9.8,0-17.4-2.6-22.7-7.9c-5.4-5.3-8.1-13.2-8.1-23.8c0-10.6,2.8-18.8,8.4-24.5
			c5.6-5.8,13.2-8.6,22.6-8.6c3.7,0,7.2,0.5,10.8,1.4c3.5,0.9,5.6,1.4,6.2,1.4c0.6,0,1-0.1,1.3-0.4c0.3-0.3,0.6-0.7,1-1.4h1
			l0.7,19.5h-1.6c-2.7-6.1-5.5-10.7-8.3-13.9C136.7,49.1,133.5,47.5,129.8,47.5z"/>
		<path class="st0" d="M182.1,46.7h46.8l0.9,17.8h-1.6c-2.5-6.1-5.2-10.2-7.9-12.5c-2.8-2.2-6.8-3.4-12.1-3.4H205v27.8h3.1
			c2.8,0,5.2-1.1,7.1-3.2c1.9-2.1,3.3-5,4.1-8.6h1.3v26.6H219c-1.1-4.5-2.5-7.7-4.4-9.6c-1.8-1.9-4.3-2.9-7.5-2.9H205v28.9h3.4
			c5.5,0,10.2-1.6,14.1-5c3.9-3.3,6.5-7.5,8-12.7h1.8l-0.7,19.6h-49.4v-2h5.3v-59h-5.3V46.7z"/>
		<path class="st0" d="M290.2,77.8h-4.8V108h5.8v1.7H262V108h5.9V48.4H262v-1.7h27.2c7.8,0,13.3,0.4,16.6,1.2
			c3.3,0.8,5.6,1.8,6.9,2.9c2.9,2.3,4.3,6.1,4.3,11.2c0,5.1-1.3,8.7-3.8,10.9c-2.5,2.2-6.4,3.5-11.5,3.9v0.3
			c4.9,0.7,8.2,2.1,10.2,4.3c1.9,2.2,2.9,5.9,2.9,11.2v4.8c0,3.1,0.2,5.2,0.5,6.3c0.3,1.1,1,1.6,2.1,1.6s1.9-0.5,2.6-1.5
			c0.6-1,1.2-3.1,1.8-6.3l1.5,0.2c-0.7,5.1-1.8,8.5-3.5,10.3c-1.7,1.7-4.9,2.6-9.9,2.6c-4.9,0-8.4-1.2-10.5-3.5
			c-2.1-2.3-3.1-6.6-3.1-13v-6.6c0-3.4-0.4-5.8-1.3-7.4C294.1,78.6,292.5,77.8,290.2,77.8z M285.4,48.4v27.7h2.9c3.4,0,6-1,7.6-3.2
			c1.6-2.1,2.5-5.5,2.5-10.3v-2.6c0-4.7-0.8-7.9-2.4-9.4c-1.6-1.5-4.1-2.3-7.6-2.3H285.4z"/>
		<path class="st0" d="M383.6,47.5c-9.3,0-14,9-14,26.9v7.1c0,8.5,1.2,15.2,3.7,20c2.5,4.8,6.1,7.2,10.9,7.2
			c6.6,0,12.7-6.4,18.2-19.3h1.6l-0.6,20.1h-1c-0.4-0.7-0.7-1.1-1-1.4c-0.3-0.3-0.7-0.4-1.3-0.4s-2.7,0.5-6.5,1.4
			c-3.8,0.9-7.6,1.4-11.5,1.4c-9.8,0-17.4-2.6-22.7-7.9c-5.4-5.3-8.1-13.2-8.1-23.8c0-10.6,2.8-18.8,8.4-24.5
			c5.6-5.8,13.2-8.6,22.6-8.6c3.7,0,7.2,0.5,10.8,1.4c3.5,0.9,5.6,1.4,6.2,1.4c0.6,0,1-0.1,1.3-0.4c0.3-0.3,0.6-0.7,1-1.4h1
			l0.7,19.5h-1.6c-2.7-6.1-5.5-10.7-8.3-13.9C390.5,49.1,387.3,47.5,383.6,47.5z"/>
		<path class="st0" d="M471.1,108l-6.6-19.4h-17.8l-6.9,19.4h6.8v1.7h-13.8V108h4.2l23-61.8h7.4L490,108h4.1v1.7h-29.4V108H471.1z
			 M456,63l-8.5,23.6h16.3L456,63z"/>
		<path class="st0" d="M75.8,173.1c0,12.4-3.5,21-10.4,25.8c-6.4,4.5-15.2,6.8-26.5,6.8H13.4V204h5.9v-59.6h-5.9v-1.7h27.8
			c11.5,0,20.2,2.4,25.9,7.1C72.9,154.5,75.8,162.3,75.8,173.1z M36.9,204h3.4c6.1,0,10.4-2.1,13-6.4c2.6-4.3,3.9-11.5,3.9-21.6
			v-5.2c0-13.5-2.6-21.6-7.7-24.4c-2.5-1.3-5.9-2-10.4-2h-2.2V204z"/>
		<path class="st0" d="M105.7,142.7h46.8l0.9,17.8h-1.6c-2.5-6.1-5.2-10.2-7.9-12.5c-2.8-2.2-6.8-3.4-12.1-3.4h-3.1v27.8h3.1
			c2.8,0,5.2-1.1,7.1-3.2c1.9-2.1,3.3-5,4.1-8.6h1.3v26.6h-1.5c-1.1-4.5-2.5-7.7-4.4-9.6c-1.8-1.9-4.3-2.9-7.5-2.9h-2.2v28.9h3.4
			c5.5,0,10.2-1.6,14.1-5c3.9-3.3,6.5-7.5,8-12.7h1.8l-0.7,19.6h-49.4v-2h5.3v-59h-5.3V142.7z"/>
	</g>
	<path class="st1" d="M167.3,35l-1.6-1.4c1.4-1.7,2.7-3.6,3.7-5.6l1.9,1C170.2,31.2,168.9,33.2,167.3,35z"/>
	<path class="st1" d="M158.4,35.2l-1.3-1.7c0.9-0.7,1.8-1.5,2.6-2.3c3-3,5.3-6.7,6.9-10.6l2,0.8c-1.7,4.2-4.2,8.1-7.3,11.3
		C160.3,33.6,159.4,34.4,158.4,35.2z"/>
	<path class="st1" d="M146.6,35.3l-0.9-2c3.6-1.5,6.8-3.7,9.6-6.5c1.9-1.9,3.5-4.1,4.9-6.4l1.9,1c-1.4,2.5-3.2,4.8-5.2,6.9
		C153.9,31.3,150.4,33.7,146.6,35.3z"/>
	<path class="st1" d="M129.2,35.4l-0.6-2l2.2-0.6c7.4-2.2,14.4-4.2,20.2-10.1c0.7-0.7,1.4-1.5,2-2.3l1.7,1.3
		c-0.7,0.9-1.4,1.7-2.2,2.4c-6.2,6.2-13.8,8.5-21.1,10.6L129.2,35.4z"/>
	<path class="st1" d="M113.9,35.3l-1-1.9c4.3-2.1,8.9-3.8,13.6-5c6.5-1.9,12.7-3.8,18.1-8.2l1.4,1.6c-5.8,4.7-12.4,6.7-18.9,8.6
		C122.6,31.6,118.2,33.2,113.9,35.3z"/>
	<path class="st1" d="M103.6,35.2l-1.4-1.6c6-5.4,13.1-7.5,20-9.5c3.9-1,7.8-2.4,11.5-4l0.9,1.9c-3.8,1.7-7.8,3.1-11.8,4.1
		C115.7,28.2,109.2,30.1,103.6,35.2z"/>
	<path class="st1" d="M95.5,35l-1.7-1.3c0.9-1.2,1.9-2.3,2.9-3.3c6.2-6.2,13.7-8.4,20.3-10.4l0.6,2.1c-6.4,1.9-13.6,4-19.4,9.8
		C97.2,32.9,96.2,33.9,95.5,35z"/>
	<path class="st1" d="M88.6,34.9l-1.9-1c3.1-6,8-10.8,14.1-13.8l1,1.9c-2.9,1.4-5.5,3.3-7.8,5.6C91.7,29.7,90,32.2,88.6,34.9z"/>
	<path class="st1" d="M82.4,34.8l-2-0.8c1.7-4.6,4.3-8.7,7.7-12.2c0.5-0.5,1.1-1,1.7-1.5l1.4,1.6c-0.5,0.5-1,0.9-1.6,1.4
		C86.4,26.6,84,30.5,82.4,34.8z"/>
	<path class="st1" d="M76.6,34.7l-2-0.6c1.4-4.9,3.6-9.5,6.6-13.7l1.7,1.3C80,25.6,77.9,30,76.6,34.7z"/>
	<path class="st1" d="M71,34.7l-2-0.6c1.2-4.7,2.9-9.2,5-13.5l1.9,1C73.7,25.7,72.2,30.1,71,34.7z"/>
	<path class="st1" d="M65.4,34.7l-2-0.6c0.4-1.3,0.8-2.7,1.2-4c0.9-3.2,1.9-6.3,3.1-9.4l2,0.8c-1.2,3-2.1,6.1-3,9.2
		C66.2,32,65.8,33.3,65.4,34.7z"/>
	<path class="st1" d="M59.6,34.7l-2-0.8c1-2.7,1.9-5.5,2.7-8.3c0.5-1.7,1-3.3,1.5-5l2,0.7c-0.5,1.6-1,3.3-1.5,4.9
		C61.5,29.1,60.6,32,59.6,34.7z"/>
	<path class="st1" d="M53.3,34.9l-1.9-1c1.9-4,3.4-8.2,4.5-12.5l0.2-0.7l2,0.6L58,22C56.9,26.4,55.3,30.7,53.3,34.9z"/>
	<path class="st1" d="M46.9,35.1l-1.7-1.2c2.7-4,4.7-8.4,6-13l2,0.6C51.9,26.4,49.7,31,46.9,35.1z"/>
	<path class="st1" d="M38.1,35.1l-1.5-1.5l0.6-0.6c3.4-3.5,6-7.7,7.6-12.3l2,0.8c-1.7,4.9-4.4,9.4-8,13.1L38.1,35.1z"/>
	<path class="st1" d="M27.7,35.3l-1.1-1.9c2.3-1.3,4.4-2.9,6.3-4.8c2.3-2.4,4.3-5.1,5.7-8.1l1.9,1c-1.6,3.2-3.6,6.1-6.1,8.7
		C32.4,32.2,30.2,33.9,27.7,35.3z"/>
	<path class="st1" d="M18.1,33.5l-0.8-2c4.2-1.6,8.1-4,11.3-7.1c1.2-1.2,2.3-2.5,3.3-3.9l1.8,1.2c-1.1,1.5-2.2,2.9-3.5,4.2
		C26.7,29.2,22.6,31.8,18.1,33.5z"/>
	<path class="st1" d="M18.2,27.2l-1-1.9c2.5-1.3,4.8-3,6.9-5l1.5,1.5C23.4,23.9,20.9,25.7,18.2,27.2z"/>
</g>
</svg>
