<?xml version="1.0" encoding="utf-8"?>
<!-- Generator: Adobe Illustrator 22.0.0, SVG Export Plug-In . SVG Version: 6.00 Build 0)  -->
<svg version="1.1" id="Layer_1" xmlns="http://www.w3.org/2000/svg" xmlns:xlink="http://www.w3.org/1999/xlink" x="0px" y="0px"
	 viewBox="0 0 281.2 199.5" style="enable-background:new 0 0 281.2 199.5;" xml:space="preserve">
<style type="text/css">
	.st0{clip-path:url(#SVGID_2_);}
	.st1{fill:#FF3333;}
</style>
<title>puntos</title>
<g>
	<g id="Layer_1_1_">
		<g>
			<defs>
				<circle id="SVGID_1_" cx="177.3" cy="104.5" r="100.5"/>
			</defs>
			<clipPath id="SVGID_2_">
				<use xlink:href="#SVGID_1_"  style="overflow:visible;"/>
			</clipPath>
			<g class="st0">
				<g>
					<path class="st1" d="M272.7,107.4c0,0.7,0.6,1.2,1.2,1.2s1.2-0.6,1.2-1.2s-0.6-1.2-1.2-1.2S272.7,106.7,272.7,107.4z"/>
					<path class="st1" d="M272.7,119.9c0,0.7,0.6,1.2,1.2,1.2s1.2-0.6,1.2-1.2s-0.6-1.2-1.2-1.2S272.7,119.2,272.7,119.9z"/>
					<path class="st1" d="M272.7,132.4c0,0.7,0.6,1.2,1.2,1.2s1.2-0.6,1.2-1.2s-0.6-1.2-1.2-1.2S272.7,131.7,272.7,132.4z"/>
					<path class="st1" d="M272.7,144.9c0,0.7,0.6,1.2,1.2,1.2s1.2-0.6,1.2-1.2s-0.6-1.2-1.2-1.2S272.7,144.2,272.7,144.9z"/>
					<path class="st1" d="M272.7,157.4c0,0.7,0.6,1.2,1.2,1.2s1.2-0.6,1.2-1.2s-0.6-1.2-1.2-1.2S272.7,156.7,272.7,157.4z"/>
					<path class="st1" d="M272.7,169.9c0,0.7,0.6,1.2,1.2,1.2s1.2-0.6,1.2-1.2s-0.6-1.2-1.2-1.2S272.7,169.2,272.7,169.9z"/>
					<path class="st1" d="M272.7,182.4c0,0.7,0.5,1.3,1.2,1.3c0.7,0,1.3-0.5,1.3-1.2c0-0.7-0.5-1.3-1.2-1.3c0,0,0,0,0,0
						C273.3,181.2,272.7,181.7,272.7,182.4z"/>
					<path class="st1" d="M272.7,194.9c0,0.7,0.5,1.3,1.2,1.3c0.7,0,1.3-0.5,1.3-1.2c0-0.7-0.5-1.3-1.2-1.3c0,0,0,0,0,0
						C273.3,193.7,272.7,194.2,272.7,194.9C272.7,194.9,272.7,194.9,272.7,194.9z"/>
					<path class="st1" d="M260.2,107.4c0,0.7,0.6,1.2,1.2,1.2s1.2-0.6,1.2-1.2s-0.6-1.2-1.2-1.2S260.2,106.7,260.2,107.4z"/>
					<path class="st1" d="M260.2,119.9c0,0.7,0.6,1.2,1.2,1.2s1.2-0.6,1.2-1.2s-0.6-1.2-1.2-1.2S260.2,119.2,260.2,119.9z"/>
					<path class="st1" d="M260.2,132.4c0,0.7,0.6,1.2,1.2,1.2s1.2-0.6,1.2-1.2s-0.6-1.2-1.2-1.2S260.2,131.7,260.2,132.4z"/>
					<path class="st1" d="M260.2,144.9c0,0.7,0.6,1.2,1.2,1.2s1.2-0.6,1.2-1.2s-0.6-1.2-1.2-1.2S260.2,144.2,260.2,144.9z"/>
					<path class="st1" d="M260.2,157.4c0,0.7,0.6,1.2,1.2,1.2s1.2-0.6,1.2-1.2s-0.6-1.2-1.2-1.2S260.2,156.7,260.2,157.4z"/>
					<path class="st1" d="M260.2,169.9c0,0.7,0.6,1.2,1.2,1.2s1.2-0.6,1.2-1.2s-0.6-1.2-1.2-1.2S260.2,169.2,260.2,169.9z"/>
					<path class="st1" d="M260.2,182.4c0,0.7,0.5,1.3,1.2,1.3c0.7,0,1.3-0.5,1.3-1.2c0-0.7-0.5-1.3-1.2-1.3c0,0,0,0,0,0
						C260.8,181.2,260.2,181.7,260.2,182.4z"/>
					<path class="st1" d="M260.2,194.9c0,0.7,0.5,1.3,1.2,1.3c0.7,0,1.3-0.5,1.3-1.2c0-0.7-0.5-1.3-1.2-1.3c0,0,0,0,0,0
						C260.8,193.7,260.2,194.2,260.2,194.9C260.2,194.9,260.2,194.9,260.2,194.9z"/>
					<path class="st1" d="M247.7,107.4c0,0.7,0.6,1.2,1.2,1.2s1.2-0.6,1.2-1.2s-0.6-1.2-1.2-1.2S247.7,106.7,247.7,107.4z"/>
					<path class="st1" d="M247.7,119.9c0,0.7,0.6,1.2,1.2,1.2s1.2-0.6,1.2-1.2s-0.6-1.2-1.2-1.2S247.7,119.2,247.7,119.9z"/>
					<path class="st1" d="M247.7,132.4c0,0.7,0.6,1.2,1.2,1.2s1.2-0.6,1.2-1.2s-0.6-1.2-1.2-1.2S247.7,131.7,247.7,132.4z"/>
					<path class="st1" d="M247.7,144.9c0,0.7,0.6,1.2,1.2,1.2s1.2-0.6,1.2-1.2s-0.6-1.2-1.2-1.2S247.7,144.2,247.7,144.9z"/>
					<path class="st1" d="M247.7,157.4c0,0.7,0.6,1.2,1.2,1.2s1.2-0.6,1.2-1.2s-0.6-1.2-1.2-1.2S247.7,156.7,247.7,157.4z"/>
					<path class="st1" d="M247.7,169.9c0,0.7,0.6,1.2,1.2,1.2s1.2-0.6,1.2-1.2s-0.6-1.2-1.2-1.2S247.7,169.2,247.7,169.9z"/>
					<path class="st1" d="M247.7,182.4c0,0.7,0.5,1.3,1.2,1.3c0.7,0,1.3-0.5,1.3-1.2s-0.5-1.3-1.2-1.3c0,0,0,0,0,0
						C248.3,181.2,247.7,181.7,247.7,182.4z"/>
					<path class="st1" d="M247.7,194.9c0,0.7,0.5,1.3,1.2,1.3c0.7,0,1.3-0.5,1.3-1.2s-0.5-1.3-1.2-1.3c0,0,0,0,0,0
						C248.3,193.7,247.7,194.2,247.7,194.9C247.7,194.9,247.7,194.9,247.7,194.9z"/>
					<path class="st1" d="M235.2,107.4c0,0.7,0.6,1.2,1.2,1.2s1.2-0.6,1.2-1.2s-0.6-1.2-1.2-1.2S235.2,106.7,235.2,107.4z"/>
					<path class="st1" d="M235.2,119.9c0,0.7,0.6,1.2,1.2,1.2s1.2-0.6,1.2-1.2s-0.6-1.2-1.2-1.2S235.2,119.2,235.2,119.9z"/>
					<path class="st1" d="M235.2,132.4c0,0.7,0.6,1.2,1.2,1.2s1.2-0.6,1.2-1.2s-0.6-1.2-1.2-1.2S235.2,131.7,235.2,132.4z"/>
					<path class="st1" d="M235.2,144.9c0,0.7,0.6,1.2,1.2,1.2s1.2-0.6,1.2-1.2s-0.6-1.2-1.2-1.2S235.2,144.2,235.2,144.9z"/>
					<path class="st1" d="M235.2,157.4c0,0.7,0.6,1.2,1.2,1.2s1.2-0.6,1.2-1.2s-0.6-1.2-1.2-1.2S235.2,156.7,235.2,157.4z"/>
					<path class="st1" d="M235.2,169.9c0,0.7,0.6,1.2,1.2,1.2s1.2-0.6,1.2-1.2s-0.6-1.2-1.2-1.2S235.2,169.2,235.2,169.9z"/>
					<path class="st1" d="M235.2,182.4c0,0.7,0.5,1.3,1.2,1.3c0.7,0,1.3-0.5,1.3-1.2s-0.5-1.3-1.2-1.3c0,0,0,0,0,0
						C235.8,181.2,235.2,181.7,235.2,182.4z"/>
					<path class="st1" d="M235.2,194.9c0,0.7,0.5,1.3,1.2,1.3c0.7,0,1.3-0.5,1.3-1.2s-0.5-1.3-1.2-1.3c0,0,0,0,0,0
						C235.8,193.7,235.2,194.2,235.2,194.9C235.2,194.9,235.2,194.9,235.2,194.9z"/>
					<path class="st1" d="M222.7,107.4c0,0.7,0.6,1.2,1.2,1.2s1.2-0.6,1.2-1.2s-0.6-1.2-1.2-1.2S222.7,106.7,222.7,107.4z"/>
					<path class="st1" d="M222.7,119.9c0,0.7,0.6,1.2,1.2,1.2s1.2-0.6,1.2-1.2s-0.6-1.2-1.2-1.2S222.7,119.2,222.7,119.9z"/>
					<path class="st1" d="M222.7,132.4c0,0.7,0.6,1.2,1.2,1.2s1.2-0.6,1.2-1.2s-0.6-1.2-1.2-1.2S222.7,131.7,222.7,132.4z"/>
					<path class="st1" d="M222.7,144.9c0,0.7,0.6,1.2,1.2,1.2s1.2-0.6,1.2-1.2s-0.6-1.2-1.2-1.2S222.7,144.2,222.7,144.9z"/>
					<path class="st1" d="M222.7,157.4c0,0.7,0.6,1.2,1.2,1.2s1.2-0.6,1.2-1.2s-0.6-1.2-1.2-1.2S222.7,156.7,222.7,157.4z"/>
					<path class="st1" d="M222.7,169.9c0,0.7,0.6,1.2,1.2,1.2s1.2-0.6,1.2-1.2s-0.6-1.2-1.2-1.2S222.7,169.2,222.7,169.9z"/>
					<path class="st1" d="M222.7,182.4c0,0.7,0.5,1.3,1.2,1.3c0.7,0,1.3-0.5,1.3-1.2s-0.5-1.3-1.2-1.3c0,0,0,0,0,0
						C223.3,181.2,222.7,181.7,222.7,182.4z"/>
					<path class="st1" d="M222.7,194.9c0,0.7,0.5,1.3,1.2,1.3c0.7,0,1.3-0.5,1.3-1.2s-0.5-1.3-1.2-1.3c0,0,0,0,0,0
						C223.3,193.7,222.7,194.2,222.7,194.9C222.7,194.9,222.7,194.9,222.7,194.9z"/>
					<path class="st1" d="M210.2,107.4c0,0.7,0.6,1.2,1.2,1.2s1.2-0.6,1.2-1.2s-0.6-1.2-1.2-1.2S210.2,106.7,210.2,107.4z"/>
					<path class="st1" d="M210.2,119.9c0,0.7,0.6,1.2,1.2,1.2s1.2-0.6,1.2-1.2s-0.6-1.2-1.2-1.2S210.2,119.2,210.2,119.9z"/>
					<path class="st1" d="M210.2,132.4c0,0.7,0.6,1.2,1.2,1.2s1.2-0.6,1.2-1.2s-0.6-1.2-1.2-1.2S210.2,131.7,210.2,132.4z"/>
					<path class="st1" d="M210.2,144.9c0,0.7,0.6,1.2,1.2,1.2s1.2-0.6,1.2-1.2s-0.6-1.2-1.2-1.2S210.2,144.2,210.2,144.9z"/>
					<path class="st1" d="M210.2,157.4c0,0.7,0.6,1.2,1.2,1.2s1.2-0.6,1.2-1.2s-0.6-1.2-1.2-1.2S210.2,156.7,210.2,157.4z"/>
					<path class="st1" d="M210.2,169.9c0,0.7,0.6,1.2,1.2,1.2s1.2-0.6,1.2-1.2s-0.6-1.2-1.2-1.2S210.2,169.2,210.2,169.9z"/>
					<path class="st1" d="M210.2,182.4c0,0.7,0.5,1.3,1.2,1.3c0.7,0,1.3-0.5,1.3-1.2s-0.5-1.3-1.2-1.3c0,0,0,0,0,0
						C210.8,181.2,210.2,181.7,210.2,182.4z"/>
					<path class="st1" d="M210.2,194.9c0,0.7,0.5,1.3,1.2,1.3c0.7,0,1.3-0.5,1.3-1.2s-0.5-1.3-1.2-1.3c0,0,0,0,0,0
						C210.8,193.7,210.2,194.2,210.2,194.9C210.2,194.9,210.2,194.9,210.2,194.9z"/>
					<path class="st1" d="M197.7,107.4c0,0.7,0.6,1.2,1.2,1.2s1.2-0.6,1.2-1.2s-0.6-1.2-1.2-1.2S197.7,106.7,197.7,107.4z"/>
					<path class="st1" d="M197.7,119.9c0,0.7,0.6,1.2,1.2,1.2s1.2-0.6,1.2-1.2s-0.6-1.2-1.2-1.2S197.7,119.2,197.7,119.9z"/>
					<path class="st1" d="M197.7,132.4c0,0.7,0.6,1.2,1.2,1.2s1.2-0.6,1.2-1.2s-0.6-1.2-1.2-1.2S197.7,131.7,197.7,132.4z"/>
					<path class="st1" d="M197.7,144.9c0,0.7,0.6,1.2,1.2,1.2s1.2-0.6,1.2-1.2s-0.6-1.2-1.2-1.2S197.7,144.2,197.7,144.9z"/>
					<path class="st1" d="M197.7,157.4c0,0.7,0.6,1.2,1.2,1.2s1.2-0.6,1.2-1.2s-0.6-1.2-1.2-1.2S197.7,156.7,197.7,157.4z"/>
					<path class="st1" d="M197.7,169.9c0,0.7,0.6,1.2,1.2,1.2s1.2-0.6,1.2-1.2s-0.6-1.2-1.2-1.2S197.7,169.2,197.7,169.9z"/>
					<path class="st1" d="M197.7,182.4c0,0.7,0.5,1.3,1.2,1.3c0.7,0,1.3-0.5,1.3-1.2c0-0.7-0.5-1.3-1.2-1.3c0,0,0,0,0,0
						C198.3,181.2,197.7,181.7,197.7,182.4z"/>
					<path class="st1" d="M197.7,194.9c0,0.7,0.5,1.3,1.2,1.3c0.7,0,1.3-0.5,1.3-1.2c0-0.7-0.5-1.3-1.2-1.3c0,0,0,0,0,0
						C198.3,193.7,197.7,194.2,197.7,194.9C197.7,194.9,197.7,194.9,197.7,194.9z"/>
					<path class="st1" d="M185.2,107.4c0,0.7,0.6,1.2,1.3,1.2c0.7,0,1.2-0.6,1.2-1.3c0-0.7-0.6-1.2-1.3-1.2c0,0,0,0,0,0
						C185.8,106.2,185.2,106.7,185.2,107.4C185.2,107.4,185.2,107.4,185.2,107.4z"/>
					<path class="st1" d="M185.2,119.9c0,0.7,0.6,1.2,1.3,1.2c0.7,0,1.2-0.6,1.2-1.3c0-0.7-0.6-1.2-1.3-1.2c0,0,0,0,0,0
						C185.8,118.7,185.2,119.2,185.2,119.9C185.2,119.9,185.2,119.9,185.2,119.9z"/>
					<path class="st1" d="M185.2,132.4c0,0.7,0.6,1.2,1.3,1.2c0.7,0,1.2-0.6,1.2-1.3s-0.6-1.2-1.3-1.2c0,0,0,0,0,0
						C185.8,131.2,185.2,131.7,185.2,132.4C185.2,132.4,185.2,132.4,185.2,132.4z"/>
					<path class="st1" d="M185.2,144.9c0,0.7,0.6,1.2,1.3,1.2c0.7,0,1.2-0.6,1.2-1.3s-0.6-1.2-1.3-1.2c0,0,0,0,0,0
						C185.8,143.7,185.2,144.2,185.2,144.9C185.2,144.9,185.2,144.9,185.2,144.9z"/>
					<path class="st1" d="M185.2,157.4c0,0.7,0.6,1.2,1.3,1.2c0.7,0,1.2-0.6,1.2-1.3s-0.6-1.2-1.3-1.2c0,0,0,0,0,0
						C185.8,156.2,185.2,156.7,185.2,157.4C185.2,157.4,185.2,157.4,185.2,157.4z"/>
					<path class="st1" d="M185.2,169.9c0,0.7,0.6,1.2,1.3,1.2c0.7,0,1.2-0.6,1.2-1.3s-0.6-1.2-1.3-1.2c0,0,0,0,0,0
						C185.8,168.7,185.2,169.2,185.2,169.9C185.2,169.9,185.2,169.9,185.2,169.9z"/>
					<path class="st1" d="M185.2,182.4c0,0.7,0.5,1.3,1.2,1.3c0.7,0,1.3-0.5,1.3-1.2c0-0.7-0.5-1.3-1.2-1.3c0,0,0,0,0,0
						C185.8,181.2,185.2,181.7,185.2,182.4L185.2,182.4z"/>
					<path class="st1" d="M185.2,194.9c0,0.7,0.5,1.3,1.2,1.3c0.7,0,1.3-0.5,1.3-1.2c0-0.7-0.5-1.3-1.2-1.3c0,0,0,0,0,0
						C185.8,193.7,185.2,194.2,185.2,194.9L185.2,194.9z"/>
					<path class="st1" d="M172.7,107.4c0,0.7,0.6,1.2,1.3,1.2c0.7,0,1.2-0.6,1.2-1.3c0-0.7-0.5-1.2-1.2-1.2
						C173.3,106.2,172.7,106.7,172.7,107.4C172.7,107.4,172.7,107.4,172.7,107.4z"/>
					<path class="st1" d="M172.7,119.9c0,0.7,0.6,1.2,1.3,1.2c0.7,0,1.2-0.6,1.2-1.3c0-0.7-0.5-1.2-1.2-1.2
						C173.3,118.7,172.7,119.2,172.7,119.9C172.7,119.9,172.7,119.9,172.7,119.9z"/>
					<path class="st1" d="M172.7,132.4c0,0.7,0.6,1.2,1.3,1.2s1.2-0.6,1.2-1.3c0-0.7-0.5-1.2-1.2-1.2
						C173.3,131.2,172.7,131.7,172.7,132.4C172.7,132.4,172.7,132.4,172.7,132.4z"/>
					<path class="st1" d="M172.7,144.9c0,0.7,0.6,1.2,1.3,1.2c0.7,0,1.2-0.6,1.2-1.3c0-0.7-0.5-1.2-1.2-1.2
						C173.3,143.7,172.7,144.2,172.7,144.9C172.7,144.9,172.7,144.9,172.7,144.9z"/>
					<path class="st1" d="M172.7,157.4c0,0.7,0.6,1.2,1.3,1.2c0.7,0,1.2-0.6,1.2-1.3c0-0.7-0.5-1.2-1.2-1.2
						C173.3,156.2,172.7,156.7,172.7,157.4C172.7,157.4,172.7,157.4,172.7,157.4z"/>
					<path class="st1" d="M172.7,169.9c0,0.7,0.6,1.2,1.3,1.2c0.7,0,1.2-0.6,1.2-1.3c0-0.7-0.5-1.2-1.2-1.2
						C173.3,168.7,172.7,169.2,172.7,169.9C172.7,169.9,172.7,169.9,172.7,169.9z"/>
					<path class="st1" d="M172.7,182.4c0,0.7,0.5,1.3,1.2,1.3c0.7,0,1.3-0.5,1.3-1.2c0-0.7-0.5-1.2-1.2-1.3
						C173.3,181.2,172.7,181.7,172.7,182.4C172.7,182.4,172.7,182.4,172.7,182.4z"/>
					<path class="st1" d="M172.7,194.9c-0.1,0.7,0.4,1.3,1.1,1.4s1.3-0.4,1.4-1.1c0-0.1,0-0.1,0-0.2c-0.1-0.7-0.7-1.2-1.4-1.1
						C173.3,193.9,172.8,194.3,172.7,194.9z"/>
					<path class="st1" d="M160.2,107.4c0,0.7,0.6,1.2,1.2,1.2c0.7,0,1.2-0.6,1.2-1.2s-0.6-1.2-1.2-1.2
						C160.8,106.2,160.2,106.7,160.2,107.4z"/>
					<path class="st1" d="M160.2,119.9c0,0.7,0.6,1.2,1.2,1.2c0.7,0,1.2-0.6,1.2-1.2s-0.6-1.2-1.2-1.2
						C160.8,118.7,160.2,119.2,160.2,119.9z"/>
					<path class="st1" d="M160.2,132.4c0,0.7,0.6,1.2,1.2,1.2c0.7,0,1.2-0.6,1.2-1.2s-0.6-1.2-1.2-1.2
						C160.8,131.2,160.2,131.7,160.2,132.4z"/>
					<path class="st1" d="M160.2,144.9c0,0.7,0.6,1.2,1.2,1.2c0.7,0,1.2-0.6,1.2-1.2s-0.6-1.2-1.2-1.2
						C160.8,143.7,160.2,144.2,160.2,144.9z"/>
					<path class="st1" d="M160.2,157.4c0,0.7,0.6,1.2,1.2,1.2c0.7,0,1.2-0.6,1.2-1.2s-0.6-1.2-1.2-1.2
						C160.8,156.2,160.2,156.7,160.2,157.4z"/>
					<path class="st1" d="M160.2,169.9c0,0.7,0.6,1.2,1.2,1.2c0.7,0,1.2-0.6,1.2-1.2s-0.6-1.2-1.2-1.2
						C160.8,168.7,160.2,169.2,160.2,169.9z"/>
					<path class="st1" d="M160.2,182.4c0,0.7,0.5,1.3,1.2,1.3c0.7,0,1.3-0.5,1.3-1.2c0-0.7-0.5-1.3-1.2-1.3c0,0,0,0,0,0
						C160.8,181.2,160.2,181.7,160.2,182.4z"/>
					<path class="st1" d="M160.2,194.9c0,0.7,0.5,1.3,1.2,1.3c0.7,0,1.3-0.5,1.3-1.2c0-0.7-0.5-1.3-1.2-1.3c0,0,0,0,0,0
						C160.8,193.7,160.2,194.2,160.2,194.9C160.2,194.9,160.2,194.9,160.2,194.9z"/>
					<path class="st1" d="M147.7,107.4c0,0.7,0.6,1.2,1.3,1.2c0.7,0,1.2-0.6,1.2-1.3c0-0.7-0.5-1.2-1.2-1.2
						C148.3,106.2,147.7,106.7,147.7,107.4C147.7,107.4,147.7,107.4,147.7,107.4z"/>
					<path class="st1" d="M147.7,119.9c0,0.7,0.6,1.2,1.3,1.2c0.7,0,1.2-0.6,1.2-1.3c0-0.7-0.5-1.2-1.2-1.2
						C148.3,118.7,147.7,119.2,147.7,119.9C147.7,119.9,147.7,119.9,147.7,119.9z"/>
					<path class="st1" d="M147.7,132.4c0,0.7,0.6,1.2,1.3,1.2c0.7,0,1.2-0.6,1.2-1.3c0-0.7-0.5-1.2-1.2-1.2
						C148.3,131.2,147.7,131.7,147.7,132.4C147.7,132.4,147.7,132.4,147.7,132.4z"/>
					<path class="st1" d="M147.7,144.9c0,0.7,0.6,1.2,1.3,1.2c0.7,0,1.2-0.6,1.2-1.3c0-0.7-0.5-1.2-1.2-1.2
						C148.3,143.7,147.7,144.2,147.7,144.9C147.7,144.9,147.7,144.9,147.7,144.9z"/>
					<path class="st1" d="M147.7,157.4c0,0.7,0.6,1.2,1.3,1.2c0.7,0,1.2-0.6,1.2-1.3c0-0.7-0.5-1.2-1.2-1.2
						C148.3,156.2,147.7,156.7,147.7,157.4C147.7,157.4,147.7,157.4,147.7,157.4z"/>
					<path class="st1" d="M147.7,169.9c0,0.7,0.6,1.2,1.3,1.2c0.7,0,1.2-0.6,1.2-1.3c0-0.7-0.5-1.2-1.2-1.2
						C148.3,168.7,147.7,169.2,147.7,169.9C147.7,169.9,147.7,169.9,147.7,169.9z"/>
					<path class="st1" d="M147.7,182.4c0,0.7,0.6,1.3,1.2,1.3s1.3-0.6,1.3-1.2c0-0.7-0.5-1.2-1.2-1.3
						C148.3,181.2,147.7,181.7,147.7,182.4C147.7,182.4,147.7,182.4,147.7,182.4z"/>
					<path class="st1" d="M147.7,194.9c0,0.7,0.6,1.3,1.2,1.3s1.3-0.6,1.3-1.2c0-0.7-0.5-1.2-1.2-1.3
						C148.3,193.7,147.7,194.2,147.7,194.9C147.7,194.9,147.7,194.9,147.7,194.9z"/>
					<path class="st1" d="M135.2,107.4c0,0.7,0.6,1.2,1.2,1.2c0.7,0,1.2-0.6,1.2-1.2s-0.6-1.2-1.2-1.2
						C135.8,106.2,135.2,106.7,135.2,107.4z"/>
					<path class="st1" d="M135.2,119.9c0,0.7,0.6,1.2,1.2,1.2c0.7,0,1.2-0.6,1.2-1.2s-0.6-1.2-1.2-1.2
						C135.8,118.7,135.2,119.2,135.2,119.9z"/>
					<path class="st1" d="M135.2,132.4c0,0.7,0.6,1.2,1.2,1.2c0.7,0,1.2-0.6,1.2-1.2s-0.6-1.2-1.2-1.2
						C135.8,131.2,135.2,131.7,135.2,132.4z"/>
					<path class="st1" d="M135.2,144.9c0,0.7,0.6,1.2,1.2,1.2c0.7,0,1.2-0.6,1.2-1.2s-0.6-1.2-1.2-1.2
						C135.8,143.7,135.2,144.2,135.2,144.9z"/>
					<path class="st1" d="M135.2,157.4c0,0.7,0.6,1.2,1.2,1.2c0.7,0,1.2-0.6,1.2-1.2s-0.6-1.2-1.2-1.2
						C135.8,156.2,135.2,156.7,135.2,157.4z"/>
					<path class="st1" d="M135.2,169.9c0,0.7,0.6,1.2,1.2,1.2c0.7,0,1.2-0.6,1.2-1.2s-0.6-1.2-1.2-1.2
						C135.8,168.7,135.2,169.2,135.2,169.9z"/>
					<path class="st1" d="M135.2,182.4c0,0.7,0.5,1.3,1.2,1.3c0.7,0,1.3-0.5,1.3-1.2c0-0.7-0.5-1.3-1.2-1.3c0,0,0,0,0,0
						C135.8,181.2,135.2,181.7,135.2,182.4z"/>
					<path class="st1" d="M135.2,194.9c0,0.7,0.5,1.3,1.2,1.3c0.7,0,1.3-0.5,1.3-1.2c0-0.7-0.5-1.3-1.2-1.3c0,0,0,0,0,0
						C135.8,193.7,135.2,194.2,135.2,194.9C135.2,194.9,135.2,194.9,135.2,194.9z"/>
					<path class="st1" d="M122.7,107.4c0,0.7,0.6,1.2,1.3,1.2c0.7,0,1.2-0.6,1.2-1.3c0-0.7-0.5-1.2-1.2-1.2
						C123.3,106.2,122.7,106.7,122.7,107.4C122.7,107.4,122.7,107.4,122.7,107.4z"/>
					<path class="st1" d="M122.7,119.9c0,0.7,0.6,1.2,1.3,1.2c0.7,0,1.2-0.6,1.2-1.3c0-0.7-0.5-1.2-1.2-1.2
						C123.3,118.7,122.7,119.2,122.7,119.9C122.7,119.9,122.7,119.9,122.7,119.9z"/>
					<path class="st1" d="M122.7,132.4c0,0.7,0.6,1.2,1.3,1.2c0.7,0,1.2-0.6,1.2-1.3c0-0.7-0.5-1.2-1.2-1.2
						C123.3,131.2,122.7,131.7,122.7,132.4C122.7,132.4,122.7,132.4,122.7,132.4z"/>
					<path class="st1" d="M122.7,144.9c0,0.7,0.6,1.2,1.3,1.2c0.7,0,1.2-0.6,1.2-1.3c0-0.7-0.5-1.2-1.2-1.2
						C123.3,143.7,122.7,144.2,122.7,144.9C122.7,144.9,122.7,144.9,122.7,144.9z"/>
					<path class="st1" d="M122.7,157.4c0,0.7,0.6,1.2,1.3,1.2c0.7,0,1.2-0.6,1.2-1.3c0-0.7-0.5-1.2-1.2-1.2
						C123.3,156.2,122.7,156.7,122.7,157.4C122.7,157.4,122.7,157.4,122.7,157.4z"/>
					<path class="st1" d="M122.7,169.9c0,0.7,0.6,1.2,1.3,1.2c0.7,0,1.2-0.6,1.2-1.3c0-0.7-0.5-1.2-1.2-1.2
						C123.3,168.7,122.7,169.2,122.7,169.9C122.7,169.9,122.7,169.9,122.7,169.9z"/>
					<path class="st1" d="M122.7,182.4c0,0.7,0.6,1.3,1.2,1.3s1.3-0.6,1.3-1.2c0-0.7-0.5-1.2-1.2-1.3
						C123.3,181.2,122.7,181.7,122.7,182.4C122.7,182.4,122.7,182.4,122.7,182.4z"/>
					<path class="st1" d="M122.7,194.9c0,0.7,0.6,1.3,1.2,1.3s1.3-0.6,1.3-1.2c0-0.7-0.5-1.2-1.2-1.3
						C123.3,193.7,122.7,194.2,122.7,194.9C122.7,194.9,122.7,194.9,122.7,194.9z"/>
					<path class="st1" d="M110.2,107.4c0,0.7,0.6,1.2,1.2,1.2s1.2-0.6,1.2-1.2s-0.6-1.2-1.2-1.2S110.2,106.7,110.2,107.4z"/>
					<path class="st1" d="M110.2,119.9c0,0.7,0.6,1.2,1.2,1.2s1.2-0.6,1.2-1.2s-0.6-1.2-1.2-1.2S110.2,119.2,110.2,119.9z"/>
					<path class="st1" d="M110.2,132.4c0,0.7,0.6,1.2,1.2,1.2s1.2-0.6,1.2-1.2s-0.6-1.2-1.2-1.2S110.2,131.7,110.2,132.4z"/>
					<path class="st1" d="M110.2,144.9c0,0.7,0.6,1.2,1.2,1.2s1.2-0.6,1.2-1.2s-0.6-1.2-1.2-1.2S110.2,144.2,110.2,144.9z"/>
					<path class="st1" d="M110.2,157.4c0,0.7,0.6,1.2,1.2,1.2s1.2-0.6,1.2-1.2s-0.6-1.2-1.2-1.2S110.2,156.7,110.2,157.4z"/>
					<path class="st1" d="M110.2,169.9c0,0.7,0.6,1.2,1.2,1.2s1.2-0.6,1.2-1.2s-0.6-1.2-1.2-1.2S110.2,169.2,110.2,169.9z"/>
					<path class="st1" d="M110.2,182.4c0,0.7,0.5,1.3,1.2,1.3c0.7,0,1.3-0.5,1.3-1.2c0-0.7-0.5-1.3-1.2-1.3c0,0,0,0,0,0
						C110.8,181.2,110.2,181.7,110.2,182.4z"/>
					<path class="st1" d="M110.2,194.9c0,0.7,0.5,1.3,1.2,1.3c0.7,0,1.3-0.5,1.3-1.2c0-0.7-0.5-1.3-1.2-1.3c0,0,0,0,0,0
						C110.8,193.7,110.2,194.2,110.2,194.9C110.2,194.9,110.2,194.9,110.2,194.9z"/>
					<path class="st1" d="M97.7,107.4c0,0.7,0.6,1.2,1.3,1.2c0.7,0,1.2-0.6,1.2-1.3c0-0.7-0.5-1.2-1.2-1.2
						C98.3,106.2,97.7,106.7,97.7,107.4C97.7,107.4,97.7,107.4,97.7,107.4z"/>
					<path class="st1" d="M97.7,119.9c0,0.7,0.6,1.2,1.3,1.2c0.7,0,1.2-0.6,1.2-1.3c0-0.7-0.5-1.2-1.2-1.2
						C98.3,118.7,97.7,119.2,97.7,119.9C97.7,119.9,97.7,119.9,97.7,119.9z"/>
					<path class="st1" d="M97.7,132.4c0,0.7,0.6,1.2,1.3,1.2c0.7,0,1.2-0.6,1.2-1.3c0-0.7-0.5-1.2-1.2-1.2
						C98.3,131.2,97.7,131.7,97.7,132.4C97.7,132.4,97.7,132.4,97.7,132.4z"/>
					<path class="st1" d="M97.7,144.9c0,0.7,0.6,1.2,1.3,1.2c0.7,0,1.2-0.6,1.2-1.3c0-0.7-0.5-1.2-1.2-1.2
						C98.3,143.7,97.7,144.2,97.7,144.9C97.7,144.9,97.7,144.9,97.7,144.9z"/>
					<path class="st1" d="M97.7,157.4c0,0.7,0.6,1.2,1.3,1.2c0.7,0,1.2-0.6,1.2-1.3c0-0.7-0.5-1.2-1.2-1.2
						C98.3,156.2,97.7,156.7,97.7,157.4C97.7,157.4,97.7,157.4,97.7,157.4z"/>
					<path class="st1" d="M97.7,169.9c0,0.7,0.6,1.2,1.3,1.2c0.7,0,1.2-0.6,1.2-1.3c0-0.7-0.5-1.2-1.2-1.2
						C98.3,168.7,97.7,169.2,97.7,169.9C97.7,169.9,97.7,169.9,97.7,169.9z"/>
					<path class="st1" d="M97.7,182.4c0,0.7,0.6,1.3,1.2,1.3c0.7,0,1.3-0.6,1.3-1.2c0-0.7-0.5-1.2-1.2-1.3
						C98.3,181.2,97.7,181.7,97.7,182.4C97.7,182.4,97.7,182.4,97.7,182.4z"/>
					<path class="st1" d="M97.7,194.9c0,0.7,0.6,1.3,1.2,1.3c0.7,0,1.3-0.6,1.3-1.2c0-0.7-0.5-1.2-1.2-1.3
						C98.3,193.7,97.7,194.2,97.7,194.9C97.7,194.9,97.7,194.9,97.7,194.9z"/>
					<path class="st1" d="M85.2,107.4c0,0.7,0.6,1.2,1.2,1.2c0.7,0,1.2-0.6,1.2-1.2s-0.6-1.2-1.2-1.2
						C85.8,106.2,85.2,106.7,85.2,107.4z"/>
					<path class="st1" d="M85.2,119.9c0,0.7,0.6,1.2,1.2,1.2c0.7,0,1.2-0.6,1.2-1.2s-0.6-1.2-1.2-1.2
						C85.8,118.7,85.2,119.2,85.2,119.9z"/>
					<path class="st1" d="M85.2,132.4c0,0.7,0.6,1.2,1.2,1.2c0.7,0,1.2-0.6,1.2-1.2s-0.6-1.2-1.2-1.2
						C85.8,131.2,85.2,131.7,85.2,132.4z"/>
					<path class="st1" d="M85.2,144.9c0,0.7,0.6,1.2,1.2,1.2c0.7,0,1.2-0.6,1.2-1.2s-0.6-1.2-1.2-1.2
						C85.8,143.7,85.2,144.2,85.2,144.9z"/>
					<path class="st1" d="M85.2,157.4c0,0.7,0.6,1.2,1.2,1.2c0.7,0,1.2-0.6,1.2-1.2s-0.6-1.2-1.2-1.2
						C85.8,156.2,85.2,156.7,85.2,157.4z"/>
					<path class="st1" d="M85.2,169.9c0,0.7,0.6,1.2,1.2,1.2c0.7,0,1.2-0.6,1.2-1.2s-0.6-1.2-1.2-1.2
						C85.8,168.7,85.2,169.2,85.2,169.9z"/>
					<path class="st1" d="M85.2,182.4c0,0.7,0.5,1.3,1.2,1.3c0.7,0,1.3-0.5,1.3-1.2c0-0.7-0.5-1.3-1.2-1.3c0,0,0,0,0,0
						C85.8,181.2,85.2,181.7,85.2,182.4z"/>
					<path class="st1" d="M85.2,194.9c0,0.7,0.5,1.3,1.2,1.3c0.7,0,1.3-0.5,1.3-1.2c0-0.7-0.5-1.3-1.2-1.3c0,0,0,0,0,0
						C85.8,193.7,85.2,194.2,85.2,194.9C85.2,194.9,85.2,194.9,85.2,194.9z"/>
					<path class="st1" d="M72.7,107.4c0,0.7,0.6,1.3,1.2,1.3c0,0,0,0,0,0c0.7,0,1.2-0.6,1.2-1.2c0-0.7-0.5-1.2-1.2-1.2
						C73.3,106.2,72.7,106.7,72.7,107.4C72.7,107.4,72.7,107.4,72.7,107.4z"/>
					<path class="st1" d="M72.7,119.9c0,0.7,0.6,1.3,1.2,1.3c0,0,0,0,0,0c0.7,0,1.2-0.6,1.2-1.2c0-0.7-0.5-1.2-1.2-1.2
						C73.3,118.7,72.7,119.2,72.7,119.9C72.7,119.9,72.7,119.9,72.7,119.9z"/>
					<path class="st1" d="M72.7,132.4c0,0.7,0.6,1.3,1.2,1.3c0,0,0,0,0,0c0.7,0,1.2-0.6,1.2-1.2c0-0.7-0.5-1.2-1.2-1.2
						C73.3,131.2,72.7,131.7,72.7,132.4C72.7,132.4,72.7,132.4,72.7,132.4z"/>
					<path class="st1" d="M72.7,144.9c0,0.7,0.6,1.3,1.2,1.3c0,0,0,0,0,0c0.7,0,1.2-0.6,1.2-1.2c0-0.7-0.5-1.2-1.2-1.2
						C73.3,143.7,72.7,144.2,72.7,144.9C72.7,144.9,72.7,144.9,72.7,144.9z"/>
					<path class="st1" d="M72.7,157.4c0,0.7,0.6,1.3,1.2,1.3c0,0,0,0,0,0c0.7,0,1.2-0.6,1.2-1.2c0-0.7-0.5-1.2-1.2-1.2
						C73.3,156.2,72.7,156.7,72.7,157.4C72.7,157.4,72.7,157.4,72.7,157.4z"/>
					<path class="st1" d="M72.7,169.9c0,0.7,0.6,1.3,1.2,1.3c0,0,0,0,0,0c0.7,0,1.2-0.6,1.2-1.2c0-0.7-0.5-1.2-1.2-1.2
						C73.3,168.7,72.7,169.2,72.7,169.9C72.7,169.9,72.7,169.9,72.7,169.9z"/>
					<path class="st1" d="M72.7,182.4c0,0.7,0.6,1.3,1.2,1.3c0,0,0,0,0,0c0.7,0,1.2-0.6,1.2-1.2c0-0.7-0.5-1.2-1.2-1.2
						C73.3,181.2,72.7,181.7,72.7,182.4C72.7,182.4,72.7,182.4,72.7,182.4z"/>
					<path class="st1" d="M72.7,194.9c0,0.7,0.5,1.2,1.2,1.3c0,0,0,0,0.1,0c0.7,0,1.2-0.6,1.2-1.2c0-0.7-0.5-1.2-1.2-1.2
						C73.3,193.7,72.7,194.2,72.7,194.9C72.7,194.9,72.7,194.9,72.7,194.9z"/>
				</g>
				<g>
					<path class="st1" d="M271.4,8.7c0,0.7,0.6,1.2,1.2,1.2s1.2-0.6,1.2-1.2c0-0.7-0.6-1.3-1.2-1.3S271.4,8,271.4,8.7z"/>
					<path class="st1" d="M271.4,21.2c0,0.7,0.6,1.2,1.2,1.2s1.2-0.6,1.2-1.2s-0.6-1.2-1.2-1.2S271.4,20.5,271.4,21.2z"/>
					<path class="st1" d="M271.4,33.7c0,0.7,0.6,1.2,1.2,1.2s1.2-0.6,1.2-1.2c0-0.7-0.6-1.2-1.2-1.2S271.4,33,271.4,33.7z"/>
					<path class="st1" d="M271.4,46.2c0,0.7,0.6,1.2,1.2,1.2s1.2-0.6,1.2-1.2s-0.6-1.2-1.2-1.2S271.4,45.5,271.4,46.2z"/>
					<path class="st1" d="M271.4,58.7c0,0.7,0.6,1.2,1.2,1.2s1.2-0.6,1.2-1.2s-0.6-1.2-1.2-1.2S271.4,58,271.4,58.7z"/>
					<path class="st1" d="M271.4,71.2c0,0.7,0.5,1.3,1.2,1.3s1.3-0.5,1.3-1.2s-0.5-1.3-1.2-1.3c0,0,0,0-0.1,0
						C272,70,271.4,70.5,271.4,71.2z"/>
					<path class="st1" d="M271.4,83.7c0,0.7,0.5,1.3,1.2,1.3s1.3-0.5,1.3-1.2c0-0.7-0.5-1.3-1.2-1.3c0,0,0,0,0,0
						C271.9,82.4,271.4,83,271.4,83.7z"/>
					<path class="st1" d="M271.4,96.2c0,0.7,0.5,1.3,1.2,1.3c0.7,0,1.3-0.5,1.3-1.2c0-0.7-0.5-1.3-1.2-1.3c0,0,0,0,0,0
						C271.9,95,271.4,95.5,271.4,96.2z"/>
					<path class="st1" d="M258.9,8.7c0,0.7,0.6,1.2,1.2,1.2s1.2-0.6,1.2-1.2c0-0.7-0.6-1.3-1.2-1.3S258.9,8,258.9,8.7z"/>
					<path class="st1" d="M258.9,21.2c0,0.7,0.6,1.2,1.2,1.2s1.2-0.6,1.2-1.2s-0.6-1.2-1.2-1.2S258.9,20.5,258.9,21.2z"/>
					<path class="st1" d="M258.9,33.7c0,0.7,0.6,1.2,1.2,1.2s1.2-0.6,1.2-1.2c0-0.7-0.6-1.2-1.2-1.2S258.9,33,258.9,33.7z"/>
					<path class="st1" d="M258.9,46.2c0,0.7,0.6,1.2,1.2,1.2s1.2-0.6,1.2-1.2s-0.6-1.2-1.2-1.2S258.9,45.5,258.9,46.2z"/>
					<path class="st1" d="M258.9,58.7c0,0.7,0.6,1.2,1.2,1.2s1.2-0.6,1.2-1.2s-0.6-1.2-1.2-1.2S258.9,58,258.9,58.7z"/>
					<path class="st1" d="M258.9,71.2c0,0.7,0.5,1.3,1.2,1.3s1.3-0.5,1.3-1.2s-0.5-1.3-1.2-1.3c0,0,0,0-0.1,0
						C259.5,70,258.9,70.5,258.9,71.2z"/>
					<path class="st1" d="M258.9,83.7c0,0.7,0.5,1.3,1.2,1.3s1.3-0.5,1.3-1.2c0-0.7-0.5-1.3-1.2-1.3c0,0,0,0,0,0
						C259.4,82.4,258.9,83,258.9,83.7z"/>
					<path class="st1" d="M258.9,96.2c0,0.7,0.5,1.3,1.2,1.3c0.7,0,1.3-0.5,1.3-1.2c0-0.7-0.5-1.3-1.2-1.3c0,0,0,0,0,0
						C259.4,95,258.9,95.5,258.9,96.2z"/>
					<path class="st1" d="M246.4,8.7c0,0.7,0.6,1.2,1.2,1.2s1.2-0.6,1.2-1.2c0-0.7-0.6-1.3-1.2-1.3S246.4,8,246.4,8.7z"/>
					<path class="st1" d="M246.4,21.2c0,0.7,0.6,1.2,1.2,1.2s1.2-0.6,1.2-1.2s-0.6-1.2-1.2-1.2S246.4,20.5,246.4,21.2z"/>
					<path class="st1" d="M246.4,33.7c0,0.7,0.6,1.2,1.2,1.2s1.2-0.6,1.2-1.2c0-0.7-0.6-1.2-1.2-1.2S246.4,33,246.4,33.7z"/>
					<path class="st1" d="M246.4,46.2c0,0.7,0.6,1.2,1.2,1.2s1.2-0.6,1.2-1.2s-0.6-1.2-1.2-1.2S246.4,45.5,246.4,46.2z"/>
					<path class="st1" d="M246.4,58.7c0,0.7,0.6,1.2,1.2,1.2s1.2-0.6,1.2-1.2s-0.6-1.2-1.2-1.2S246.4,58,246.4,58.7z"/>
					<path class="st1" d="M246.4,71.2c0,0.7,0.5,1.3,1.2,1.3s1.3-0.5,1.3-1.2c0-0.7-0.5-1.3-1.2-1.3c0,0,0,0-0.1,0
						C247,70,246.4,70.5,246.4,71.2z"/>
					<path class="st1" d="M246.4,83.7c0,0.7,0.5,1.3,1.2,1.3s1.3-0.5,1.3-1.2s-0.5-1.3-1.2-1.3c0,0,0,0,0,0
						C246.9,82.4,246.4,83,246.4,83.7z"/>
					<path class="st1" d="M246.4,96.2c0,0.7,0.5,1.3,1.2,1.3c0.7,0,1.3-0.5,1.3-1.2s-0.5-1.3-1.2-1.3c0,0,0,0,0,0
						C246.9,95,246.4,95.5,246.4,96.2z"/>
					<path class="st1" d="M233.9,8.7c0,0.7,0.6,1.2,1.2,1.2s1.2-0.6,1.2-1.2c0-0.7-0.6-1.3-1.2-1.3S233.9,8,233.9,8.7z"/>
					<path class="st1" d="M233.9,21.2c0,0.7,0.6,1.2,1.2,1.2s1.2-0.6,1.2-1.2s-0.6-1.2-1.2-1.2S233.9,20.5,233.9,21.2z"/>
					<path class="st1" d="M233.9,33.7c0,0.7,0.6,1.2,1.2,1.2s1.2-0.6,1.2-1.2c0-0.7-0.6-1.2-1.2-1.2S233.9,33,233.9,33.7z"/>
					<path class="st1" d="M233.9,46.2c0,0.7,0.6,1.2,1.2,1.2s1.2-0.6,1.2-1.2s-0.6-1.2-1.2-1.2S233.9,45.5,233.9,46.2z"/>
					<path class="st1" d="M233.9,58.7c0,0.7,0.6,1.2,1.2,1.2s1.2-0.6,1.2-1.2s-0.6-1.2-1.2-1.2S233.9,58,233.9,58.7z"/>
					<path class="st1" d="M233.9,71.2c-0.1,0.7,0.4,1.3,1.1,1.4c0.7,0.1,1.3-0.4,1.4-1.1c0-0.1,0-0.1,0-0.2
						c-0.1-0.7-0.7-1.2-1.4-1.1C234.4,70.1,233.9,70.6,233.9,71.2z"/>
					<path class="st1" d="M233.9,83.7c0,0.7,0.5,1.3,1.2,1.3s1.3-0.5,1.3-1.2s-0.5-1.3-1.2-1.3c0,0,0,0,0,0
						C234.4,82.4,233.9,83,233.9,83.7z"/>
					<path class="st1" d="M233.9,96.2c0,0.7,0.5,1.3,1.2,1.3c0.7,0,1.3-0.5,1.3-1.2s-0.5-1.3-1.2-1.3c0,0,0,0,0,0
						C234.4,95,233.9,95.5,233.9,96.2z"/>
					<path class="st1" d="M221.4,8.7c0,0.7,0.6,1.2,1.2,1.2s1.2-0.6,1.2-1.2c0-0.7-0.6-1.3-1.2-1.3S221.4,8,221.4,8.7z"/>
					<path class="st1" d="M221.4,21.2c0,0.7,0.6,1.2,1.2,1.2s1.2-0.6,1.2-1.2s-0.6-1.2-1.2-1.2S221.4,20.5,221.4,21.2z"/>
					<path class="st1" d="M221.4,33.7c0,0.7,0.6,1.2,1.2,1.2s1.2-0.6,1.2-1.2c0-0.7-0.6-1.2-1.2-1.2S221.4,33,221.4,33.7z"/>
					<path class="st1" d="M221.4,46.2c0,0.7,0.6,1.2,1.2,1.2s1.2-0.6,1.2-1.2s-0.6-1.2-1.2-1.2S221.4,45.5,221.4,46.2z"/>
					<path class="st1" d="M221.4,58.7c0,0.7,0.6,1.2,1.2,1.2s1.2-0.6,1.2-1.2s-0.6-1.2-1.2-1.2S221.4,58,221.4,58.7z"/>
					<path class="st1" d="M221.4,71.2c-0.1,0.7,0.4,1.3,1.1,1.4c0.7,0.1,1.3-0.4,1.4-1.1c0-0.1,0-0.1,0-0.2
						c-0.1-0.7-0.7-1.2-1.4-1.1C221.9,70.1,221.4,70.6,221.4,71.2z"/>
					<path class="st1" d="M221.4,83.7c0,0.7,0.5,1.3,1.2,1.3s1.3-0.5,1.3-1.2s-0.5-1.3-1.2-1.3c0,0,0,0,0,0
						C221.9,82.4,221.4,83,221.4,83.7z"/>
					<path class="st1" d="M221.4,96.2c0,0.7,0.5,1.3,1.2,1.3c0.7,0,1.3-0.5,1.3-1.2s-0.5-1.3-1.2-1.3c0,0,0,0,0,0
						C221.9,95,221.4,95.5,221.4,96.2z"/>
					<path class="st1" d="M208.9,8.7c0,0.7,0.6,1.2,1.3,1.2c0.7,0,1.2-0.6,1.2-1.3c0-0.7-0.6-1.2-1.3-1.2c0,0,0,0,0,0
						C209.4,7.4,208.9,8,208.9,8.7C208.9,8.7,208.9,8.7,208.9,8.7z"/>
					<path class="st1" d="M208.9,21.2c0,0.7,0.6,1.2,1.3,1.2c0.7,0,1.2-0.6,1.2-1.3s-0.6-1.2-1.3-1.2c0,0,0,0,0,0
						C209.4,19.9,208.9,20.5,208.9,21.2C208.9,21.2,208.9,21.2,208.9,21.2z"/>
					<path class="st1" d="M208.9,33.7c0,0.7,0.6,1.2,1.3,1.2c0.7,0,1.2-0.6,1.2-1.3c0-0.7-0.6-1.2-1.3-1.2c0,0,0,0,0,0
						C209.4,32.4,208.9,33,208.9,33.7C208.9,33.7,208.9,33.7,208.9,33.7z"/>
					<path class="st1" d="M208.9,46.2c0,0.7,0.6,1.2,1.3,1.2c0.7,0,1.2-0.6,1.2-1.3s-0.6-1.2-1.3-1.2c0,0,0,0,0,0
						C209.4,44.9,208.9,45.5,208.9,46.2C208.9,46.2,208.9,46.2,208.9,46.2z"/>
					<path class="st1" d="M208.9,58.7c0,0.7,0.6,1.2,1.3,1.2c0.7,0,1.2-0.6,1.2-1.3s-0.6-1.2-1.3-1.2c0,0,0,0,0,0
						C209.4,57.4,208.9,58,208.9,58.7C208.9,58.7,208.9,58.7,208.9,58.7z"/>
					<path class="st1" d="M208.9,71.2c0,0.7,0.5,1.3,1.2,1.3c0.7,0,1.3-0.5,1.3-1.2c0-0.7-0.5-1.3-1.2-1.3c0,0,0,0-0.1,0
						C209.4,70,208.9,70.5,208.9,71.2z"/>
					<path class="st1" d="M208.9,83.7c0,0.7,0.5,1.3,1.2,1.3c0.7,0,1.3-0.5,1.3-1.2c0-0.7-0.5-1.3-1.2-1.3c0,0,0,0,0,0
						C209.4,82.5,208.9,83,208.9,83.7L208.9,83.7z"/>
					<path class="st1" d="M208.9,96.2c0.1,0.7,0.7,1.2,1.4,1.1c0.6-0.1,1.1-0.5,1.1-1.1c0.1-0.7-0.4-1.3-1.1-1.4
						c-0.7-0.1-1.3,0.4-1.4,1.1C208.9,96.1,208.9,96.1,208.9,96.2z"/>
					<path class="st1" d="M196.4,8.7c0,0.7,0.6,1.2,1.3,1.2c0.7,0,1.2-0.6,1.2-1.3c0-0.7-0.6-1.2-1.3-1.2c0,0,0,0,0,0
						C196.9,7.4,196.4,8,196.4,8.7C196.4,8.7,196.4,8.7,196.4,8.7z"/>
					<path class="st1" d="M196.4,21.2c0,0.7,0.6,1.2,1.3,1.2s1.2-0.6,1.2-1.3c0-0.7-0.6-1.2-1.3-1.2c0,0,0,0,0,0
						C196.9,19.9,196.4,20.5,196.4,21.2C196.4,21.2,196.4,21.2,196.4,21.2z"/>
					<path class="st1" d="M196.4,33.7c0,0.7,0.6,1.2,1.3,1.2s1.2-0.6,1.2-1.3c0-0.7-0.6-1.2-1.3-1.2c0,0,0,0,0,0
						C196.9,32.4,196.4,33,196.4,33.7C196.4,33.7,196.4,33.7,196.4,33.7z"/>
					<path class="st1" d="M196.4,46.2c0,0.7,0.6,1.2,1.3,1.2c0.7,0,1.2-0.6,1.2-1.3c0-0.7-0.6-1.2-1.3-1.2c0,0,0,0,0,0
						C196.9,44.9,196.4,45.5,196.4,46.2C196.4,46.2,196.4,46.2,196.4,46.2z"/>
					<path class="st1" d="M196.4,58.7c0,0.7,0.6,1.2,1.3,1.2c0.7,0,1.2-0.6,1.2-1.3c0-0.7-0.6-1.2-1.3-1.2c0,0,0,0,0,0
						C196.9,57.4,196.4,58,196.4,58.7C196.4,58.7,196.4,58.7,196.4,58.7z"/>
					<path class="st1" d="M196.4,71.2c0,0.7,0.5,1.3,1.2,1.3c0.7,0,1.3-0.5,1.3-1.2s-0.5-1.3-1.2-1.3c0,0,0,0-0.1,0
						C196.9,70,196.4,70.5,196.4,71.2z"/>
					<path class="st1" d="M196.4,83.7c0,0.7,0.5,1.3,1.2,1.3c0.7,0,1.3-0.5,1.3-1.2c0-0.7-0.5-1.3-1.2-1.3c0,0,0,0,0,0
						C196.9,82.5,196.4,83,196.4,83.7z"/>
					<path class="st1" d="M196.4,96.2c0.1,0.7,0.7,1.2,1.4,1.1c0.6-0.1,1.1-0.5,1.1-1.1c0.1-0.7-0.4-1.3-1.1-1.4
						c-0.7-0.1-1.3,0.4-1.4,1.1C196.4,96.1,196.4,96.1,196.4,96.2z"/>
					<path class="st1" d="M183.9,8.7c0,0.7,0.6,1.2,1.2,1.2s1.2-0.6,1.2-1.2c0-0.7-0.6-1.3-1.2-1.3S183.9,8,183.9,8.7z"/>
					<path class="st1" d="M183.9,21.2c0,0.7,0.6,1.2,1.2,1.2s1.2-0.6,1.2-1.2s-0.6-1.2-1.2-1.2S183.9,20.5,183.9,21.2z"/>
					<path class="st1" d="M183.9,33.7c0,0.7,0.6,1.2,1.2,1.2s1.2-0.6,1.2-1.2c0-0.7-0.6-1.2-1.2-1.2S183.9,33,183.9,33.7z"/>
					<path class="st1" d="M183.9,46.2c0,0.7,0.6,1.2,1.2,1.2s1.2-0.6,1.2-1.2s-0.6-1.2-1.2-1.2S183.9,45.5,183.9,46.2z"/>
					<path class="st1" d="M183.9,58.7c0,0.7,0.6,1.2,1.2,1.2s1.2-0.6,1.2-1.2s-0.6-1.2-1.2-1.2S183.9,58,183.9,58.7z"/>
					<path class="st1" d="M183.9,71.2c0,0.7,0.5,1.3,1.2,1.3c0.7,0,1.3-0.5,1.3-1.2s-0.5-1.3-1.2-1.3c0,0,0,0-0.1,0
						C184.4,70,183.9,70.5,183.9,71.2z"/>
					<path class="st1" d="M183.9,83.7c0,0.7,0.5,1.3,1.2,1.3c0.7,0,1.3-0.5,1.3-1.2s-0.5-1.3-1.2-1.3c0,0,0,0,0,0
						C184.4,82.4,183.9,83,183.9,83.7z"/>
					<path class="st1" d="M183.9,96.2c0,0.7,0.5,1.3,1.2,1.3c0.7,0,1.3-0.5,1.3-1.2s-0.5-1.3-1.2-1.3c0,0,0,0,0,0
						C184.4,95,183.9,95.5,183.9,96.2z"/>
					<path class="st1" d="M171.4,8.7c0,0.7,0.6,1.2,1.2,1.2s1.2-0.6,1.2-1.2c0-0.7-0.6-1.3-1.2-1.3S171.4,8,171.4,8.7z"/>
					<path class="st1" d="M171.4,21.2c0,0.7,0.6,1.2,1.2,1.2s1.2-0.6,1.2-1.2s-0.6-1.2-1.2-1.2S171.4,20.5,171.4,21.2z"/>
					<path class="st1" d="M171.4,33.7c0,0.7,0.6,1.2,1.2,1.2s1.2-0.6,1.2-1.2c0-0.7-0.6-1.2-1.2-1.2S171.4,33,171.4,33.7z"/>
					<path class="st1" d="M171.4,46.2c0,0.7,0.6,1.2,1.2,1.2s1.2-0.6,1.2-1.2s-0.6-1.2-1.2-1.2S171.4,45.5,171.4,46.2z"/>
					<path class="st1" d="M171.4,58.7c0,0.7,0.6,1.2,1.2,1.2s1.2-0.6,1.2-1.2s-0.6-1.2-1.2-1.2S171.4,58,171.4,58.7z"/>
					<path class="st1" d="M171.4,71.2c0,0.7,0.5,1.3,1.2,1.3c0.7,0,1.3-0.5,1.3-1.2s-0.5-1.3-1.2-1.3c0,0,0,0-0.1,0
						C171.9,70,171.4,70.5,171.4,71.2z"/>
					<path class="st1" d="M171.4,83.7c0,0.7,0.5,1.3,1.2,1.3c0.7,0,1.3-0.5,1.3-1.2s-0.5-1.3-1.2-1.3c0,0,0,0,0,0
						C171.9,82.4,171.4,83,171.4,83.7z"/>
					<path class="st1" d="M171.4,96.2c0,0.7,0.5,1.3,1.2,1.3c0.7,0,1.3-0.5,1.3-1.2s-0.5-1.3-1.2-1.3c0,0,0,0,0,0
						C171.9,95,171.4,95.5,171.4,96.2z"/>
					<path class="st1" d="M158.9,8.7c0,0.7,0.6,1.2,1.2,1.2s1.2-0.6,1.2-1.2c0-0.7-0.6-1.3-1.2-1.3S158.9,8,158.9,8.7z"/>
					<path class="st1" d="M158.9,21.2c0,0.7,0.6,1.2,1.2,1.2s1.2-0.6,1.2-1.2s-0.6-1.2-1.2-1.2S158.9,20.5,158.9,21.2z"/>
					<path class="st1" d="M158.9,33.7c0,0.7,0.6,1.2,1.2,1.2s1.2-0.6,1.2-1.2c0-0.7-0.6-1.2-1.2-1.2S158.9,33,158.9,33.7z"/>
					<path class="st1" d="M158.9,46.2c0,0.7,0.6,1.2,1.2,1.2s1.2-0.6,1.2-1.2s-0.6-1.2-1.2-1.2S158.9,45.5,158.9,46.2z"/>
					<path class="st1" d="M158.9,58.7c0,0.7,0.6,1.2,1.2,1.2s1.2-0.6,1.2-1.2s-0.6-1.2-1.2-1.2S158.9,58,158.9,58.7z"/>
					<path class="st1" d="M158.9,71.2c0,0.7,0.5,1.3,1.2,1.3c0.7,0,1.3-0.5,1.3-1.2s-0.5-1.3-1.2-1.3c0,0,0,0-0.1,0
						C159.4,70,158.9,70.5,158.9,71.2z"/>
					<path class="st1" d="M158.9,83.7c0,0.7,0.5,1.3,1.2,1.3c0.7,0,1.3-0.5,1.3-1.2s-0.5-1.3-1.2-1.3c0,0,0,0,0,0
						C159.4,82.4,158.9,83,158.9,83.7z"/>
					<path class="st1" d="M158.9,96.2c0,0.7,0.5,1.3,1.2,1.3c0.7,0,1.3-0.5,1.3-1.2s-0.5-1.3-1.2-1.3c0,0,0,0,0,0
						C159.4,95,158.9,95.5,158.9,96.2z"/>
					<path class="st1" d="M146.4,8.7c0,0.7,0.6,1.2,1.2,1.2s1.2-0.6,1.2-1.2c0-0.7-0.6-1.3-1.2-1.3S146.4,8,146.4,8.7z"/>
					<path class="st1" d="M146.4,21.2c0,0.7,0.6,1.2,1.2,1.2s1.2-0.6,1.2-1.2s-0.6-1.2-1.2-1.2S146.4,20.5,146.4,21.2z"/>
					<path class="st1" d="M146.4,33.7c0,0.7,0.6,1.2,1.2,1.2s1.2-0.6,1.2-1.2c0-0.7-0.6-1.2-1.2-1.2S146.4,33,146.4,33.7z"/>
					<path class="st1" d="M146.4,46.2c0,0.7,0.6,1.2,1.2,1.2s1.2-0.6,1.2-1.2s-0.6-1.2-1.2-1.2S146.4,45.5,146.4,46.2z"/>
					<path class="st1" d="M146.4,58.7c0,0.7,0.6,1.2,1.2,1.2s1.2-0.6,1.2-1.2s-0.6-1.2-1.2-1.2S146.4,58,146.4,58.7z"/>
					<path class="st1" d="M146.4,71.2c0,0.7,0.5,1.3,1.2,1.3c0.7,0,1.3-0.5,1.3-1.2s-0.5-1.3-1.2-1.3c0,0,0,0-0.1,0
						C146.9,70,146.4,70.5,146.4,71.2z"/>
					<path class="st1" d="M146.4,83.7c0,0.7,0.5,1.3,1.2,1.3c0.7,0,1.3-0.5,1.3-1.2s-0.5-1.3-1.2-1.3c0,0,0,0,0,0
						C146.9,82.4,146.4,83,146.4,83.7z"/>
					<path class="st1" d="M146.4,96.2c0,0.7,0.5,1.3,1.2,1.3c0.7,0,1.3-0.5,1.3-1.2s-0.5-1.3-1.2-1.3c0,0,0,0,0,0
						C146.9,95,146.4,95.5,146.4,96.2z"/>
					<path class="st1" d="M133.9,8.7c0,0.7,0.6,1.2,1.2,1.2s1.2-0.6,1.2-1.2c0-0.7-0.6-1.3-1.2-1.3S133.9,8,133.9,8.7z"/>
					<path class="st1" d="M133.9,21.2c0,0.7,0.6,1.2,1.2,1.2s1.2-0.6,1.2-1.2s-0.6-1.2-1.2-1.2S133.9,20.5,133.9,21.2z"/>
					<path class="st1" d="M133.9,33.7c0,0.7,0.6,1.2,1.2,1.2s1.2-0.6,1.2-1.2c0-0.7-0.6-1.2-1.2-1.2S133.9,33,133.9,33.7z"/>
					<path class="st1" d="M133.9,46.2c0,0.7,0.6,1.2,1.2,1.2s1.2-0.6,1.2-1.2s-0.6-1.2-1.2-1.2S133.9,45.5,133.9,46.2z"/>
					<path class="st1" d="M133.9,58.7c0,0.7,0.6,1.2,1.2,1.2s1.2-0.6,1.2-1.2s-0.6-1.2-1.2-1.2S133.9,58,133.9,58.7z"/>
					<path class="st1" d="M133.9,71.2c0,0.7,0.5,1.3,1.2,1.3s1.3-0.5,1.3-1.2s-0.5-1.3-1.2-1.3c0,0,0,0-0.1,0
						C134.4,70,133.9,70.5,133.9,71.2z"/>
					<path class="st1" d="M133.9,83.7c0,0.7,0.5,1.3,1.2,1.3c0.7,0,1.3-0.5,1.3-1.2s-0.5-1.3-1.2-1.3c0,0,0,0,0,0
						C134.4,82.4,133.9,83,133.9,83.7z"/>
					<path class="st1" d="M133.9,96.2c0,0.7,0.5,1.3,1.2,1.3c0.7,0,1.3-0.5,1.3-1.2s-0.5-1.3-1.2-1.3c0,0,0,0,0,0
						C134.4,95,133.9,95.5,133.9,96.2z"/>
					<path class="st1" d="M121.4,8.7c0,0.7,0.6,1.2,1.2,1.2s1.2-0.6,1.2-1.2c0-0.7-0.6-1.3-1.2-1.3S121.4,8,121.4,8.7z"/>
					<path class="st1" d="M121.4,21.2c0,0.7,0.6,1.2,1.2,1.2s1.2-0.6,1.2-1.2s-0.6-1.2-1.2-1.2S121.4,20.5,121.4,21.2z"/>
					<path class="st1" d="M121.4,33.7c0,0.7,0.6,1.2,1.2,1.2s1.2-0.6,1.2-1.2c0-0.7-0.6-1.2-1.2-1.2S121.4,33,121.4,33.7z"/>
					<path class="st1" d="M121.4,46.2c0,0.7,0.6,1.2,1.2,1.2s1.2-0.6,1.2-1.2s-0.6-1.2-1.2-1.2S121.4,45.5,121.4,46.2z"/>
					<path class="st1" d="M121.4,58.7c0,0.7,0.6,1.2,1.2,1.2s1.2-0.6,1.2-1.2s-0.6-1.2-1.2-1.2S121.4,58,121.4,58.7z"/>
					<path class="st1" d="M121.4,71.2c0,0.7,0.5,1.3,1.2,1.3c0.7,0,1.3-0.5,1.3-1.2c0-0.7-0.5-1.3-1.2-1.3c0,0,0,0-0.1,0
						C121.9,70,121.4,70.5,121.4,71.2z"/>
					<path class="st1" d="M121.4,83.7c0,0.7,0.5,1.3,1.2,1.3c0.7,0,1.3-0.5,1.3-1.2s-0.5-1.3-1.2-1.3c0,0,0,0,0,0
						C121.9,82.4,121.4,83,121.4,83.7z"/>
					<path class="st1" d="M121.4,96.2c0,0.7,0.5,1.3,1.2,1.3c0.7,0,1.3-0.5,1.3-1.2s-0.5-1.3-1.2-1.3c0,0,0,0,0,0
						C121.9,95,121.4,95.5,121.4,96.2z"/>
					<path class="st1" d="M108.9,8.7c0,0.7,0.6,1.2,1.2,1.2s1.2-0.6,1.2-1.2c0-0.7-0.6-1.3-1.2-1.3S108.9,8,108.9,8.7z"/>
					<path class="st1" d="M108.9,21.2c0,0.7,0.6,1.2,1.2,1.2s1.2-0.6,1.2-1.2s-0.6-1.2-1.2-1.2S108.9,20.5,108.9,21.2z"/>
					<path class="st1" d="M108.9,33.7c0,0.7,0.6,1.2,1.2,1.2s1.2-0.6,1.2-1.2c0-0.7-0.6-1.2-1.2-1.2S108.9,33,108.9,33.7z"/>
					<path class="st1" d="M108.9,46.2c0,0.7,0.6,1.2,1.2,1.2s1.2-0.6,1.2-1.2s-0.6-1.2-1.2-1.2S108.9,45.5,108.9,46.2z"/>
					<path class="st1" d="M108.9,58.7c0,0.7,0.6,1.2,1.2,1.2s1.2-0.6,1.2-1.2s-0.6-1.2-1.2-1.2S108.9,58,108.9,58.7z"/>
					<path class="st1" d="M108.9,71.2c-0.1,0.7,0.4,1.3,1.1,1.4c0.7,0.1,1.3-0.4,1.4-1.1c0-0.1,0-0.1,0-0.2
						c-0.1-0.7-0.7-1.2-1.4-1.1C109.4,70.1,108.9,70.6,108.9,71.2z"/>
					<path class="st1" d="M108.9,83.7c0,0.7,0.5,1.3,1.2,1.3c0.7,0,1.3-0.5,1.3-1.2s-0.5-1.3-1.2-1.3c0,0,0,0,0,0
						C109.4,82.4,108.9,83,108.9,83.7z"/>
					<path class="st1" d="M108.9,96.2c0,0.7,0.5,1.3,1.2,1.3c0.7,0,1.3-0.5,1.3-1.2s-0.5-1.3-1.2-1.3c0,0,0,0,0,0
						C109.4,95,108.9,95.5,108.9,96.2z"/>
					<path class="st1" d="M96.4,8.7c0,0.7,0.6,1.2,1.2,1.2s1.2-0.6,1.2-1.2c0-0.7-0.6-1.3-1.2-1.3C96.9,7.4,96.4,8,96.4,8.7
						C96.4,8.7,96.4,8.7,96.4,8.7z"/>
					<path class="st1" d="M96.4,21.2c0,0.7,0.6,1.2,1.2,1.2s1.2-0.6,1.2-1.2s-0.6-1.2-1.2-1.2C96.9,19.9,96.4,20.5,96.4,21.2
						C96.4,21.2,96.4,21.2,96.4,21.2z"/>
					<path class="st1" d="M96.4,33.7c0,0.7,0.6,1.2,1.2,1.2s1.2-0.6,1.2-1.2c0-0.7-0.6-1.2-1.2-1.2C96.9,32.4,96.4,33,96.4,33.7
						C96.4,33.7,96.4,33.7,96.4,33.7z"/>
					<path class="st1" d="M96.4,46.2c0,0.7,0.6,1.2,1.2,1.2s1.2-0.6,1.2-1.2s-0.6-1.2-1.2-1.2C96.9,44.9,96.4,45.5,96.4,46.2
						C96.4,46.2,96.4,46.2,96.4,46.2z"/>
					<path class="st1" d="M96.4,58.7c0,0.7,0.6,1.2,1.2,1.2s1.2-0.6,1.2-1.2s-0.6-1.2-1.2-1.2C96.9,57.4,96.4,58,96.4,58.7
						C96.4,58.7,96.4,58.7,96.4,58.7z"/>
					<path class="st1" d="M96.4,71.2c0,0.7,0.5,1.3,1.2,1.3s1.3-0.5,1.3-1.2c0-0.7-0.5-1.3-1.2-1.3c0,0,0,0-0.1,0
						C96.9,70,96.4,70.5,96.4,71.2z"/>
					<path class="st1" d="M96.4,83.7c0,0.7,0.5,1.3,1.2,1.3c0.7,0,1.3-0.5,1.3-1.2s-0.5-1.3-1.2-1.3c0,0,0,0,0,0
						C96.9,82.4,96.4,83,96.4,83.7C96.4,83.7,96.4,83.7,96.4,83.7z"/>
					<path class="st1" d="M96.4,96.2c0,0.7,0.5,1.3,1.2,1.3c0.7,0,1.3-0.5,1.3-1.2c0-0.7-0.5-1.3-1.2-1.3c0,0,0,0,0,0
						C96.9,95,96.4,95.5,96.4,96.2z"/>
					<path class="st1" d="M83.9,8.7c0,0.7,0.6,1.2,1.3,1.2c0.7,0,1.2-0.6,1.2-1.3c0-0.7-0.6-1.2-1.3-1.2c0,0,0,0,0,0
						C84.4,7.4,83.9,8,83.9,8.7C83.9,8.7,83.9,8.7,83.9,8.7z"/>
					<path class="st1" d="M83.9,21.2c0,0.7,0.6,1.2,1.3,1.2c0.7,0,1.2-0.6,1.2-1.3s-0.6-1.2-1.3-1.2c0,0,0,0,0,0
						C84.4,19.9,83.9,20.5,83.9,21.2C83.9,21.2,83.9,21.2,83.9,21.2z"/>
					<path class="st1" d="M83.9,33.7c0,0.7,0.6,1.2,1.3,1.2c0.7,0,1.2-0.6,1.2-1.3c0-0.7-0.6-1.2-1.3-1.2c0,0,0,0,0,0
						C84.4,32.4,83.9,33,83.9,33.7C83.9,33.7,83.9,33.7,83.9,33.7z"/>
					<path class="st1" d="M83.9,46.2c0,0.7,0.6,1.2,1.3,1.2c0.7,0,1.2-0.6,1.2-1.3s-0.6-1.2-1.3-1.2c0,0,0,0,0,0
						C84.4,44.9,83.9,45.5,83.9,46.2C83.9,46.2,83.9,46.2,83.9,46.2z"/>
					<path class="st1" d="M83.9,58.7c0,0.7,0.6,1.2,1.3,1.2c0.7,0,1.2-0.6,1.2-1.3s-0.6-1.2-1.3-1.2c0,0,0,0,0,0
						C84.4,57.4,83.9,58,83.9,58.7C83.9,58.7,83.9,58.7,83.9,58.7z"/>
					<path class="st1" d="M83.9,71.2c0,0.7,0.5,1.3,1.2,1.3c0.7,0,1.3-0.5,1.3-1.2S85.9,70,85.2,70c0,0,0,0-0.1,0
						C84.4,70,83.9,70.5,83.9,71.2z"/>
					<path class="st1" d="M83.9,83.7c0,0.7,0.5,1.3,1.2,1.3c0.7,0,1.3-0.5,1.3-1.2c0-0.7-0.5-1.3-1.2-1.3c0,0,0,0,0,0
						C84.4,82.5,83.9,83,83.9,83.7z"/>
					<path class="st1" d="M83.9,96.2c0.1,0.7,0.7,1.2,1.4,1.1c0.6-0.1,1.1-0.5,1.1-1.1c0.1-0.7-0.4-1.3-1.1-1.4
						c-0.7-0.1-1.3,0.4-1.4,1.1C83.9,96.1,83.9,96.1,83.9,96.2z"/>
				</g>
			</g>
		</g>
	</g>
</g>
<g>
	<defs>
		<circle id="SVGID_3_" cx="131.9" cy="100.1" r="96.1"/>
	</defs>
	<clipPath id="SVGID_4_">
		<use xlink:href="#SVGID_3_"  style="overflow:visible;"/>
	</clipPath>
	<g style="clip-path:url(#SVGID_4_);">
		
			<image style="overflow:visible;" width="1280" height="853" xlink:href="octubre/carpeta sin tiÌtulo/acerca de/foto de perfil-min.JPG"  transform="matrix(0.222 0 0 0.222 -10.1542 5.4623)">
		</image>
	</g>
</g>
</svg>
