<?xml version="1.0" encoding="utf-8"?>
<!-- Generator: Adobe Illustrator 22.0.0, SVG Export Plug-In . SVG Version: 6.00 Build 0)  -->
<svg version="1.1" id="Layer_1" xmlns="http://www.w3.org/2000/svg" xmlns:xlink="http://www.w3.org/1999/xlink" x="0px" y="0px"
	 viewBox="0 0 283.5 70" style="enable-background:new 0 0 283.5 70;" xml:space="preserve">
<style type="text/css">
	.st0{enable-background:new    ;}
	.st1{fill:#1D1D4C;}
	.st2{fill:none;stroke:#FF3333;stroke-miterlimit:10;}
</style>
<title>hola</title>
<g class="st0">
	<path class="st1" d="M15.3,31.8c-1.4,0-2.6-0.4-3.4-1.3c-0.8-0.9-1.2-2-1.2-3.3c0-1.3,0.4-2.5,1.1-3.3c0.8-0.9,1.9-1.3,3.5-1.3
		s2.7,0.4,3.6,1.3c0.8,0.9,1.2,2,1.2,3.5s-0.4,2.6-1.3,3.4C17.9,31.4,16.7,31.8,15.3,31.8z M14.8,39.4V34h1.4v5.3
		c0,3.6,0.7,7.8,2.2,12.6c1.4,4.8,2.2,8.2,2.2,10.2c0,3.3-1.6,5-4.7,5c-1.4,0-2.6-0.4-3.6-1.2c-1-0.8-1.5-2.1-1.5-3.8
		c0-1.8,0.7-5.1,2-10C14.1,47.2,14.8,42.9,14.8,39.4z"/>
	<path class="st1" d="M28.4,9.1h19.3v1.2h-3.6v19.2h12.3V10.3h-3.7V9.1h19.4v1.2h-3.7v41h3.7v1.2H52.9v-1.2h3.7V31.1H44.2v20.2h3.6
		v1.2H28.4v-1.2h3.7v-41h-3.7V9.1z"/>
	<path class="st1" d="M96.7,53.1c-6.9,0-12.1-1.9-15.5-5.6c-3.4-3.7-5.1-9.2-5.1-16.2c0-7.1,1.8-12.7,5.5-16.7
		c3.7-4.1,8.8-6.1,15.5-6.1c6.7,0,11.7,1.9,15.2,5.8c3.4,3.9,5.1,9.4,5.1,16.5c0,7.1-1.7,12.6-5.2,16.6
		C108.8,51.2,103.6,53.1,96.7,53.1z M104.6,33.4v-4.6c0-7.6-0.4-12.3-1.1-14.3c-0.8-2.3-2-3.7-3.5-4.2c-0.9-0.3-1.9-0.5-3.2-0.5
		s-2.3,0.2-3.2,0.5c-0.9,0.3-1.6,0.9-2.2,1.7c-0.6,0.8-1,1.7-1.4,2.6c-0.4,0.9-0.6,2.2-0.8,3.8c-0.2,2.4-0.4,5.9-0.4,10.6v4.5
		c0,5,0.2,8.6,0.6,10.8c0.4,2.1,0.9,3.6,1.5,4.6c1.3,2,3.3,3,6,3c3.3,0,5.4-1.4,6.4-4.1C104.1,45,104.6,40.2,104.6,33.4z"/>
	<path class="st1" d="M121.2,9.1h22.3v1.4H137v40.7h2.2c3.5,0,6.3-1.1,8.4-3.2c2.1-2.1,4.2-5.5,6.4-9.9h1.3l-1.2,14.5h-32.9v-1.4
		h3.7V10.5h-3.7V9.1z"/>
	<path class="st1" d="M183.7,51.3l-4.5-13.4h-12.3l-4.8,13.4h4.7v1.2h-9.5v-1.2h2.9L176,8.7h5.1l15.6,42.6h2.9v1.2h-20.3v-1.2H183.7
		z M173.3,20.3l-5.8,16.2h11.2L173.3,20.3z"/>
	<path class="st1" d="M209.6,53.1c-1.5,0-2.7-0.4-3.5-1.3c-0.8-0.9-1.1-2-1.1-3.3s0.4-2.5,1.2-3.3c0.8-0.9,2-1.3,3.4-1.3
		c1.4,0,2.6,0.4,3.5,1.1s1.3,1.9,1.3,3.4s-0.4,2.7-1.2,3.5C212.3,52.7,211.1,53.1,209.6,53.1z M209.1,41.5v-5.3
		c0-3.6-0.7-7.8-2-12.7c-1.3-4.9-2-8.2-2-10s0.5-3.1,1.5-3.8c1-0.8,2.2-1.2,3.6-1.2c3.1,0,4.7,1.7,4.7,5c0,1.9-0.7,5.3-2.2,10.2
		c-1.4,4.8-2.2,9-2.2,12.6v5.3H209.1z"/>
</g>
<g class="st0">
	<path class="st2" d="M11.3,28c-1.4,0-2.6-0.4-3.4-1.3c-0.8-0.9-1.2-2-1.2-3.3C6.6,22,7,20.9,7.8,20c0.8-0.9,1.9-1.3,3.5-1.3
		s2.7,0.4,3.6,1.3c0.8,0.9,1.2,2,1.2,3.5s-0.4,2.6-1.3,3.4C13.9,27.6,12.7,28,11.3,28z M10.8,35.6v-5.3h1.4v5.3
		c0,3.6,0.7,7.8,2.2,12.6c1.4,4.8,2.2,8.2,2.2,10.2c0,3.3-1.6,5-4.7,5c-1.4,0-2.6-0.4-3.6-1.2c-1-0.8-1.5-2.1-1.5-3.8
		c0-1.8,0.7-5.1,2-10C10.1,43.4,10.8,39.2,10.8,35.6z"/>
	<path class="st2" d="M24.4,5.4h19.3v1.2h-3.6v19.2h12.3V6.6h-3.7V5.4h19.4v1.2h-3.7v41h3.7v1.2H48.9v-1.2h3.7V27.4H40.2v20.2h3.6
		v1.2H24.4v-1.2h3.7v-41h-3.7V5.4z"/>
	<path class="st2" d="M92.7,49.4c-6.9,0-12.1-1.9-15.5-5.6c-3.4-3.7-5.1-9.2-5.1-16.2c0-7.1,1.8-12.7,5.5-16.7
		c3.7-4.1,8.8-6.1,15.5-6.1c6.7,0,11.7,1.9,15.2,5.8c3.4,3.9,5.1,9.4,5.1,16.5c0,7.1-1.7,12.6-5.2,16.6
		C104.8,47.4,99.6,49.4,92.7,49.4z M100.6,29.6V25c0-7.6-0.4-12.3-1.1-14.3c-0.8-2.3-2-3.7-3.5-4.2C95.1,6.2,94.1,6,92.8,6
		s-2.3,0.2-3.2,0.5c-0.9,0.3-1.6,0.9-2.2,1.7c-0.6,0.8-1,1.7-1.4,2.6c-0.4,0.9-0.6,2.2-0.8,3.8c-0.2,2.4-0.4,5.9-0.4,10.6v4.5
		c0,5,0.2,8.6,0.6,10.8c0.4,2.1,0.9,3.6,1.5,4.6c1.3,2,3.3,3,6,3c3.3,0,5.4-1.4,6.4-4.1C100.1,41.2,100.6,36.4,100.6,29.6z"/>
	<path class="st2" d="M117.2,5.4h22.3v1.4H133v40.7h2.2c3.5,0,6.3-1.1,8.4-3.2c2.1-2.1,4.2-5.5,6.4-9.9h1.3l-1.2,14.5h-32.9v-1.4
		h3.7V6.7h-3.7V5.4z"/>
	<path class="st2" d="M179.7,47.6l-4.5-13.4h-12.3l-4.8,13.4h4.7v1.2h-9.5v-1.2h2.9L172,5h5.1l15.6,42.6h2.9v1.2h-20.3v-1.2H179.7z
		 M169.3,16.6l-5.8,16.2h11.2L169.3,16.6z"/>
	<path class="st2" d="M205.6,49.4c-1.5,0-2.7-0.4-3.5-1.3c-0.8-0.9-1.1-2-1.1-3.3s0.4-2.5,1.2-3.3c0.8-0.9,2-1.3,3.4-1.3
		c1.4,0,2.6,0.4,3.5,1.1s1.3,1.9,1.3,3.4s-0.4,2.7-1.2,3.5C208.3,49,207.1,49.4,205.6,49.4z M205.1,37.7v-5.3c0-3.6-0.7-7.8-2-12.7
		c-1.3-4.9-2-8.2-2-10s0.5-3.1,1.5-3.8c1-0.8,2.2-1.2,3.6-1.2c3.1,0,4.7,1.7,4.7,5c0,1.9-0.7,5.3-2.2,10.2c-1.4,4.8-2.2,9-2.2,12.6
		v5.3H205.1z"/>
</g>
</svg>
