<svg xmlns="http://www.w3.org/2000/svg" xmlns:xlink="http://www.w3.org/1999/xlink" viewBox="0 0 206.25 199.54"><defs><style>.cls-1{fill:none;}.cls-2{isolation:isolate;}.cls-3{clip-path:url(#clip-path);}.cls-4{mix-blend-mode:screen;}.cls-5{fill:#f33;}</style><clipPath id="clip-path"><circle class="cls-1" cx="102.33" cy="100.5" r="100.5"/></clipPath></defs><title>puntos</title><g class="cls-2"><g id="Layer_1" data-name="Layer 1"><g class="cls-3"><g class="cls-4"><path class="cls-5" d="M197.72,103.43a1.25,1.25,0,1,0,1.25-1.25A1.25,1.25,0,0,0,197.72,103.43Z"/><path class="cls-5" d="M197.72,115.93a1.25,1.25,0,1,0,1.25-1.25A1.25,1.25,0,0,0,197.72,115.93Z"/><path class="cls-5" d="M197.72,128.43a1.25,1.25,0,1,0,1.25-1.25A1.25,1.25,0,0,0,197.72,128.43Z"/><path class="cls-5" d="M197.72,140.93a1.25,1.25,0,1,0,1.25-1.25A1.25,1.25,0,0,0,197.72,140.93Z"/><path class="cls-5" d="M197.72,153.43a1.25,1.25,0,1,0,1.25-1.25A1.25,1.25,0,0,0,197.72,153.43Z"/><path class="cls-5" d="M197.72,165.93a1.25,1.25,0,1,0,1.25-1.25A1.25,1.25,0,0,0,197.72,165.93Z"/><path class="cls-5" d="M197.72,178.43a1.25,1.25,0,1,0,1.25-1.24A1.25,1.25,0,0,0,197.72,178.43Z"/><path class="cls-5" d="M197.72,190.93a1.25,1.25,0,1,0,1.25-1.24A1.24,1.24,0,0,0,197.72,190.93Z"/><path class="cls-5" d="M185.22,103.43a1.25,1.25,0,1,0,1.25-1.25A1.25,1.25,0,0,0,185.22,103.43Z"/><path class="cls-5" d="M185.22,115.93a1.25,1.25,0,1,0,1.25-1.25A1.25,1.25,0,0,0,185.22,115.93Z"/><path class="cls-5" d="M185.22,128.43a1.25,1.25,0,1,0,1.25-1.25A1.25,1.25,0,0,0,185.22,128.43Z"/><path class="cls-5" d="M185.22,140.93a1.25,1.25,0,1,0,1.25-1.25A1.25,1.25,0,0,0,185.22,140.93Z"/><path class="cls-5" d="M185.22,153.43a1.25,1.25,0,1,0,1.25-1.25A1.25,1.25,0,0,0,185.22,153.43Z"/><path class="cls-5" d="M185.22,165.93a1.25,1.25,0,1,0,1.25-1.25A1.25,1.25,0,0,0,185.22,165.93Z"/><path class="cls-5" d="M185.22,178.43a1.25,1.25,0,1,0,1.25-1.24A1.25,1.25,0,0,0,185.22,178.43Z"/><path class="cls-5" d="M185.22,190.93a1.25,1.25,0,1,0,1.25-1.24A1.24,1.24,0,0,0,185.22,190.93Z"/><path class="cls-5" d="M172.72,103.43a1.25,1.25,0,1,0,1.25-1.25A1.25,1.25,0,0,0,172.72,103.43Z"/><path class="cls-5" d="M172.72,115.93a1.25,1.25,0,1,0,1.25-1.25A1.25,1.25,0,0,0,172.72,115.93Z"/><path class="cls-5" d="M172.72,128.43a1.25,1.25,0,1,0,1.25-1.25A1.25,1.25,0,0,0,172.72,128.43Z"/><path class="cls-5" d="M172.72,140.93a1.25,1.25,0,1,0,1.25-1.25A1.25,1.25,0,0,0,172.72,140.93Z"/><path class="cls-5" d="M172.72,153.43a1.25,1.25,0,1,0,1.25-1.25A1.25,1.25,0,0,0,172.72,153.43Z"/><path class="cls-5" d="M172.72,165.93a1.25,1.25,0,1,0,1.25-1.25A1.25,1.25,0,0,0,172.72,165.93Z"/><path class="cls-5" d="M172.72,178.43a1.25,1.25,0,1,0,1.25-1.24A1.25,1.25,0,0,0,172.72,178.43Z"/><path class="cls-5" d="M172.72,190.93a1.25,1.25,0,1,0,1.25-1.24A1.24,1.24,0,0,0,172.72,190.93Z"/><path class="cls-5" d="M160.22,103.43a1.25,1.25,0,1,0,1.25-1.25A1.25,1.25,0,0,0,160.22,103.43Z"/><path class="cls-5" d="M160.22,115.93a1.25,1.25,0,1,0,1.25-1.25A1.25,1.25,0,0,0,160.22,115.93Z"/><path class="cls-5" d="M160.22,128.43a1.25,1.25,0,1,0,1.25-1.25A1.25,1.25,0,0,0,160.22,128.43Z"/><path class="cls-5" d="M160.22,140.93a1.25,1.25,0,1,0,1.25-1.25A1.25,1.25,0,0,0,160.22,140.93Z"/><path class="cls-5" d="M160.22,153.43a1.25,1.25,0,1,0,1.25-1.25A1.25,1.25,0,0,0,160.22,153.43Z"/><path class="cls-5" d="M160.22,165.93a1.25,1.25,0,1,0,1.25-1.25A1.25,1.25,0,0,0,160.22,165.93Z"/><path class="cls-5" d="M160.22,178.43a1.25,1.25,0,1,0,1.25-1.24A1.25,1.25,0,0,0,160.22,178.43Z"/><path class="cls-5" d="M160.22,190.93a1.25,1.25,0,1,0,1.25-1.24A1.24,1.24,0,0,0,160.22,190.93Z"/><path class="cls-5" d="M147.72,103.43a1.25,1.25,0,1,0,1.25-1.25A1.25,1.25,0,0,0,147.72,103.43Z"/><path class="cls-5" d="M147.72,115.93a1.25,1.25,0,1,0,1.25-1.25A1.25,1.25,0,0,0,147.72,115.93Z"/><path class="cls-5" d="M147.72,128.43a1.25,1.25,0,1,0,1.25-1.25A1.25,1.25,0,0,0,147.72,128.43Z"/><path class="cls-5" d="M147.72,140.93a1.25,1.25,0,1,0,1.25-1.25A1.25,1.25,0,0,0,147.72,140.93Z"/><path class="cls-5" d="M147.72,153.43a1.25,1.25,0,1,0,1.25-1.25A1.25,1.25,0,0,0,147.72,153.43Z"/><path class="cls-5" d="M147.72,165.93a1.25,1.25,0,1,0,1.25-1.25A1.25,1.25,0,0,0,147.72,165.93Z"/><path class="cls-5" d="M147.72,178.43a1.25,1.25,0,1,0,1.25-1.24A1.25,1.25,0,0,0,147.72,178.43Z"/><path class="cls-5" d="M147.72,190.93a1.25,1.25,0,1,0,1.25-1.24A1.24,1.24,0,0,0,147.72,190.93Z"/><path class="cls-5" d="M135.22,103.43a1.25,1.25,0,1,0,1.25-1.25A1.25,1.25,0,0,0,135.22,103.43Z"/><path class="cls-5" d="M135.22,115.93a1.25,1.25,0,1,0,1.25-1.25A1.25,1.25,0,0,0,135.22,115.93Z"/><path class="cls-5" d="M135.22,128.43a1.25,1.25,0,1,0,1.25-1.25A1.25,1.25,0,0,0,135.22,128.43Z"/><path class="cls-5" d="M135.22,140.93a1.25,1.25,0,1,0,1.25-1.25A1.25,1.25,0,0,0,135.22,140.93Z"/><path class="cls-5" d="M135.22,153.43a1.25,1.25,0,1,0,1.25-1.25A1.25,1.25,0,0,0,135.22,153.43Z"/><path class="cls-5" d="M135.22,165.93a1.25,1.25,0,1,0,1.25-1.25A1.25,1.25,0,0,0,135.22,165.93Z"/><path class="cls-5" d="M135.22,178.43a1.25,1.25,0,1,0,1.25-1.24A1.25,1.25,0,0,0,135.22,178.43Z"/><path class="cls-5" d="M135.22,190.93a1.25,1.25,0,1,0,1.25-1.24A1.24,1.24,0,0,0,135.22,190.93Z"/><path class="cls-5" d="M122.72,103.43a1.25,1.25,0,1,0,1.25-1.25A1.25,1.25,0,0,0,122.72,103.43Z"/><path class="cls-5" d="M122.72,115.93a1.25,1.25,0,1,0,1.25-1.25A1.25,1.25,0,0,0,122.72,115.93Z"/><path class="cls-5" d="M122.72,128.43a1.25,1.25,0,1,0,1.25-1.25A1.25,1.25,0,0,0,122.72,128.43Z"/><path class="cls-5" d="M122.72,140.93a1.25,1.25,0,1,0,1.25-1.25A1.25,1.25,0,0,0,122.72,140.93Z"/><path class="cls-5" d="M122.72,153.43a1.25,1.25,0,1,0,1.25-1.25A1.25,1.25,0,0,0,122.72,153.43Z"/><path class="cls-5" d="M122.72,165.93a1.25,1.25,0,1,0,1.25-1.25A1.25,1.25,0,0,0,122.72,165.93Z"/><path class="cls-5" d="M122.72,178.43a1.25,1.25,0,1,0,1.25-1.24A1.25,1.25,0,0,0,122.72,178.43Z"/><path class="cls-5" d="M122.72,190.93a1.25,1.25,0,1,0,1.25-1.24A1.24,1.24,0,0,0,122.72,190.93Z"/><path class="cls-5" d="M110.22,103.43a1.25,1.25,0,1,0,1.24-1.25A1.24,1.24,0,0,0,110.22,103.43Z"/><path class="cls-5" d="M110.22,115.93a1.25,1.25,0,1,0,1.24-1.25A1.24,1.24,0,0,0,110.22,115.93Z"/><path class="cls-5" d="M110.22,128.43a1.25,1.25,0,1,0,1.24-1.25A1.24,1.24,0,0,0,110.22,128.43Z"/><path class="cls-5" d="M110.22,140.93a1.25,1.25,0,1,0,1.24-1.25A1.24,1.24,0,0,0,110.22,140.93Z"/><path class="cls-5" d="M110.22,153.43a1.25,1.25,0,1,0,1.24-1.25A1.24,1.24,0,0,0,110.22,153.43Z"/><path class="cls-5" d="M110.22,165.93a1.25,1.25,0,1,0,1.24-1.25A1.24,1.24,0,0,0,110.22,165.93Z"/><path class="cls-5" d="M110.22,178.43a1.25,1.25,0,1,0,1.24-1.24A1.24,1.24,0,0,0,110.22,178.43Z"/><path class="cls-5" d="M110.22,190.93a1.25,1.25,0,1,0,1.24-1.24A1.24,1.24,0,0,0,110.22,190.93Z"/><path class="cls-5" d="M97.72,103.43A1.25,1.25,0,1,0,99,102.18,1.24,1.24,0,0,0,97.72,103.43Z"/><path class="cls-5" d="M97.72,115.93A1.25,1.25,0,1,0,99,114.68,1.24,1.24,0,0,0,97.72,115.93Z"/><path class="cls-5" d="M97.72,128.43A1.25,1.25,0,1,0,99,127.18,1.24,1.24,0,0,0,97.72,128.43Z"/><path class="cls-5" d="M97.72,140.93A1.25,1.25,0,1,0,99,139.68,1.24,1.24,0,0,0,97.72,140.93Z"/><path class="cls-5" d="M97.72,153.43A1.25,1.25,0,1,0,99,152.18,1.24,1.24,0,0,0,97.72,153.43Z"/><path class="cls-5" d="M97.72,165.93A1.25,1.25,0,1,0,99,164.68,1.24,1.24,0,0,0,97.72,165.93Z"/><path class="cls-5" d="M97.72,178.43A1.25,1.25,0,1,0,99,177.19,1.24,1.24,0,0,0,97.72,178.43Z"/><path class="cls-5" d="M97.72,190.93a1.25,1.25,0,1,0,2.49,0,1.25,1.25,0,0,0-2.49,0Z"/><path class="cls-5" d="M85.21,103.43a1.25,1.25,0,1,0,1.25-1.25A1.25,1.25,0,0,0,85.21,103.43Z"/><path class="cls-5" d="M85.21,115.93a1.25,1.25,0,1,0,1.25-1.25A1.25,1.25,0,0,0,85.21,115.93Z"/><path class="cls-5" d="M85.21,128.43a1.25,1.25,0,1,0,1.25-1.25A1.25,1.25,0,0,0,85.21,128.43Z"/><path class="cls-5" d="M85.21,140.93a1.25,1.25,0,1,0,1.25-1.25A1.25,1.25,0,0,0,85.21,140.93Z"/><path class="cls-5" d="M85.21,153.43a1.25,1.25,0,1,0,1.25-1.25A1.25,1.25,0,0,0,85.21,153.43Z"/><path class="cls-5" d="M85.21,165.93a1.25,1.25,0,1,0,1.25-1.25A1.25,1.25,0,0,0,85.21,165.93Z"/><path class="cls-5" d="M85.21,178.43a1.25,1.25,0,1,0,1.25-1.24A1.25,1.25,0,0,0,85.21,178.43Z"/><path class="cls-5" d="M85.21,190.93a1.25,1.25,0,1,0,1.25-1.24A1.24,1.24,0,0,0,85.21,190.93Z"/><path class="cls-5" d="M72.71,103.43A1.25,1.25,0,1,0,74,102.18,1.25,1.25,0,0,0,72.71,103.43Z"/><path class="cls-5" d="M72.71,115.93A1.25,1.25,0,1,0,74,114.68,1.25,1.25,0,0,0,72.71,115.93Z"/><path class="cls-5" d="M72.71,128.43A1.25,1.25,0,1,0,74,127.18,1.25,1.25,0,0,0,72.71,128.43Z"/><path class="cls-5" d="M72.71,140.93A1.25,1.25,0,1,0,74,139.68,1.25,1.25,0,0,0,72.71,140.93Z"/><path class="cls-5" d="M72.71,153.43A1.25,1.25,0,1,0,74,152.18,1.25,1.25,0,0,0,72.71,153.43Z"/><path class="cls-5" d="M72.71,165.93A1.25,1.25,0,1,0,74,164.68,1.25,1.25,0,0,0,72.71,165.93Z"/><path class="cls-5" d="M72.71,178.43A1.25,1.25,0,1,0,74,177.19,1.25,1.25,0,0,0,72.71,178.43Z"/><path class="cls-5" d="M72.71,190.93A1.25,1.25,0,1,0,74,189.69,1.24,1.24,0,0,0,72.71,190.93Z"/><path class="cls-5" d="M60.21,103.43a1.25,1.25,0,1,0,1.25-1.25A1.25,1.25,0,0,0,60.21,103.43Z"/><path class="cls-5" d="M60.21,115.93a1.25,1.25,0,1,0,1.25-1.25A1.25,1.25,0,0,0,60.21,115.93Z"/><path class="cls-5" d="M60.21,128.43a1.25,1.25,0,1,0,1.25-1.25A1.25,1.25,0,0,0,60.21,128.43Z"/><path class="cls-5" d="M60.21,140.93a1.25,1.25,0,1,0,1.25-1.25A1.25,1.25,0,0,0,60.21,140.93Z"/><path class="cls-5" d="M60.21,153.43a1.25,1.25,0,1,0,1.25-1.25A1.25,1.25,0,0,0,60.21,153.43Z"/><path class="cls-5" d="M60.21,165.93a1.25,1.25,0,1,0,1.25-1.25A1.25,1.25,0,0,0,60.21,165.93Z"/><path class="cls-5" d="M60.21,178.43a1.25,1.25,0,1,0,1.25-1.24A1.25,1.25,0,0,0,60.21,178.43Z"/><path class="cls-5" d="M60.21,190.93a1.25,1.25,0,1,0,1.25-1.24A1.24,1.24,0,0,0,60.21,190.93Z"/><path class="cls-5" d="M47.71,103.43A1.25,1.25,0,1,0,49,102.18,1.25,1.25,0,0,0,47.71,103.43Z"/><path class="cls-5" d="M47.71,115.93A1.25,1.25,0,1,0,49,114.68,1.25,1.25,0,0,0,47.71,115.93Z"/><path class="cls-5" d="M47.71,128.43A1.25,1.25,0,1,0,49,127.18,1.25,1.25,0,0,0,47.71,128.43Z"/><path class="cls-5" d="M47.71,140.93A1.25,1.25,0,1,0,49,139.68,1.25,1.25,0,0,0,47.71,140.93Z"/><path class="cls-5" d="M47.71,153.43A1.25,1.25,0,1,0,49,152.18,1.25,1.25,0,0,0,47.71,153.43Z"/><path class="cls-5" d="M47.71,165.93A1.25,1.25,0,1,0,49,164.68,1.25,1.25,0,0,0,47.71,165.93Z"/><path class="cls-5" d="M47.71,178.43A1.25,1.25,0,1,0,49,177.19,1.25,1.25,0,0,0,47.71,178.43Z"/><path class="cls-5" d="M47.71,190.93A1.25,1.25,0,1,0,49,189.69,1.24,1.24,0,0,0,47.71,190.93Z"/><path class="cls-5" d="M35.21,103.43a1.25,1.25,0,1,0,1.25-1.25A1.25,1.25,0,0,0,35.21,103.43Z"/><path class="cls-5" d="M35.21,115.93a1.25,1.25,0,1,0,1.25-1.25A1.25,1.25,0,0,0,35.21,115.93Z"/><path class="cls-5" d="M35.21,128.43a1.25,1.25,0,1,0,1.25-1.25A1.25,1.25,0,0,0,35.21,128.43Z"/><path class="cls-5" d="M35.21,140.93a1.25,1.25,0,1,0,1.25-1.25A1.25,1.25,0,0,0,35.21,140.93Z"/><path class="cls-5" d="M35.21,153.43a1.25,1.25,0,1,0,1.25-1.25A1.25,1.25,0,0,0,35.21,153.43Z"/><path class="cls-5" d="M35.21,165.93a1.25,1.25,0,1,0,1.25-1.25A1.25,1.25,0,0,0,35.21,165.93Z"/><path class="cls-5" d="M35.21,178.43a1.25,1.25,0,1,0,1.25-1.24A1.25,1.25,0,0,0,35.21,178.43Z"/><path class="cls-5" d="M35.21,190.93a1.25,1.25,0,1,0,1.25-1.24A1.24,1.24,0,0,0,35.21,190.93Z"/><path class="cls-5" d="M22.71,103.43A1.25,1.25,0,1,0,24,102.18,1.25,1.25,0,0,0,22.71,103.43Z"/><path class="cls-5" d="M22.71,115.93A1.25,1.25,0,1,0,24,114.68,1.25,1.25,0,0,0,22.71,115.93Z"/><path class="cls-5" d="M22.71,128.43A1.25,1.25,0,1,0,24,127.18,1.25,1.25,0,0,0,22.71,128.43Z"/><path class="cls-5" d="M22.71,140.93A1.25,1.25,0,1,0,24,139.68,1.25,1.25,0,0,0,22.71,140.93Z"/><path class="cls-5" d="M22.71,153.43A1.25,1.25,0,1,0,24,152.18,1.25,1.25,0,0,0,22.71,153.43Z"/><path class="cls-5" d="M22.71,165.93A1.25,1.25,0,1,0,24,164.68,1.25,1.25,0,0,0,22.71,165.93Z"/><path class="cls-5" d="M22.71,178.43A1.25,1.25,0,1,0,24,177.19,1.25,1.25,0,0,0,22.71,178.43Z"/><path class="cls-5" d="M22.71,190.93A1.25,1.25,0,1,0,24,189.69,1.24,1.24,0,0,0,22.71,190.93Z"/><path class="cls-5" d="M10.21,103.43a1.25,1.25,0,1,0,1.25-1.25A1.25,1.25,0,0,0,10.21,103.43Z"/><path class="cls-5" d="M10.21,115.93a1.25,1.25,0,1,0,1.25-1.25A1.25,1.25,0,0,0,10.21,115.93Z"/><path class="cls-5" d="M10.21,128.43a1.25,1.25,0,1,0,1.25-1.25A1.25,1.25,0,0,0,10.21,128.43Z"/><path class="cls-5" d="M10.21,140.93a1.25,1.25,0,1,0,1.25-1.25A1.25,1.25,0,0,0,10.21,140.93Z"/><path class="cls-5" d="M10.21,153.43a1.25,1.25,0,1,0,1.25-1.25A1.25,1.25,0,0,0,10.21,153.43Z"/><path class="cls-5" d="M10.21,165.93a1.25,1.25,0,1,0,1.25-1.25A1.25,1.25,0,0,0,10.21,165.93Z"/><path class="cls-5" d="M10.21,178.43a1.25,1.25,0,1,0,1.25-1.24A1.25,1.25,0,0,0,10.21,178.43Z"/><path class="cls-5" d="M10.21,190.93a1.25,1.25,0,1,0,1.25-1.24A1.24,1.24,0,0,0,10.21,190.93Z"/><path class="cls-5" d="M-2.29,103.43A1.25,1.25,0,0,0-1,104.68,1.24,1.24,0,0,0,.2,103.43,1.24,1.24,0,0,0-1,102.18,1.25,1.25,0,0,0-2.29,103.43Z"/><path class="cls-5" d="M-2.29,115.93A1.25,1.25,0,0,0-1,117.18,1.24,1.24,0,0,0,.2,115.93,1.24,1.24,0,0,0-1,114.68,1.25,1.25,0,0,0-2.29,115.93Z"/><path class="cls-5" d="M-2.29,128.43A1.25,1.25,0,0,0-1,129.68,1.24,1.24,0,0,0,.2,128.43,1.24,1.24,0,0,0-1,127.18,1.25,1.25,0,0,0-2.29,128.43Z"/><path class="cls-5" d="M-2.29,140.93A1.25,1.25,0,0,0-1,142.18,1.24,1.24,0,0,0,.2,140.93,1.24,1.24,0,0,0-1,139.68,1.25,1.25,0,0,0-2.29,140.93Z"/><path class="cls-5" d="M-2.29,153.43A1.25,1.25,0,0,0-1,154.68,1.24,1.24,0,0,0,.2,153.43,1.24,1.24,0,0,0-1,152.18,1.25,1.25,0,0,0-2.29,153.43Z"/><path class="cls-5" d="M-2.29,165.93A1.25,1.25,0,0,0-1,167.18,1.24,1.24,0,0,0,.2,165.93,1.24,1.24,0,0,0-1,164.68,1.25,1.25,0,0,0-2.29,165.93Z"/><path class="cls-5" d="M-2.29,178.43A1.25,1.25,0,0,0-1,179.68,1.24,1.24,0,0,0,.2,178.43,1.24,1.24,0,0,0-1,177.19,1.25,1.25,0,0,0-2.29,178.43Z"/><path class="cls-5" d="M-2.29,190.93A1.24,1.24,0,0,0-1,192.18,1.24,1.24,0,0,0,.2,190.93,1.24,1.24,0,0,0-1,189.69,1.25,1.25,0,0,0-2.29,190.93Z"/></g><g class="cls-4"><path class="cls-5" d="M196.37,4.69a1.25,1.25,0,1,0,1.25-1.25A1.25,1.25,0,0,0,196.37,4.69Z"/><path class="cls-5" d="M196.37,17.19a1.25,1.25,0,1,0,1.25-1.25A1.25,1.25,0,0,0,196.37,17.19Z"/><path class="cls-5" d="M196.37,29.69a1.25,1.25,0,1,0,1.25-1.25A1.25,1.25,0,0,0,196.37,29.69Z"/><path class="cls-5" d="M196.37,42.19a1.25,1.25,0,1,0,1.25-1.25A1.25,1.25,0,0,0,196.37,42.19Z"/><path class="cls-5" d="M196.37,54.69a1.25,1.25,0,1,0,1.25-1.25A1.25,1.25,0,0,0,196.37,54.69Z"/><path class="cls-5" d="M196.37,67.19A1.25,1.25,0,1,0,197.62,66,1.25,1.25,0,0,0,196.37,67.19Z"/><path class="cls-5" d="M196.37,79.69a1.25,1.25,0,1,0,1.25-1.24A1.25,1.25,0,0,0,196.37,79.69Z"/><path class="cls-5" d="M196.37,92.2A1.25,1.25,0,1,0,197.62,91,1.24,1.24,0,0,0,196.37,92.2Z"/><path class="cls-5" d="M183.87,4.69a1.25,1.25,0,1,0,1.25-1.25A1.25,1.25,0,0,0,183.87,4.69Z"/><path class="cls-5" d="M183.87,17.19a1.25,1.25,0,1,0,1.25-1.25A1.25,1.25,0,0,0,183.87,17.19Z"/><path class="cls-5" d="M183.87,29.69a1.25,1.25,0,1,0,1.25-1.25A1.25,1.25,0,0,0,183.87,29.69Z"/><path class="cls-5" d="M183.87,42.19a1.25,1.25,0,1,0,1.25-1.25A1.25,1.25,0,0,0,183.87,42.19Z"/><path class="cls-5" d="M183.87,54.69a1.25,1.25,0,1,0,1.25-1.25A1.25,1.25,0,0,0,183.87,54.69Z"/><path class="cls-5" d="M183.87,67.19A1.25,1.25,0,1,0,185.12,66,1.25,1.25,0,0,0,183.87,67.19Z"/><path class="cls-5" d="M183.87,79.69a1.25,1.25,0,1,0,1.25-1.24A1.25,1.25,0,0,0,183.87,79.69Z"/><path class="cls-5" d="M183.87,92.2A1.25,1.25,0,1,0,185.12,91,1.24,1.24,0,0,0,183.87,92.2Z"/><path class="cls-5" d="M171.37,4.69a1.25,1.25,0,1,0,1.25-1.25A1.25,1.25,0,0,0,171.37,4.69Z"/><path class="cls-5" d="M171.37,17.19a1.25,1.25,0,1,0,1.25-1.25A1.25,1.25,0,0,0,171.37,17.19Z"/><path class="cls-5" d="M171.37,29.69a1.25,1.25,0,1,0,1.25-1.25A1.25,1.25,0,0,0,171.37,29.69Z"/><path class="cls-5" d="M171.37,42.19a1.25,1.25,0,1,0,1.25-1.25A1.25,1.25,0,0,0,171.37,42.19Z"/><path class="cls-5" d="M171.37,54.69a1.25,1.25,0,1,0,1.25-1.25A1.25,1.25,0,0,0,171.37,54.69Z"/><path class="cls-5" d="M171.37,67.19A1.25,1.25,0,1,0,172.62,66,1.25,1.25,0,0,0,171.37,67.19Z"/><path class="cls-5" d="M171.37,79.69a1.25,1.25,0,1,0,1.25-1.24A1.25,1.25,0,0,0,171.37,79.69Z"/><path class="cls-5" d="M171.37,92.2A1.25,1.25,0,1,0,172.62,91,1.24,1.24,0,0,0,171.37,92.2Z"/><path class="cls-5" d="M158.87,4.69a1.25,1.25,0,1,0,1.25-1.25A1.25,1.25,0,0,0,158.87,4.69Z"/><path class="cls-5" d="M158.87,17.19a1.25,1.25,0,1,0,1.25-1.25A1.25,1.25,0,0,0,158.87,17.19Z"/><path class="cls-5" d="M158.87,29.69a1.25,1.25,0,1,0,1.25-1.25A1.25,1.25,0,0,0,158.87,29.69Z"/><path class="cls-5" d="M158.87,42.19a1.25,1.25,0,1,0,1.25-1.25A1.25,1.25,0,0,0,158.87,42.19Z"/><path class="cls-5" d="M158.87,54.69a1.25,1.25,0,1,0,1.25-1.25A1.25,1.25,0,0,0,158.87,54.69Z"/><path class="cls-5" d="M158.87,67.19a1.25,1.25,0,1,0,2.49,0,1.25,1.25,0,0,0-2.49,0Z"/><path class="cls-5" d="M158.87,79.69a1.25,1.25,0,1,0,1.25-1.24A1.25,1.25,0,0,0,158.87,79.69Z"/><path class="cls-5" d="M158.87,92.2A1.25,1.25,0,1,0,160.12,91,1.24,1.24,0,0,0,158.87,92.2Z"/><path class="cls-5" d="M146.37,4.69a1.25,1.25,0,1,0,1.25-1.25A1.25,1.25,0,0,0,146.37,4.69Z"/><path class="cls-5" d="M146.37,17.19a1.25,1.25,0,1,0,1.25-1.25A1.25,1.25,0,0,0,146.37,17.19Z"/><path class="cls-5" d="M146.37,29.69a1.25,1.25,0,1,0,1.25-1.25A1.25,1.25,0,0,0,146.37,29.69Z"/><path class="cls-5" d="M146.37,42.19a1.25,1.25,0,1,0,1.25-1.25A1.25,1.25,0,0,0,146.37,42.19Z"/><path class="cls-5" d="M146.37,54.69a1.25,1.25,0,1,0,1.25-1.25A1.25,1.25,0,0,0,146.37,54.69Z"/><path class="cls-5" d="M146.37,67.19a1.25,1.25,0,1,0,2.49,0,1.25,1.25,0,0,0-2.49,0Z"/><path class="cls-5" d="M146.37,79.69a1.25,1.25,0,1,0,1.25-1.24A1.25,1.25,0,0,0,146.37,79.69Z"/><path class="cls-5" d="M146.37,92.2A1.25,1.25,0,1,0,147.62,91,1.24,1.24,0,0,0,146.37,92.2Z"/><path class="cls-5" d="M133.87,4.69a1.25,1.25,0,1,0,1.24-1.25A1.24,1.24,0,0,0,133.87,4.69Z"/><path class="cls-5" d="M133.87,17.19a1.25,1.25,0,1,0,1.24-1.25A1.24,1.24,0,0,0,133.87,17.19Z"/><path class="cls-5" d="M133.87,29.69a1.25,1.25,0,1,0,1.24-1.25A1.24,1.24,0,0,0,133.87,29.69Z"/><path class="cls-5" d="M133.87,42.19a1.25,1.25,0,1,0,1.24-1.25A1.24,1.24,0,0,0,133.87,42.19Z"/><path class="cls-5" d="M133.87,54.69a1.25,1.25,0,1,0,1.24-1.25A1.24,1.24,0,0,0,133.87,54.69Z"/><path class="cls-5" d="M133.87,67.19A1.25,1.25,0,1,0,135.11,66,1.24,1.24,0,0,0,133.87,67.19Z"/><path class="cls-5" d="M133.87,79.69a1.25,1.25,0,1,0,1.24-1.24A1.24,1.24,0,0,0,133.87,79.69Z"/><path class="cls-5" d="M133.87,92.2a1.25,1.25,0,0,0,2.49,0,1.25,1.25,0,1,0-2.49,0Z"/><path class="cls-5" d="M121.37,4.69a1.25,1.25,0,1,0,1.24-1.25A1.24,1.24,0,0,0,121.37,4.69Z"/><path class="cls-5" d="M121.37,17.19a1.25,1.25,0,1,0,1.24-1.25A1.24,1.24,0,0,0,121.37,17.19Z"/><path class="cls-5" d="M121.37,29.69a1.25,1.25,0,1,0,1.24-1.25A1.24,1.24,0,0,0,121.37,29.69Z"/><path class="cls-5" d="M121.37,42.19a1.25,1.25,0,1,0,1.24-1.25A1.24,1.24,0,0,0,121.37,42.19Z"/><path class="cls-5" d="M121.37,54.69a1.25,1.25,0,1,0,1.24-1.25A1.24,1.24,0,0,0,121.37,54.69Z"/><path class="cls-5" d="M121.37,67.19A1.25,1.25,0,1,0,122.61,66,1.24,1.24,0,0,0,121.37,67.19Z"/><path class="cls-5" d="M121.37,79.69a1.25,1.25,0,1,0,1.24-1.24A1.24,1.24,0,0,0,121.37,79.69Z"/><path class="cls-5" d="M121.37,92.2a1.25,1.25,0,0,0,2.49,0,1.25,1.25,0,1,0-2.49,0Z"/><path class="cls-5" d="M108.86,4.69a1.25,1.25,0,1,0,1.25-1.25A1.25,1.25,0,0,0,108.86,4.69Z"/><path class="cls-5" d="M108.86,17.19a1.25,1.25,0,1,0,1.25-1.25A1.25,1.25,0,0,0,108.86,17.19Z"/><path class="cls-5" d="M108.86,29.69a1.25,1.25,0,1,0,1.25-1.25A1.25,1.25,0,0,0,108.86,29.69Z"/><path class="cls-5" d="M108.86,42.19a1.25,1.25,0,1,0,1.25-1.25A1.25,1.25,0,0,0,108.86,42.19Z"/><path class="cls-5" d="M108.86,54.69a1.25,1.25,0,1,0,1.25-1.25A1.25,1.25,0,0,0,108.86,54.69Z"/><path class="cls-5" d="M108.86,67.19A1.25,1.25,0,1,0,110.11,66,1.25,1.25,0,0,0,108.86,67.19Z"/><path class="cls-5" d="M108.86,79.69a1.25,1.25,0,1,0,1.25-1.24A1.25,1.25,0,0,0,108.86,79.69Z"/><path class="cls-5" d="M108.86,92.2A1.25,1.25,0,1,0,110.11,91,1.24,1.24,0,0,0,108.86,92.2Z"/><path class="cls-5" d="M96.36,4.69a1.25,1.25,0,1,0,1.25-1.25A1.25,1.25,0,0,0,96.36,4.69Z"/><path class="cls-5" d="M96.36,17.19a1.25,1.25,0,1,0,1.25-1.25A1.25,1.25,0,0,0,96.36,17.19Z"/><path class="cls-5" d="M96.36,29.69a1.25,1.25,0,1,0,1.25-1.25A1.25,1.25,0,0,0,96.36,29.69Z"/><path class="cls-5" d="M96.36,42.19a1.25,1.25,0,1,0,1.25-1.25A1.25,1.25,0,0,0,96.36,42.19Z"/><path class="cls-5" d="M96.36,54.69a1.25,1.25,0,1,0,1.25-1.25A1.25,1.25,0,0,0,96.36,54.69Z"/><path class="cls-5" d="M96.36,67.19A1.25,1.25,0,1,0,97.61,66,1.25,1.25,0,0,0,96.36,67.19Z"/><path class="cls-5" d="M96.36,79.69a1.25,1.25,0,1,0,1.25-1.24A1.25,1.25,0,0,0,96.36,79.69Z"/><path class="cls-5" d="M96.36,92.2A1.25,1.25,0,1,0,97.61,91,1.24,1.24,0,0,0,96.36,92.2Z"/><path class="cls-5" d="M83.86,4.69a1.25,1.25,0,1,0,1.25-1.25A1.25,1.25,0,0,0,83.86,4.69Z"/><path class="cls-5" d="M83.86,17.19a1.25,1.25,0,1,0,1.25-1.25A1.25,1.25,0,0,0,83.86,17.19Z"/><path class="cls-5" d="M83.86,29.69a1.25,1.25,0,1,0,1.25-1.25A1.25,1.25,0,0,0,83.86,29.69Z"/><path class="cls-5" d="M83.86,42.19a1.25,1.25,0,1,0,1.25-1.25A1.25,1.25,0,0,0,83.86,42.19Z"/><path class="cls-5" d="M83.86,54.69a1.25,1.25,0,1,0,1.25-1.25A1.25,1.25,0,0,0,83.86,54.69Z"/><path class="cls-5" d="M83.86,67.19A1.25,1.25,0,1,0,85.11,66,1.25,1.25,0,0,0,83.86,67.19Z"/><path class="cls-5" d="M83.86,79.69a1.25,1.25,0,1,0,1.25-1.24A1.25,1.25,0,0,0,83.86,79.69Z"/><path class="cls-5" d="M83.86,92.2A1.25,1.25,0,1,0,85.11,91,1.24,1.24,0,0,0,83.86,92.2Z"/><path class="cls-5" d="M71.36,4.69a1.25,1.25,0,1,0,1.25-1.25A1.25,1.25,0,0,0,71.36,4.69Z"/><path class="cls-5" d="M71.36,17.19a1.25,1.25,0,1,0,1.25-1.25A1.25,1.25,0,0,0,71.36,17.19Z"/><path class="cls-5" d="M71.36,29.69a1.25,1.25,0,1,0,1.25-1.25A1.25,1.25,0,0,0,71.36,29.69Z"/><path class="cls-5" d="M71.36,42.19a1.25,1.25,0,1,0,1.25-1.25A1.25,1.25,0,0,0,71.36,42.19Z"/><path class="cls-5" d="M71.36,54.69a1.25,1.25,0,1,0,1.25-1.25A1.25,1.25,0,0,0,71.36,54.69Z"/><path class="cls-5" d="M71.36,67.19A1.25,1.25,0,1,0,72.61,66,1.25,1.25,0,0,0,71.36,67.19Z"/><path class="cls-5" d="M71.36,79.69a1.25,1.25,0,1,0,1.25-1.24A1.25,1.25,0,0,0,71.36,79.69Z"/><path class="cls-5" d="M71.36,92.2A1.25,1.25,0,1,0,72.61,91,1.24,1.24,0,0,0,71.36,92.2Z"/><path class="cls-5" d="M58.86,4.69a1.25,1.25,0,1,0,1.25-1.25A1.25,1.25,0,0,0,58.86,4.69Z"/><path class="cls-5" d="M58.86,17.19a1.25,1.25,0,1,0,1.25-1.25A1.25,1.25,0,0,0,58.86,17.19Z"/><path class="cls-5" d="M58.86,29.69a1.25,1.25,0,1,0,1.25-1.25A1.25,1.25,0,0,0,58.86,29.69Z"/><path class="cls-5" d="M58.86,42.19a1.25,1.25,0,1,0,1.25-1.25A1.25,1.25,0,0,0,58.86,42.19Z"/><path class="cls-5" d="M58.86,54.69a1.25,1.25,0,1,0,1.25-1.25A1.25,1.25,0,0,0,58.86,54.69Z"/><path class="cls-5" d="M58.86,67.19A1.25,1.25,0,1,0,60.11,66,1.25,1.25,0,0,0,58.86,67.19Z"/><path class="cls-5" d="M58.86,79.69a1.25,1.25,0,1,0,1.25-1.24A1.25,1.25,0,0,0,58.86,79.69Z"/><path class="cls-5" d="M58.86,92.2A1.25,1.25,0,1,0,60.11,91,1.24,1.24,0,0,0,58.86,92.2Z"/><path class="cls-5" d="M46.36,4.69a1.25,1.25,0,1,0,1.25-1.25A1.25,1.25,0,0,0,46.36,4.69Z"/><path class="cls-5" d="M46.36,17.19a1.25,1.25,0,1,0,1.25-1.25A1.25,1.25,0,0,0,46.36,17.19Z"/><path class="cls-5" d="M46.36,29.69a1.25,1.25,0,1,0,1.25-1.25A1.25,1.25,0,0,0,46.36,29.69Z"/><path class="cls-5" d="M46.36,42.19a1.25,1.25,0,1,0,1.25-1.25A1.25,1.25,0,0,0,46.36,42.19Z"/><path class="cls-5" d="M46.36,54.69a1.25,1.25,0,1,0,1.25-1.25A1.25,1.25,0,0,0,46.36,54.69Z"/><path class="cls-5" d="M46.36,67.19A1.25,1.25,0,1,0,47.61,66,1.25,1.25,0,0,0,46.36,67.19Z"/><path class="cls-5" d="M46.36,79.69a1.25,1.25,0,1,0,1.25-1.24A1.25,1.25,0,0,0,46.36,79.69Z"/><path class="cls-5" d="M46.36,92.2A1.25,1.25,0,1,0,47.61,91,1.24,1.24,0,0,0,46.36,92.2Z"/><path class="cls-5" d="M33.86,4.69a1.25,1.25,0,1,0,1.25-1.25A1.25,1.25,0,0,0,33.86,4.69Z"/><path class="cls-5" d="M33.86,17.19a1.25,1.25,0,1,0,1.25-1.25A1.25,1.25,0,0,0,33.86,17.19Z"/><path class="cls-5" d="M33.86,29.69a1.25,1.25,0,1,0,1.25-1.25A1.25,1.25,0,0,0,33.86,29.69Z"/><path class="cls-5" d="M33.86,42.19a1.25,1.25,0,1,0,1.25-1.25A1.25,1.25,0,0,0,33.86,42.19Z"/><path class="cls-5" d="M33.86,54.69a1.25,1.25,0,1,0,1.25-1.25A1.25,1.25,0,0,0,33.86,54.69Z"/><path class="cls-5" d="M33.86,67.19a1.25,1.25,0,1,0,2.49,0,1.25,1.25,0,0,0-2.49,0Z"/><path class="cls-5" d="M33.86,79.69a1.25,1.25,0,1,0,1.25-1.24A1.25,1.25,0,0,0,33.86,79.69Z"/><path class="cls-5" d="M33.86,92.2A1.25,1.25,0,1,0,35.11,91,1.24,1.24,0,0,0,33.86,92.2Z"/><path class="cls-5" d="M21.36,4.69a1.25,1.25,0,1,0,1.25-1.25A1.24,1.24,0,0,0,21.36,4.69Z"/><path class="cls-5" d="M21.36,17.19a1.25,1.25,0,1,0,1.25-1.25A1.24,1.24,0,0,0,21.36,17.19Z"/><path class="cls-5" d="M21.36,29.69a1.25,1.25,0,1,0,1.25-1.25A1.24,1.24,0,0,0,21.36,29.69Z"/><path class="cls-5" d="M21.36,42.19a1.25,1.25,0,1,0,1.25-1.25A1.24,1.24,0,0,0,21.36,42.19Z"/><path class="cls-5" d="M21.36,54.69a1.25,1.25,0,1,0,1.25-1.25A1.24,1.24,0,0,0,21.36,54.69Z"/><path class="cls-5" d="M21.36,67.19A1.25,1.25,0,1,0,22.61,66,1.24,1.24,0,0,0,21.36,67.19Z"/><path class="cls-5" d="M21.36,79.69a1.25,1.25,0,1,0,1.25-1.24A1.24,1.24,0,0,0,21.36,79.69Z"/><path class="cls-5" d="M21.36,92.2A1.25,1.25,0,1,0,22.61,91,1.24,1.24,0,0,0,21.36,92.2Z"/><path class="cls-5" d="M8.86,4.69A1.25,1.25,0,1,0,10.1,3.44,1.24,1.24,0,0,0,8.86,4.69Z"/><path class="cls-5" d="M8.86,17.19a1.25,1.25,0,1,0,1.24-1.25A1.24,1.24,0,0,0,8.86,17.19Z"/><path class="cls-5" d="M8.86,29.69a1.25,1.25,0,1,0,1.24-1.25A1.24,1.24,0,0,0,8.86,29.69Z"/><path class="cls-5" d="M8.86,42.19a1.25,1.25,0,1,0,1.24-1.25A1.24,1.24,0,0,0,8.86,42.19Z"/><path class="cls-5" d="M8.86,54.69a1.25,1.25,0,1,0,1.24-1.25A1.24,1.24,0,0,0,8.86,54.69Z"/><path class="cls-5" d="M8.86,67.19A1.25,1.25,0,1,0,10.1,66,1.24,1.24,0,0,0,8.86,67.19Z"/><path class="cls-5" d="M8.86,79.69a1.25,1.25,0,1,0,1.24-1.24A1.24,1.24,0,0,0,8.86,79.69Z"/><path class="cls-5" d="M8.86,92.2a1.25,1.25,0,0,0,2.49,0,1.25,1.25,0,1,0-2.49,0Z"/></g></g></g></g></svg>