<?xml version="1.0" encoding="utf-8"?>
<!-- Generator: Adobe Illustrator 22.0.0, SVG Export Plug-In . SVG Version: 6.00 Build 0)  -->
<svg version="1.1" id="Layer_1" xmlns="http://www.w3.org/2000/svg" xmlns:xlink="http://www.w3.org/1999/xlink" x="0px" y="0px"
	 viewBox="0 0 740.8 138.3" style="enable-background:new 0 0 740.8 138.3;" xml:space="preserve">
<style type="text/css">
	.st0{fill:#FFFFFF;}
	.st1{fill:#EB483F;}
</style>
<title>branding-titulo</title>
<g>
	<g>
		<path class="st0" d="M48.6,47.5c-9.3,0-14,9-14,26.9v7.1c0,8.5,1.2,15.2,3.7,20c2.5,4.8,6.1,7.2,10.9,7.2
			c6.6,0,12.7-6.4,18.2-19.3H69l-0.6,20.1h-1c-0.4-0.7-0.7-1.1-1-1.4c-0.3-0.3-0.7-0.4-1.3-0.4c-0.6,0-2.7,0.5-6.5,1.4
			c-3.8,0.9-7.6,1.4-11.5,1.4c-9.8,0-17.4-2.6-22.7-7.9c-5.4-5.3-8.1-13.2-8.1-23.8c0-10.6,2.8-18.8,8.4-24.5
			c5.6-5.8,13.2-8.6,22.6-8.6c3.7,0,7.2,0.5,10.8,1.4c3.5,0.9,5.6,1.4,6.2,1.4c0.6,0,1-0.1,1.3-0.4c0.3-0.3,0.6-0.7,1-1.4h1
			l0.7,19.5h-1.6c-2.7-6.1-5.5-10.7-8.3-13.9C55.5,49.1,52.2,47.5,48.6,47.5z"/>
		<path class="st0" d="M129.8,110.6c-10,0-17.5-2.7-22.5-8.1c-5-5.4-7.4-13.3-7.4-23.6c0-10.3,2.7-18.4,8-24.3
			c5.3-5.9,12.8-8.9,22.5-8.9c9.7,0,17.1,2.8,22,8.4c4.9,5.6,7.4,13.6,7.4,23.9c0,10.3-2.5,18.3-7.5,24
			C147.4,107.8,139.8,110.6,129.8,110.6z M141.3,81.9v-6.7c0-11-0.5-17.9-1.6-20.8c-1.2-3.3-2.9-5.3-5.1-6.1
			c-1.3-0.5-2.8-0.7-4.6-0.7s-3.3,0.2-4.6,0.7c-1.3,0.5-2.4,1.3-3.2,2.5c-0.8,1.2-1.5,2.5-2,3.8c-0.5,1.3-0.9,3.2-1.2,5.6
			c-0.4,3.5-0.5,8.6-0.5,15.4v6.5c0,7.3,0.3,12.5,0.9,15.6c0.6,3.1,1.3,5.3,2.1,6.6c1.9,2.9,4.7,4.4,8.6,4.4c4.7,0,7.8-2,9.2-6
			C140.6,98.7,141.3,91.8,141.3,81.9z"/>
		<path class="st0" d="M241,48.4v61.3h-12.6l-30.9-58.2V108h5v1.7h-12.3V108h5V48.4h-5v-1.7H215l23.6,45.2V48.4h-4.9v-1.7h12.3v1.7
			H241z"/>
		<path class="st0" d="M329.7,46.7l0.9,22.6h-1.7c-2.6-8-5-13.4-7-16.3c-2-2.9-5-4.4-8.8-4.4H312v59.2h7.7v1.9h-32.9v-1.9h7.6V48.6
			h-1.2c-3.8,0-6.8,1.5-8.9,4.5c-2.1,3-4.4,8.4-6.9,16.2h-1.7l0.9-22.6H329.7z"/>
		<path class="st0" d="M387.7,108l-6.6-19.4h-17.8l-6.9,19.4h6.8v1.7h-13.8V108h4.2l23-61.8h7.4l22.7,61.8h4.1v1.7h-29.4V108H387.7z
			 M372.5,63l-8.5,23.6h16.3L372.5,63z"/>
		<path class="st0" d="M467,47.5c-9.3,0-14,9-14,26.9v7.1c0,8.5,1.2,15.2,3.7,20c2.5,4.8,6.1,7.2,10.9,7.2c6.6,0,12.7-6.4,18.2-19.3
			h1.6l-0.6,20.1h-1c-0.4-0.7-0.7-1.1-1-1.4c-0.3-0.3-0.7-0.4-1.3-0.4s-2.7,0.5-6.5,1.4c-3.8,0.9-7.6,1.4-11.5,1.4
			c-9.8,0-17.4-2.6-22.7-7.9c-5.4-5.3-8.1-13.2-8.1-23.8c0-10.6,2.8-18.8,8.4-24.5c5.6-5.8,13.2-8.6,22.6-8.6
			c3.7,0,7.2,0.5,10.8,1.4c3.5,0.9,5.6,1.4,6.2,1.4c0.6,0,1-0.1,1.3-0.4c0.3-0.3,0.6-0.7,1-1.4h1l0.7,19.5h-1.6
			c-2.7-6.1-5.5-10.7-8.3-13.9C474,49.1,470.7,47.5,467,47.5z"/>
		<path class="st0" d="M572,46.7l0.9,22.6h-1.7c-2.6-8-5-13.4-7-16.3c-2-2.9-5-4.4-8.8-4.4h-1.1v59.2h7.7v1.9h-32.9v-1.9h7.7V48.6
			h-1.2c-3.8,0-6.8,1.5-8.9,4.5c-2.1,3-4.4,8.4-6.9,16.2H518l0.9-22.6H572z"/>
		<path class="st0" d="M631.4,110.6c-10,0-17.5-2.7-22.5-8.1c-5-5.4-7.4-13.3-7.4-23.6c0-10.3,2.7-18.4,8-24.3
			c5.3-5.9,12.8-8.9,22.5-8.9s17.1,2.8,22,8.4c5,5.6,7.4,13.6,7.4,23.9c0,10.3-2.5,18.3-7.5,24C648.9,107.8,641.4,110.6,631.4,110.6
			z M642.9,81.9v-6.7c0-11-0.5-17.9-1.6-20.8c-1.2-3.3-2.9-5.3-5.1-6.1c-1.3-0.5-2.8-0.7-4.6-0.7s-3.3,0.2-4.6,0.7
			c-1.3,0.5-2.4,1.3-3.2,2.5c-0.8,1.2-1.5,2.5-2,3.8c-0.5,1.3-0.9,3.2-1.2,5.6c-0.4,3.5-0.5,8.6-0.5,15.4v6.5
			c0,7.3,0.3,12.5,0.9,15.6c0.6,3.1,1.3,5.3,2.1,6.6c1.9,2.9,4.7,4.4,8.6,4.4c4.7,0,7.8-2,9.2-6C642.2,98.7,642.9,91.8,642.9,81.9z"
			/>
	</g>
	<g>
		<path class="st1" d="M167.3,35l-1.6-1.4c1.4-1.7,2.7-3.6,3.7-5.6l1.9,1C170.2,31.2,168.9,33.2,167.3,35z"/>
	</g>
	<g>
		<path class="st1" d="M158.4,35.2l-1.3-1.7c0.9-0.7,1.8-1.5,2.6-2.3c3-3,5.3-6.7,6.9-10.6l2,0.8c-1.7,4.2-4.2,8.1-7.3,11.3
			C160.3,33.6,159.4,34.4,158.4,35.2z"/>
	</g>
	<g>
		<path class="st1" d="M146.6,35.3l-0.9-2c3.6-1.5,6.8-3.7,9.6-6.5c1.9-1.9,3.5-4.1,4.9-6.4l1.9,1c-1.4,2.5-3.2,4.8-5.2,6.9
			C153.9,31.3,150.4,33.7,146.6,35.3z"/>
	</g>
	<g>
		<path class="st1" d="M129.2,35.4l-0.6-2l2.2-0.6c7.4-2.2,14.4-4.2,20.2-10.1c0.7-0.7,1.4-1.5,2-2.3l1.7,1.3
			c-0.7,0.9-1.4,1.7-2.2,2.4c-6.2,6.2-13.8,8.5-21.1,10.6L129.2,35.4z"/>
	</g>
	<g>
		<path class="st1" d="M113.9,35.3l-1-1.9c4.3-2.1,8.9-3.8,13.6-5c6.5-1.9,12.7-3.8,18.1-8.2l1.4,1.6c-5.8,4.7-12.4,6.7-18.9,8.6
			C122.6,31.6,118.2,33.2,113.9,35.3z"/>
	</g>
	<g>
		<path class="st1" d="M103.6,35.2l-1.4-1.6c6-5.4,13.1-7.5,20-9.5c3.9-1,7.8-2.4,11.5-4l0.9,1.9c-3.8,1.7-7.8,3.1-11.8,4.1
			C115.7,28.2,109.2,30.1,103.6,35.2z"/>
	</g>
	<g>
		<path class="st1" d="M95.5,35l-1.7-1.3c0.9-1.2,1.9-2.3,2.9-3.3c6.2-6.2,13.7-8.4,20.3-10.4l0.6,2.1c-6.4,1.9-13.6,4-19.4,9.8
			C97.2,32.9,96.2,33.9,95.5,35z"/>
	</g>
	<g>
		<path class="st1" d="M88.6,34.9l-1.9-1c3.1-6,8-10.8,14.1-13.8l1,1.9c-2.9,1.4-5.5,3.3-7.8,5.6C91.7,29.7,90,32.2,88.6,34.9z"/>
	</g>
	<g>
		<path class="st1" d="M82.4,34.8l-2-0.8c1.7-4.6,4.3-8.7,7.7-12.2c0.5-0.5,1.1-1,1.7-1.5l1.4,1.6c-0.5,0.5-1,0.9-1.6,1.4
			C86.4,26.6,84,30.5,82.4,34.8z"/>
	</g>
	<g>
		<path class="st1" d="M76.6,34.7l-2-0.6c1.4-4.9,3.6-9.5,6.6-13.7l1.7,1.3C80,25.6,77.9,30,76.6,34.7z"/>
	</g>
	<g>
		<path class="st1" d="M71,34.7l-2-0.6c1.2-4.7,2.9-9.2,5-13.5l1.9,1C73.7,25.7,72.2,30.1,71,34.7z"/>
	</g>
	<g>
		<path class="st1" d="M65.4,34.7l-2-0.6c0.4-1.3,0.8-2.7,1.2-4c0.9-3.2,1.9-6.3,3.1-9.4l2,0.8c-1.2,3-2.1,6.1-3,9.2
			C66.2,32,65.8,33.3,65.4,34.7z"/>
	</g>
	<g>
		<path class="st1" d="M59.6,34.7l-2-0.8c1-2.7,1.9-5.5,2.7-8.3c0.5-1.7,1-3.3,1.5-5l2,0.7c-0.5,1.6-1,3.3-1.5,4.9
			C61.5,29.1,60.6,32,59.6,34.7z"/>
	</g>
	<g>
		<path class="st1" d="M53.3,34.9l-1.9-1c1.9-4,3.4-8.2,4.5-12.5l0.2-0.7l2,0.6L58,22C56.9,26.4,55.3,30.7,53.3,34.9z"/>
	</g>
	<g>
		<path class="st1" d="M46.9,35.1l-1.7-1.2c2.7-4,4.7-8.4,6-13l2,0.6C51.9,26.4,49.7,31,46.9,35.1z"/>
	</g>
	<g>
		<path class="st1" d="M38.1,35.1l-1.5-1.5l0.6-0.6c3.4-3.5,6-7.7,7.6-12.3l2,0.8c-1.7,4.9-4.4,9.4-8,13.1L38.1,35.1z"/>
	</g>
	<g>
		<path class="st1" d="M27.7,35.3l-1.1-1.9c2.3-1.3,4.4-2.9,6.3-4.8c2.3-2.4,4.3-5.1,5.7-8.1l1.9,1c-1.6,3.2-3.6,6.1-6.1,8.7
			C32.4,32.2,30.2,33.9,27.7,35.3z"/>
	</g>
	<g>
		<path class="st1" d="M18.1,33.5l-0.8-2c4.2-1.6,8.1-4,11.3-7.1c1.2-1.2,2.3-2.5,3.3-3.9l1.8,1.2c-1.1,1.5-2.2,2.9-3.5,4.2
			C26.7,29.2,22.6,31.8,18.1,33.5z"/>
	</g>
	<g>
		<path class="st1" d="M18.2,27.2l-1-1.9c2.5-1.3,4.8-3,6.9-5l1.5,1.5C23.4,23.9,20.9,25.7,18.2,27.2z"/>
	</g>
</g>
</svg>
