<?xml version="1.0" encoding="utf-8"?>
<!-- Generator: Adobe Illustrator 22.0.0, SVG Export Plug-In . SVG Version: 6.00 Build 0)  -->
<svg version="1.1" id="Layer_1" xmlns="http://www.w3.org/2000/svg" xmlns:xlink="http://www.w3.org/1999/xlink" x="0px" y="0px"
	 viewBox="0 0 371.1 59.4" style="enable-background:new 0 0 371.1 59.4;" xml:space="preserve">
<style type="text/css">
	.st0{fill:#FFFFFF;}
</style>
<g>
	<g>
		<path class="st0" d="M42.2,32.3v3c0,0.5-0.4,0.8-0.8,0.8c-0.4,0-0.7-0.3-0.8-0.7c-0.6,0.4-1.3,0.7-2.1,0.7c-1.1,0-2-0.4-2.6-1.1
			c-0.7-0.7-1.1-1.7-1.1-2.7c0-1.1,0.4-2,1.1-2.7c0.7-0.7,1.6-1.2,2.6-1.2c0.8,0,1.5,0.3,2.1,0.7c0.1-0.4,0.4-0.7,0.8-0.7
			c0.5,0,0.8,0.4,0.8,0.8V32.3z M40.5,32.3c0-0.7-0.2-1.2-0.6-1.6c-0.4-0.4-0.9-0.6-1.4-0.6c-0.6,0-1.1,0.2-1.4,0.6
			c-0.4,0.4-0.6,0.9-0.6,1.6c0,0.6,0.2,1.2,0.6,1.6c0.4,0.4,0.9,0.6,1.4,0.6c0.5,0,1.1-0.2,1.4-0.6C40.3,33.5,40.5,32.9,40.5,32.3z"
			/>
		<path class="st0" d="M54.6,31.6v3.7c0,0.5-0.4,0.8-0.8,0.8c-0.4,0-0.8-0.4-0.8-0.8v-3.7c0-0.9-0.7-1.6-1.6-1.6
			c-0.9,0-1.6,0.7-1.6,1.6v3.7c0,0,0,0.1,0,0.2c-0.1,0.4-0.4,0.7-0.8,0.7c-0.5,0-0.8-0.4-0.8-0.8v-3.7v-2.4c0-0.5,0.4-0.8,0.8-0.8
			c0.3,0,0.6,0.2,0.8,0.5c0.5-0.3,1-0.5,1.6-0.5C53.2,28.4,54.6,29.9,54.6,31.6z"/>
		<path class="st0" d="M67.4,32.3v3c0,0.5-0.4,0.8-0.8,0.8c-0.4,0-0.7-0.3-0.8-0.7c-0.6,0.4-1.3,0.7-2.1,0.7c-1.1,0-2-0.4-2.6-1.1
			c-0.7-0.7-1.1-1.7-1.1-2.7c0-1.1,0.4-2,1.1-2.7c0.7-0.7,1.6-1.2,2.6-1.2c0.8,0,1.5,0.3,2.1,0.7c0.1-0.4,0.4-0.7,0.8-0.7
			c0.5,0,0.8,0.4,0.8,0.8V32.3z M65.7,32.3c0-0.7-0.2-1.2-0.6-1.6c-0.4-0.4-0.9-0.6-1.4-0.6c-0.6,0-1.1,0.2-1.4,0.6
			c-0.4,0.4-0.6,0.9-0.6,1.6c0,0.6,0.2,1.2,0.6,1.6c0.4,0.4,0.9,0.6,1.4,0.6c0.5,0,1.1-0.2,1.4-0.6C65.5,33.5,65.7,32.9,65.7,32.3z"
			/>
		<path class="st0" d="M73,32.3c0-2.2,1.8-3.9,3.9-3.9c0.9,0,1.8,0.3,2.5,0.9c0.4,0.3,0.4,0.8,0.2,1.1c-0.3,0.4-0.8,0.4-1.2,0.2
			c-0.4-0.3-0.9-0.5-1.5-0.5c-1.3,0-2.3,1-2.3,2.2c0,1.2,1,2.2,2.3,2.2c0.6,0,1.1-0.2,1.5-0.5c0.3-0.3,0.9-0.2,1.2,0.2
			c0.2,0.3,0.2,0.8-0.2,1.1c-0.7,0.5-1.5,0.8-2.5,0.8C74.8,36.2,73,34.4,73,32.3z"/>
		<path class="st0" d="M87.2,35.3c0,0.5-0.4,0.9-0.9,0.9c-0.4,0-0.7-0.3-0.8-0.6c0-0.1,0-0.1,0-0.2v-9.2c0-0.5,0.4-0.9,0.9-0.9
			c0.5,0,0.9,0.4,0.9,0.9v2.7c0.5-0.3,1.1-0.5,1.7-0.5c1.9,0,3.4,1.5,3.4,3.4v3.5c0,0.5-0.4,0.9-0.9,0.9c-0.5,0-0.9-0.4-0.9-0.9
			v-3.5c0-0.9-0.7-1.7-1.7-1.7c-0.9,0-1.6,0.8-1.7,1.7V35.3z"/>
		<path class="st0" d="M105.3,32.3v3c0,0.5-0.4,0.8-0.8,0.8c-0.4,0-0.7-0.3-0.8-0.7c-0.6,0.4-1.3,0.7-2.1,0.7c-1.1,0-2-0.4-2.6-1.1
			c-0.7-0.7-1.1-1.7-1.1-2.7c0-1.1,0.4-2,1.1-2.7c0.7-0.7,1.6-1.2,2.6-1.2c0.8,0,1.5,0.3,2.1,0.7c0.1-0.4,0.4-0.7,0.8-0.7
			c0.5,0,0.8,0.4,0.8,0.8V32.3z M103.7,32.3c0-0.7-0.2-1.2-0.6-1.6c-0.4-0.4-0.9-0.6-1.4-0.6c-0.6,0-1.1,0.2-1.4,0.6
			c-0.4,0.4-0.6,0.9-0.6,1.6c0,0.6,0.2,1.2,0.6,1.6c0.4,0.4,0.9,0.6,1.4,0.6c0.5,0,1.1-0.2,1.4-0.6
			C103.4,33.5,103.7,32.9,103.7,32.3z"/>
		<path class="st0" d="M110.9,32.3c0-2.2,1.8-3.9,3.9-3.9c0.9,0,1.8,0.3,2.5,0.9c0.4,0.3,0.4,0.8,0.2,1.1c-0.3,0.4-0.8,0.4-1.2,0.2
			c-0.4-0.3-0.9-0.5-1.5-0.5c-1.3,0-2.3,1-2.3,2.2c0,1.2,1,2.2,2.3,2.2c0.6,0,1.1-0.2,1.5-0.5c0.3-0.3,0.9-0.2,1.2,0.2
			c0.2,0.3,0.2,0.8-0.2,1.1c-0.7,0.5-1.5,0.8-2.5,0.8C112.7,36.2,110.9,34.4,110.9,32.3z"/>
		<path class="st0" d="M123.9,35c-0.7-0.7-1.1-1.6-1.1-2.7c0-1.1,0.4-2,1.1-2.7c0.7-0.7,1.6-1.2,2.7-1.2c1,0,2,0.5,2.6,1.2
			c0.7,0.7,1.1,1.7,1.1,2.7c0,1.1-0.4,2.1-1.1,2.7c-0.6,0.7-1.6,1.2-2.6,1.2C125.5,36.2,124.6,35.8,123.9,35z M124.6,32.3
			c0,0.7,0.2,1.2,0.6,1.6c0.4,0.4,0.9,0.6,1.5,0.6c0.5,0,1-0.2,1.4-0.6c0.4-0.4,0.6-1,0.6-1.6c0-0.6-0.2-1.2-0.6-1.6
			c-0.4-0.3-0.9-0.6-1.4-0.6c-0.6,0-1.1,0.2-1.5,0.6C124.8,31.1,124.6,31.7,124.6,32.3z"/>
		<path class="st0" d="M142.5,31.6v3.7c0,0.5-0.4,0.8-0.8,0.8c-0.4,0-0.8-0.4-0.8-0.8v-3.7c0-0.9-0.7-1.6-1.6-1.6
			c-0.9,0-1.6,0.7-1.6,1.6v3.7c0,0,0,0.1,0,0.2c-0.1,0.4-0.4,0.7-0.8,0.7c-0.5,0-0.8-0.4-0.8-0.8v-3.7v-2.4c0-0.5,0.4-0.8,0.8-0.8
			c0.3,0,0.6,0.2,0.8,0.5c0.5-0.3,1-0.5,1.6-0.5C141.1,28.4,142.5,29.9,142.5,31.6z"/>
		<path class="st0" d="M151.5,26.1v9.2c0,0.5-0.4,0.9-0.9,0.9c-0.5,0-0.9-0.4-0.9-0.9v-7.6l-0.6,0.4c-0.1,0.1-0.3,0.1-0.4,0.1
			c-0.3,0-0.6-0.2-0.7-0.4c-0.3-0.4-0.1-0.9,0.3-1.2l1.9-1.1c0,0,0,0,0.1,0c0,0,0,0,0.1,0c0,0,0.1,0,0.1,0c0,0,0,0,0.1,0
			c0,0,0.1,0,0.1,0c0,0,0,0,0,0h0c0,0,0.1,0,0.1,0c0,0,0,0,0.1,0c0,0,0.1,0,0.1,0c0,0,0,0,0.1,0c0,0,0.1,0,0.1,0c0,0,0,0,0.1,0
			c0,0,0,0,0.1,0c0,0,0,0,0.1,0.1s0,0,0,0.1c0,0,0,0,0.1,0.1l0,0c0,0,0,0,0,0c0,0,0,0,0,0.1c0,0,0,0.1,0,0.1c0,0,0,0.1,0,0.1
			C151.4,26,151.4,26.1,151.5,26.1C151.5,26.1,151.5,26.1,151.5,26.1z"/>
		<path class="st0" d="M159.8,26.1v9.2c0,0.5-0.4,0.9-0.9,0.9c-0.5,0-0.9-0.4-0.9-0.9v-7.6l-0.6,0.4c-0.1,0.1-0.3,0.1-0.4,0.1
			c-0.3,0-0.6-0.2-0.7-0.4c-0.3-0.4-0.1-0.9,0.3-1.2l1.9-1.1c0,0,0,0,0.1,0c0,0,0,0,0.1,0c0,0,0.1,0,0.1,0c0,0,0,0,0.1,0
			c0,0,0.1,0,0.1,0c0,0,0,0,0,0h0c0,0,0.1,0,0.1,0c0,0,0,0,0.1,0c0,0,0.1,0,0.1,0c0,0,0,0,0.1,0c0,0,0.1,0,0.1,0c0,0,0,0,0.1,0
			c0,0,0,0,0.1,0c0,0,0,0,0.1,0.1s0,0,0,0.1c0,0,0,0,0.1,0.1l0,0c0,0,0,0,0,0c0,0,0,0,0,0.1c0,0,0,0.1,0,0.1c0,0,0,0.1,0,0.1
			C159.7,26,159.7,26.1,159.8,26.1C159.8,26.1,159.8,26.1,159.8,26.1z"/>
		<path class="st0" d="M168.1,26.1v9.2c0,0.5-0.4,0.9-0.9,0.9c-0.5,0-0.9-0.4-0.9-0.9v-7.6l-0.6,0.4c-0.1,0.1-0.3,0.1-0.4,0.1
			c-0.3,0-0.6-0.2-0.7-0.4c-0.3-0.4-0.1-0.9,0.3-1.2l1.9-1.1c0,0,0,0,0.1,0c0,0,0,0,0.1,0c0,0,0.1,0,0.1,0c0,0,0,0,0.1,0
			c0,0,0.1,0,0.1,0c0,0,0,0,0,0h0c0,0,0.1,0,0.1,0c0,0,0,0,0.1,0c0,0,0.1,0,0.1,0c0,0,0,0,0.1,0c0,0,0.1,0,0.1,0c0,0,0,0,0.1,0
			c0,0,0,0,0.1,0c0,0,0,0,0.1,0.1s0,0,0,0.1c0,0,0,0,0.1,0.1l0,0c0,0,0,0,0,0c0,0,0,0,0,0.1c0,0,0,0.1,0,0.1c0,0,0,0.1,0,0.1
			C168.1,26,168.1,26.1,168.1,26.1C168.1,26.1,168.1,26.1,168.1,26.1z"/>
		<path class="st0" d="M176.4,26.1v9.2c0,0.5-0.4,0.9-0.9,0.9c-0.5,0-0.9-0.4-0.9-0.9v-7.6l-0.6,0.4c-0.1,0.1-0.3,0.1-0.4,0.1
			c-0.3,0-0.6-0.2-0.7-0.4c-0.3-0.4-0.1-0.9,0.3-1.2l1.9-1.1c0,0,0,0,0.1,0c0,0,0,0,0.1,0c0,0,0.1,0,0.1,0c0,0,0,0,0.1,0
			c0,0,0.1,0,0.1,0c0,0,0,0,0,0h0c0,0,0.1,0,0.1,0c0,0,0,0,0.1,0c0,0,0.1,0,0.1,0c0,0,0,0,0.1,0c0,0,0.1,0,0.1,0c0,0,0,0,0.1,0
			c0,0,0,0,0.1,0c0,0,0,0,0.1,0.1s0,0,0,0.1c0,0,0,0,0.1,0.1l0,0c0,0,0,0,0,0c0,0,0,0,0,0.1c0,0,0,0.1,0,0.1c0,0,0,0.1,0,0.1
			C176.4,26,176.4,26.1,176.4,26.1C176.4,26.1,176.4,26.1,176.4,26.1z"/>
		<path class="st0" d="M199.9,30.7c0,0.9-0.2,1.8-0.6,2.5v0c0,0-0.2,0.3-0.4,0.5c-0.3,0.3-0.6,0.6-1.2,0.7c-0.1,0-0.3,0-0.4,0
			c-0.5,0-1-0.2-1.2-0.6c-0.1-0.2-0.2-0.3-0.2-0.5c-0.4,0.2-0.9,0.3-1.4,0.3c-0.8,0-1.6-0.4-2.1-0.9c-0.5-0.6-0.9-1.4-0.9-2.2
			c0-0.8,0.3-1.6,0.9-2.2c0.5-0.6,1.3-0.9,2.1-0.9c0.9,0,1.6,0.4,2.2,0.9c0.5,0.6,0.9,1.4,0.9,2.2c0,0,0,0.1,0,0.1c0,0,0,0,0,0.1
			v1.8c0,0,0.1,0,0.1-0.1c0.1-0.1,0.2-0.2,0.2-0.2c0.2-0.5,0.4-1.1,0.4-1.7c0-2-1.6-3.7-3.7-3.7c-2,0-3.7,1.7-3.7,3.7
			c0,2.1,1.7,3.7,3.7,3.7c0.3,0,0.6,0,0.9-0.1c0.5-0.1,0.9,0.2,1,0.6c0.1,0.5-0.2,0.9-0.6,1.1c-0.4,0.1-0.9,0.2-1.4,0.2
			c-3,0-5.4-2.4-5.4-5.5c0-3,2.4-5.4,5.4-5.4C197.5,25.3,199.9,27.7,199.9,30.7z M195.8,30.7c0-0.4-0.2-0.8-0.4-1
			c-0.2-0.2-0.5-0.4-0.9-0.4c-0.3,0-0.7,0.2-0.9,0.4c-0.2,0.3-0.4,0.6-0.4,1c0,0.4,0.1,0.8,0.4,1c0.2,0.2,0.5,0.4,0.9,0.4
			c0.4,0,0.7-0.1,0.9-0.4C195.6,31.5,195.8,31.1,195.8,30.7z"/>
		<path class="st0" d="M215,32.3v2.9c0,2-1.7,3.7-3.7,3.7c-0.6,0-1.1-0.1-1.6-0.4c-0.4-0.2-0.6-0.7-0.4-1.1c0.2-0.4,0.7-0.6,1.1-0.4
			c0.3,0.1,0.6,0.2,0.9,0.2c1,0,1.8-0.7,2-1.7c-0.6,0.4-1.3,0.6-2,0.6c-1,0-2-0.5-2.6-1.2c-0.7-0.7-1.1-1.6-1.1-2.7
			c0-1.1,0.4-2,1.1-2.8c0.7-0.7,1.6-1.1,2.6-1.1c0.8,0,1.5,0.2,2.1,0.7c0.1-0.4,0.4-0.7,0.8-0.7c0.5,0,0.8,0.4,0.8,0.8V32.3
			L215,32.3z M213.3,32.3c0-0.6-0.2-1.2-0.6-1.6c-0.4-0.4-0.9-0.7-1.5-0.7c-0.5,0-1.1,0.2-1.4,0.7c-0.4,0.4-0.6,1-0.6,1.6
			c0,0.7,0.2,1.2,0.6,1.6c0.4,0.4,0.9,0.6,1.4,0.6c0.6,0,1.1-0.2,1.5-0.6C213.1,33.5,213.3,33,213.3,32.3z"/>
		<path class="st0" d="M227.9,31.6C227.9,31.6,227.9,31.6,227.9,31.6v3.7c0,0.5-0.4,0.8-0.8,0.8c-0.4,0-0.8-0.4-0.8-0.8v-3.7
			c0,0,0,0,0,0c0-0.9-0.7-1.6-1.6-1.6c-0.9,0-1.6,0.7-1.6,1.6v3.7c0,0,0,0.1,0,0.1c0,0,0,0,0,0c0,0,0,0.1,0,0.1c0,0,0,0,0,0.1
			c-0.1,0.3-0.5,0.5-0.8,0.5c-0.1,0-0.1,0-0.2,0c-0.4-0.1-0.7-0.4-0.7-0.8v-3.7c0,0,0,0,0,0v-2.4c0-0.5,0.4-0.8,0.8-0.8
			c0.3,0,0.6,0.2,0.7,0.5c0.5-0.3,1.1-0.5,1.7-0.5c1,0,1.8,0.4,2.4,1.1c0.6-0.7,1.5-1.1,2.4-1.1c1.8,0,3.2,1.5,3.2,3.3v3.7
			c0,0.5-0.4,0.8-0.8,0.8s-0.8-0.4-0.8-0.8v-3.7c0-0.9-0.7-1.6-1.6-1.6C228.6,30.1,227.9,30.7,227.9,31.6z"/>
		<path class="st0" d="M245.8,32.3v3c0,0.5-0.4,0.8-0.8,0.8c-0.4,0-0.7-0.3-0.8-0.7c-0.6,0.4-1.3,0.7-2.1,0.7c-1.1,0-2-0.4-2.6-1.1
			c-0.7-0.7-1.1-1.7-1.1-2.7c0-1.1,0.4-2,1.1-2.7c0.7-0.7,1.6-1.2,2.6-1.2c0.8,0,1.5,0.3,2.1,0.7c0.1-0.4,0.4-0.7,0.8-0.7
			c0.5,0,0.8,0.4,0.8,0.8V32.3z M244.2,32.3c0-0.7-0.2-1.2-0.6-1.6c-0.4-0.4-0.9-0.6-1.4-0.6c-0.6,0-1.1,0.2-1.4,0.6
			c-0.4,0.4-0.6,0.9-0.6,1.6c0,0.6,0.2,1.2,0.6,1.6c0.4,0.4,0.9,0.6,1.4,0.6c0.5,0,1.1-0.2,1.4-0.6C244,33.5,244.2,32.9,244.2,32.3z
			"/>
		<path class="st0" d="M253.7,26.4c0,0.5-0.4,0.9-0.8,0.9c-0.5,0-0.8-0.4-0.8-0.9v-0.3c0-0.5,0.4-0.8,0.8-0.8c0.5,0,0.8,0.4,0.8,0.8
			V26.4z M253.7,29.3v6.1c0,0.5-0.4,0.8-0.8,0.8c-0.5,0-0.8-0.4-0.8-0.8v-6.1c0-0.5,0.4-0.9,0.8-0.9
			C253.3,28.4,253.7,28.8,253.7,29.3z"/>
		<path class="st0" d="M260.1,25.3c0.5,0,0.9,0.4,0.9,0.9v9.2c0,0.5-0.4,0.9-0.9,0.9c-0.5,0-0.9-0.4-0.9-0.9v-9.2
			C259.3,25.7,259.6,25.3,260.1,25.3z"/>
		<path class="st0" d="M267.1,33.9c0.6,0,1.2,0.5,1.2,1.2s-0.5,1.1-1.2,1.1c-0.6,0-1.1-0.5-1.1-1.1S266.5,33.9,267.1,33.9z"/>
		<path class="st0" d="M271.9,32.3c0-2.2,1.8-3.9,3.9-3.9c0.9,0,1.8,0.3,2.5,0.9c0.4,0.3,0.4,0.8,0.2,1.1c-0.3,0.4-0.8,0.4-1.2,0.2
			c-0.4-0.3-0.9-0.5-1.5-0.5c-1.3,0-2.3,1-2.3,2.2c0,1.2,1,2.2,2.3,2.2c0.6,0,1.1-0.2,1.5-0.5c0.3-0.3,0.9-0.2,1.2,0.2
			c0.2,0.3,0.2,0.8-0.2,1.1c-0.7,0.5-1.5,0.8-2.5,0.8C273.7,36.2,271.9,34.4,271.9,32.3z"/>
		<path class="st0" d="M284.9,35c-0.7-0.7-1.1-1.6-1.1-2.7c0-1.1,0.4-2,1.1-2.7c0.7-0.7,1.6-1.2,2.7-1.2c1,0,2,0.5,2.6,1.2
			c0.7,0.7,1.1,1.7,1.1,2.7c0,1.1-0.4,2.1-1.1,2.7c-0.6,0.7-1.6,1.2-2.6,1.2C286.5,36.2,285.6,35.8,284.9,35z M285.6,32.3
			c0,0.7,0.2,1.2,0.6,1.6c0.4,0.4,0.9,0.6,1.5,0.6c0.5,0,1-0.2,1.4-0.6c0.4-0.4,0.6-1,0.6-1.6c0-0.6-0.2-1.2-0.6-1.6
			c-0.4-0.3-0.9-0.6-1.4-0.6c-0.6,0-1.1,0.2-1.5,0.6C285.8,31.1,285.6,31.7,285.6,32.3z"/>
		<path class="st0" d="M303.5,31.6C303.5,31.6,303.5,31.6,303.5,31.6v3.7c0,0.5-0.4,0.8-0.8,0.8c-0.4,0-0.8-0.4-0.8-0.8v-3.7
			c0,0,0,0,0,0c0-0.9-0.7-1.6-1.6-1.6c-0.9,0-1.6,0.7-1.6,1.6v3.7c0,0,0,0.1,0,0.1c0,0,0,0,0,0c0,0,0,0.1,0,0.1c0,0,0,0,0,0.1
			c-0.1,0.3-0.5,0.5-0.8,0.5c-0.1,0-0.1,0-0.2,0c-0.4-0.1-0.7-0.4-0.7-0.8v-3.7c0,0,0,0,0,0v-2.4c0-0.5,0.4-0.8,0.8-0.8
			c0.3,0,0.6,0.2,0.7,0.5c0.5-0.3,1.1-0.5,1.7-0.5c1,0,1.8,0.4,2.4,1.1c0.6-0.7,1.5-1.1,2.4-1.1c1.8,0,3.2,1.5,3.2,3.3v3.7
			c0,0.5-0.4,0.8-0.8,0.8s-0.8-0.4-0.8-0.8v-3.7c0-0.9-0.7-1.6-1.6-1.6C304.3,30.1,303.6,30.7,303.5,31.6z"/>
	</g>
	<g>
		<path class="st0" d="M356.9,51.7H20.2v-40h336.7V51.7z M23.2,48.7h330.7v-34H23.2V48.7z"/>
	</g>
	<g>
		<path class="st0" d="M334.6,43.2c-1-0.6-1.4-1.4-1.7-2.5c-0.4-1.4-0.9-2.7-1.4-4.1c-0.2-0.6-0.2-1.1,0.5-1.4
			c0.7-0.2,1,0.3,1.2,0.8c0.5,1.5,1,3,1.6,4.5c0.1,0.3,0.4,0.5,0.6,0.8c0.2-0.3,0.5-0.5,0.6-0.8c2.5-6.1,5.1-12.2,7.6-18.4
			c0.1-0.3,0.1-0.7,0.1-1c-0.3,0-0.7-0.1-1,0c-6.2,2.5-12.3,5-18.5,7.6c-0.3,0.1-0.5,0.4-0.7,0.7c0.2,0.2,0.5,0.5,0.7,0.5
			c1.7,0.6,3.3,1.1,5,1.7c0.6,0.2,1,0.1,1.4-0.3c2.3-2,4.7-4,7-6c0.3-0.3,1-0.4,1.4-0.3c0.6,0.2,0.5,1-0.2,1.6
			c-2.2,1.8-4.3,3.7-6.5,5.5c-2.4,2-1.4,1.8-4.3,0.8c-1.5-0.5-3-1-4.5-1.6c-1.1-0.4-1.7-1.1-1.7-2.1c0-1,0.5-1.8,1.6-2.2
			c6.3-2.6,12.6-5.2,18.9-7.7c1.6-0.6,2.5-0.2,3.4,1.5v1c-0.1,0.3-0.3,0.5-0.4,0.8c-2.5,6.1-5,12.2-7.5,18.3
			c-0.4,0.9-0.8,1.7-1.8,2.1H334.6z"/>
	</g>
</g>
</svg>
