<?xml version="1.0" encoding="utf-8"?>
<!-- Generator: Adobe Illustrator 22.0.0, SVG Export Plug-In . SVG Version: 6.00 Build 0)  -->
<svg version="1.1" id="Layer_1" xmlns="http://www.w3.org/2000/svg" xmlns:xlink="http://www.w3.org/1999/xlink" x="0px" y="0px"
	 viewBox="0 0 50 59.4" style="enable-background:new 0 0 50 59.4;" xml:space="preserve">
<style type="text/css">
	.st0{fill:#FFFFFF;}
</style>
<g>
	<g>
		<path class="st0" d="M25,50.7c-1.6-1.7-3.2-3.2-4.7-4.9c-2.8-3-5.3-6.1-7.5-9.6c-1.5-2.3-2.8-4.8-3.4-7.5c-1-4.2-0.1-8.1,2.2-11.6
			c3.4-5.1,8.2-7.5,14.3-7.3c7.6,0.3,13.9,6.2,15,13.7c0.4,3-0.2,5.9-1.4,8.6c-1.7,3.6-4,6.9-6.5,10c-2.3,2.9-4.9,5.6-7.6,8.1
			C25.3,50.4,25.2,50.6,25,50.7 M25,46.7c0.1-0.1,0.2-0.1,0.2-0.2c3-3,5.7-6.1,8.1-9.5c1.5-2.1,2.9-4.3,3.9-6.7
			c0.9-2.3,1.2-4.6,0.7-7.1C36.7,18,32.5,13.9,27.4,13c-5.3-0.9-10.6,1.4-13.4,6c-1.5,2.5-2.3,5.2-1.9,8.1c0.3,2,1.1,3.8,2,5.6
			c1.9,3.5,4.3,6.6,6.9,9.5C22.3,43.8,23.6,45.2,25,46.7"/>
	</g>
	<g>
		<path class="st0" d="M32.4,26c0,4-3.3,7.3-7.4,7.2c-4,0-7.2-3.3-7.2-7.4c0-3.9,3.3-7.2,7.3-7.2C29.1,18.7,32.4,21.9,32.4,26
			 M25.1,30.3c2.4,0,4.4-2,4.4-4.4c0-2.4-2-4.4-4.4-4.4c-2.4,0-4.4,2-4.4,4.3C20.7,28.3,22.7,30.3,25.1,30.3"/>
	</g>
</g>
</svg>
