<?xml version="1.0" encoding="utf-8"?>
<!-- Generator: Adobe Illustrator 22.0.0, SVG Export Plug-In . SVG Version: 6.00 Build 0)  -->
<svg version="1.1" id="Layer_1" xmlns="http://www.w3.org/2000/svg" xmlns:xlink="http://www.w3.org/1999/xlink" x="0px" y="0px"
	 viewBox="0 0 50 59.4" style="enable-background:new 0 0 50 59.4;" xml:space="preserve">
<style type="text/css">
	.st0{fill:#FFFFFF;}
</style>
<g>
	<path class="st0" d="M10,21.6c0-0.2,0-0.5,0-0.7c0.1-1.4,0.4-2.7,1-3.9c0.4-1,1-1.9,1.7-2.8c0.5-0.6,1-1.1,1.6-1.6
		c0.5-0.4,1-0.8,1.5-1.2c0.3-0.3,0.7-0.5,1.1-0.7c0.7-0.3,1.4-0.2,2,0.2c0.7,0.4,1.2,0.9,1.6,1.5c0.6,0.8,1.1,1.6,1.7,2.5
		c0.4,0.6,0.8,1.2,1.1,1.9c0.3,0.7,0.6,1.4,0.6,2.1c0.1,1-0.2,1.9-0.9,2.7c-0.4,0.4-0.9,0.8-1.3,1.2c-0.4,0.4-0.9,0.7-1.4,1.1
		c-0.6,0.4-1,0.9-1.2,1.6c-0.2,0.6-0.1,1.1,0,1.7c0.2,0.8,0.5,1.5,0.9,2.2c0.7,1.2,1.5,2.3,2.4,3.4c0.8,1,1.7,2,2.7,2.9
		c0.8,0.8,1.7,1.5,2.6,2c0.6,0.3,1.2,0.6,1.8,0.7c0.9,0.1,1.6-0.1,2.2-0.7c0.1-0.1,0.3-0.2,0.4-0.4c0.5-0.6,1.1-1.1,1.7-1.6
		c0.3-0.3,0.7-0.6,1-0.8c0.9-0.6,1.9-0.6,2.9-0.3c0.8,0.3,1.6,0.7,2.2,1.2c0.8,0.6,1.6,1.3,2.4,2c0.6,0.5,1.1,1,1.6,1.6
		c0.4,0.5,0.7,1,0.9,1.6c0,0.1,0,0.2,0.1,0.3v0.4c0,0.1,0,0.1,0,0.2c-0.1,0.6-0.5,1.1-0.9,1.6c-0.5,0.4-0.9,0.8-1.4,1.2
		c-1,1-2.1,1.7-3.3,2.3c-1.2,0.6-2.5,0.9-3.9,1c-0.2,0-0.5,0-0.7,0h-0.5c-0.1,0-0.1,0-0.2,0c-0.3,0-0.7,0-1-0.1
		c-1.2-0.1-2.4-0.4-3.6-0.9c-1.8-0.7-3.5-1.7-5.1-2.8c-1.4-1-2.6-2.1-3.8-3.2c-1.4-1.4-2.7-2.8-3.9-4.3c-1.2-1.5-2.3-3-3.3-4.6
		c-1.2-1.9-2.1-4-2.7-6.2c-0.3-1-0.5-2-0.5-3c0-0.2,0-0.5,0-0.7V21.6z"/>
</g>
</svg>
