<?xml version="1.0" encoding="utf-8"?>
<!-- Generator: Adobe Illustrator 22.0.0, SVG Export Plug-In . SVG Version: 6.00 Build 0)  -->
<svg version="1.1" id="Layer_1" xmlns="http://www.w3.org/2000/svg" xmlns:xlink="http://www.w3.org/1999/xlink" x="0px" y="0px"
	 viewBox="0 0 606.8 138.3" style="enable-background:new 0 0 606.8 138.3;" xml:space="preserve">
<style type="text/css">
	.st0{fill:#4BA69D;}
	.st1{fill:#EB483F;}
</style>
<title>branding-titulo</title>
<g>
	<g>
		<path class="st0" d="M161.8,38.6l-1.6-1.4c1.4-1.7,2.7-3.6,3.7-5.6l1.9,1C164.7,34.8,163.4,36.8,161.8,38.6z"/>
	</g>
	<g>
		<path class="st0" d="M152.9,38.8l-1.3-1.7c0.9-0.7,1.8-1.5,2.6-2.3c3-3,5.3-6.7,6.9-10.6l2,0.8c-1.7,4.2-4.2,8.1-7.3,11.3
			C154.8,37.2,153.9,38,152.9,38.8z"/>
	</g>
	<g>
		<path class="st0" d="M141.1,38.9l-0.9-2c3.6-1.5,6.8-3.7,9.6-6.5c1.9-1.9,3.5-4.1,4.9-6.4l1.9,1c-1.4,2.5-3.2,4.8-5.2,6.9
			C148.4,34.9,144.9,37.3,141.1,38.9z"/>
	</g>
	<g>
		<path class="st0" d="M123.7,39l-0.6-2l2.2-0.6c7.4-2.2,14.4-4.2,20.2-10.1c0.7-0.7,1.4-1.5,2-2.3l1.7,1.3
			c-0.7,0.9-1.4,1.7-2.2,2.4c-6.2,6.2-13.8,8.5-21.1,10.6L123.7,39z"/>
	</g>
	<g>
		<path class="st0" d="M108.4,38.9l-1-1.9c4.3-2.1,8.9-3.8,13.6-5c6.5-1.9,12.7-3.8,18.1-8.2l1.4,1.6c-5.8,4.7-12.4,6.7-18.9,8.6
			C117.1,35.2,112.7,36.8,108.4,38.9z"/>
	</g>
	<g>
		<path class="st0" d="M98.1,38.8l-1.4-1.6c6-5.4,13.1-7.5,20-9.5c3.9-1,7.8-2.4,11.5-4l0.9,1.9c-3.8,1.7-7.8,3.1-11.8,4.1
			C110.2,31.8,103.7,33.7,98.1,38.8z"/>
	</g>
	<g>
		<path class="st0" d="M90,38.6l-1.7-1.3c0.9-1.2,1.9-2.3,2.9-3.3c6.2-6.2,13.7-8.4,20.3-10.4l0.6,2.1c-6.4,1.9-13.6,4-19.4,9.8
			C91.7,36.5,90.7,37.5,90,38.6z"/>
	</g>
	<g>
		<path class="st0" d="M83.1,38.5l-1.9-1c3.1-6,8-10.8,14.1-13.8l1,1.9c-2.9,1.4-5.5,3.3-7.8,5.6C86.2,33.3,84.5,35.8,83.1,38.5z"/>
	</g>
	<g>
		<path class="st0" d="M76.9,38.4l-2-0.8c1.7-4.6,4.3-8.7,7.7-12.2c0.5-0.5,1.1-1,1.7-1.5l1.4,1.6c-0.5,0.5-1,0.9-1.6,1.4
			C80.9,30.2,78.5,34.1,76.9,38.4z"/>
	</g>
	<g>
		<path class="st0" d="M71.1,38.3l-2-0.6c1.4-4.9,3.6-9.5,6.6-13.7l1.7,1.3C74.5,29.2,72.4,33.6,71.1,38.3z"/>
	</g>
	<g>
		<path class="st0" d="M65.5,38.3l-2-0.6c1.2-4.7,2.9-9.2,5-13.5l1.9,1C68.2,29.3,66.7,33.7,65.5,38.3z"/>
	</g>
	<g>
		<path class="st0" d="M59.9,38.3l-2-0.6c0.4-1.3,0.8-2.7,1.2-4c0.9-3.2,1.9-6.3,3.1-9.4l2,0.8c-1.2,3-2.1,6.1-3,9.2
			C60.7,35.6,60.3,36.9,59.9,38.3z"/>
	</g>
	<g>
		<path class="st0" d="M54.1,38.3l-2-0.8c1-2.7,1.9-5.5,2.7-8.3c0.5-1.7,1-3.3,1.5-5l2,0.7c-0.5,1.6-1,3.3-1.5,4.9
			C56,32.7,55.1,35.6,54.1,38.3z"/>
	</g>
	<g>
		<path class="st0" d="M47.8,38.5l-1.9-1c1.9-4,3.4-8.2,4.5-12.5l0.2-0.7l2,0.6l-0.1,0.7C51.4,30,49.8,34.3,47.8,38.5z"/>
	</g>
	<g>
		<path class="st0" d="M41.4,38.7l-1.7-1.2c2.7-4,4.7-8.4,6-13l2,0.6C46.4,30,44.2,34.6,41.4,38.7z"/>
	</g>
	<g>
		<path class="st0" d="M32.6,38.7l-1.5-1.5l0.6-0.6c3.4-3.5,6-7.7,7.6-12.3l2,0.8c-1.7,4.9-4.4,9.4-8,13.1L32.6,38.7z"/>
	</g>
	<g>
		<path class="st0" d="M22.2,38.9L21.1,37c2.3-1.3,4.4-2.9,6.3-4.8c2.3-2.4,4.3-5.1,5.7-8.1l1.9,1c-1.6,3.2-3.6,6.1-6.1,8.7
			C26.9,35.8,24.7,37.5,22.2,38.9z"/>
	</g>
	<g>
		<path class="st0" d="M12.6,37.1l-0.8-2c4.2-1.6,8.1-4,11.3-7.1c1.2-1.2,2.3-2.5,3.3-3.9l1.8,1.2c-1.1,1.5-2.2,2.9-3.5,4.2
			C21.2,32.8,17.1,35.4,12.6,37.1z"/>
	</g>
	<g>
		<path class="st0" d="M12.7,30.8l-1-1.9c2.5-1.3,4.8-3,6.9-5l1.5,1.5C17.9,27.5,15.4,29.3,12.7,30.8z"/>
	</g>
	<g>
		<path class="st1" d="M43.6,117.8c3.1,0,5.1-0.6,5.9-1.7c0.9-1.1,1.3-3.1,1.3-5.8V91.8h-6.1v-2.1h27.4v2.1h-3.7v26.8H67
			c-1.1-1.6-2.8-2.4-4.8-2.4c-0.9,0-3.5,0.6-7.9,1.7c-4.4,1.1-8.2,1.7-11.3,1.7c-10.3,0-18.3-2.8-24-8.4c-5.7-5.6-8.5-13.9-8.5-25.1
			c0-11.2,3-19.8,8.9-25.9c5.9-6.1,13.9-9.1,23.9-9.1c3.9,0,7.7,0.5,11.6,1.5c3.9,1,6.2,1.5,6.8,1.5c0.6,0,1.1-0.1,1.4-0.4
			c0.3-0.3,0.7-0.8,1-1.5h1L66,72.8h-1.7c-3.1-6.1-6.2-11-9.4-14.5c-3.1-3.5-6.6-5.3-10.5-5.3c-9.7,0-14.5,9.5-14.5,28.4V89
			c0,9.5,1.2,16.7,3.6,21.5C35.8,115.4,39.2,117.8,43.6,117.8z"/>
		<path class="st1" d="M131.9,116.9L125,96.4h-18.8l-7.3,20.5h7.1v1.8H91.4v-1.8h4.5l24.2-65.3h7.8l23.9,65.3h4.4v1.8h-31.1v-1.8
			H131.9z M115.9,69.4L107,94.3h17.2L115.9,69.4z"/>
		<path class="st1" d="M177.2,52.2h34.2v2.1h-10.1v62.3h3.4c5.4,0,9.7-1.6,12.9-4.9c3.2-3.3,6.4-8.4,9.7-15.2h2l-1.8,22.2h-50.3
			v-2.1h5.6V54.3h-5.6V52.2z"/>
		<path class="st1" d="M252.3,52.2h49.4l1,18.8h-1.7c-2.7-6.4-5.4-10.8-8.4-13.2c-2.9-2.4-7.2-3.6-12.8-3.6h-3.3v29.4h3.2
			c3,0,5.5-1.1,7.5-3.4c2-2.2,3.5-5.3,4.3-9.1h1.4v28.1h-1.6c-1.1-4.8-2.7-8.1-4.6-10.2c-1.9-2-4.6-3-7.9-3h-2.3v30.5h3.6
			c5.8,0,10.8-1.7,14.9-5.2c4.1-3.5,6.9-7.9,8.4-13.4h1.9l-0.8,20.7h-52.2v-2.1h5.6V54.3h-5.6V52.2z"/>
		<path class="st1" d="M359.1,85.1h-5v31.8h6.2v1.8h-30.9v-1.8h6.2V54h-6.2v-1.8h28.7c8.2,0,14.1,0.4,17.5,1.3
			c3.5,0.9,5.9,1.9,7.3,3.1c3,2.5,4.6,6.4,4.6,11.8c0,5.4-1.3,9.2-4,11.5c-2.7,2.3-6.7,3.7-12.2,4.1v0.3c5.1,0.7,8.7,2.2,10.7,4.6
			c2,2.3,3,6.3,3,11.8v5c0,3.3,0.2,5.5,0.5,6.6c0.3,1.1,1.1,1.7,2.2,1.7c1.1,0,2-0.5,2.7-1.6s1.3-3.2,1.9-6.6l1.6,0.2
			c-0.7,5.4-1.9,9-3.7,10.8c-1.7,1.8-5.2,2.8-10.4,2.8c-5.2,0-8.9-1.2-11.1-3.7c-2.2-2.4-3.3-7-3.3-13.7v-6.9c0-3.5-0.5-6.1-1.4-7.8
			C363.3,85.9,361.6,85.1,359.1,85.1z M354.1,54v29.3h3c3.6,0,6.3-1.1,8-3.3c1.7-2.2,2.6-5.8,2.6-10.8v-2.8c0-5-0.8-8.3-2.5-9.9
			c-1.7-1.6-4.4-2.4-8-2.4H354.1z"/>
		<path class="st1" d="M416.8,52.2h29V54h-5.2v62.9h5.2v1.8h-29v-1.8h5.2V54h-5.2V52.2z M422.9,48.1l10.9-15.4l4.6,0.4
			c1.6,0.1,2.7,0.6,3.5,1.4c0.7,0.8,1.1,1.8,1.1,2.9c0,2.5-1.4,4.4-4.2,5.5l-15.1,6.2L422.9,48.1z"/>
		<path class="st1" d="M507.6,116.9l-6.9-20.5h-18.8l-7.3,20.5h7.1v1.8h-14.5v-1.8h4.5l24.2-65.3h7.8l23.9,65.3h4.4v1.8h-31.1v-1.8
			H507.6z M491.7,69.4l-8.9,24.9h17.2L491.7,69.4z"/>
	</g>
</g>
</svg>
