<svg id="Layer_1" data-name="Layer 1" xmlns="http://www.w3.org/2000/svg" viewBox="0 0 413.1 313.46"><defs><style>.cls-1{opacity:0.65;}.cls-2{fill:none;stroke:#00a99d;stroke-miterlimit:10;stroke-width:4px;}</style></defs><title>curvas</title><g class="cls-1"><path class="cls-2" d="M352.83,88.29c36.79,62.82,90,58,23,86s-79,37-108,79-44,70-77,42-234-88-167-118,20-110,105-89S239.83-104.71,352.83,88.29Z"/><path class="cls-2" d="M340.09,94.36c33.53,57.25,82,52.86,21,78.38s-72,33.72-98.43,72S222.52,308.53,192.45,283-20.82,202.81,40.24,175.47s18.23-100.25,95.7-81.11S237.11-81.54,340.09,94.36Z"/><path class="cls-2" d="M326.66,100.76c30.08,51.38,73.61,47.44,18.81,70.34s-64.62,30.26-88.34,64.62-36,57.25-63,34.35-191.4-72-136.59-96.52,16.35-90,85.88-72.79S234.23-57.1,326.66,100.76Z"/><path class="cls-2" d="M312.26,107.62c26.4,45.09,64.6,41.63,16.51,61.72s-56.71,26.56-77.52,56.71S219.66,276.3,196,256.2,28,193,76.11,171.5s14.35-79,75.36-63.88S231.15-30.92,312.26,107.62Z"/><path class="cls-2" d="M294.56,116.05c21.87,37.36,53.52,34.49,13.68,51.14s-47,22-64.23,47-26.17,41.63-45.79,25S59.06,186.81,98.91,169s11.89-65.41,62.44-52.92S227.36,1.27,294.56,116.05Z"/><path class="cls-2" d="M281.54,122.25c18.55,31.67,45.38,29.24,11.6,43.35s-39.83,18.66-54.45,39.83-22.18,35.29-38.82,21.18-118-44.37-84.19-59.49,10.08-55.46,52.93-44.87S224.57,25,281.54,122.25Z"/><path class="cls-2" d="M267.08,129.14c14.84,25.35,36.32,23.4,9.28,34.7s-31.88,14.93-43.58,31.88S215,224,201.7,212.67s-94.43-35.51-67.39-47.62,8.07-44.39,42.37-35.91S221.48,51.25,267.08,129.14Z"/><path class="cls-2" d="M254.67,135.05c11.66,19.93,28.54,18.4,7.29,27.28s-25.06,11.74-34.26,25.06-14,22.2-24.42,13.32-74.23-27.91-53-37.43,6.35-34.89,33.31-28.23S218.82,73.83,254.67,135.05Z"/><path class="cls-2" d="M240.27,141.91c8,13.63,19.53,12.59,5,18.67s-17.15,8-23.44,17.14-9.55,15.2-16.72,9.12-50.79-19.1-36.25-25.61,4.34-23.88,22.79-19.32S215.74,100,240.27,141.91Z"/><path class="cls-2" d="M226.58,148.43c4.48,7.65,11,7.07,2.8,10.48s-9.63,4.51-13.16,9.62-5.36,8.54-9.38,5.12-28.52-10.72-20.35-14.38,2.43-13.4,12.79-10.84S212.81,124.91,226.58,148.43Z"/></g></svg>