<svg id="Layer_1" data-name="Layer 1" xmlns="http://www.w3.org/2000/svg" viewBox="0 0 410.87 313.46"><defs><style>.cls-1{opacity:0.65;}.cls-2{fill:none;stroke:#fff;stroke-miterlimit:10;stroke-width:4px;}</style></defs><title>curvas</title><g class="cls-1"><path class="cls-2" d="M350.6,88.29c36.78,62.82,90,58,23,86s-79,37-108,79-44,70-77,42-234-88-167-118,20-110,105-89S237.6-104.71,350.6,88.29Z"/><path class="cls-2" d="M337.86,94.36c33.53,57.25,82,52.86,21,78.38s-72,33.72-98.43,72-40.1,63.79-70.18,38.28S-23,202.81,38,175.47s18.23-100.25,95.7-81.11S234.87-81.54,337.86,94.36Z"/><path class="cls-2" d="M324.42,100.76c30.09,51.38,73.62,47.44,18.82,70.34s-64.62,30.26-88.34,64.62-36,57.25-63,34.35-191.4-72-136.6-96.52,16.36-90,85.89-72.79S232-57.1,324.42,100.76Z"/><path class="cls-2" d="M310,107.62c26.41,45.09,64.61,41.63,16.51,61.72S269.83,195.9,249,226.05s-31.58,50.25-55.27,30.15S25.78,193,73.87,171.5s14.36-79,75.37-63.88S228.91-30.92,310,107.62Z"/><path class="cls-2" d="M292.33,116.05c21.87,37.36,53.52,34.49,13.67,51.14s-47,22-64.22,47-26.17,41.63-45.79,25S56.83,186.81,96.67,169s11.9-65.41,62.45-52.92S225.13,1.27,292.33,116.05Z"/><path class="cls-2" d="M279.31,122.25c18.54,31.67,45.37,29.24,11.59,43.35s-39.82,18.66-54.44,39.83-22.19,35.29-38.82,21.18-118-44.37-84.2-59.49,10.09-55.46,52.94-44.87S222.34,25,279.31,122.25Z"/><path class="cls-2" d="M264.84,129.14c14.85,25.35,36.32,23.4,9.29,34.7s-31.88,14.93-43.59,31.88S212.79,224,199.47,212.67,105,177.16,132.08,165.05s8.07-44.39,42.37-35.91S219.24,51.25,264.84,129.14Z"/><path class="cls-2" d="M252.43,135.05c11.67,19.93,28.55,18.4,7.3,27.28s-25.06,11.74-34.26,25.06-14,22.2-24.43,13.32-74.22-27.91-53-37.43,6.34-34.89,33.31-28.23S216.59,73.83,252.43,135.05Z"/><path class="cls-2" d="M238,141.91c8,13.63,19.54,12.59,5,18.67s-17.15,8-23.45,17.14-9.55,15.2-16.71,9.12-50.79-19.1-36.25-25.61,4.34-23.88,22.79-19.32S213.51,100,238,141.91Z"/><path class="cls-2" d="M224.35,148.43c4.48,7.65,11,7.07,2.8,10.48s-9.63,4.51-13.16,9.62-5.36,8.54-9.39,5.12-28.51-10.72-20.35-14.38,2.44-13.4,12.8-10.84S210.58,124.91,224.35,148.43Z"/></g></svg>