<svg id="Layer_1" data-name="Layer 1" xmlns="http://www.w3.org/2000/svg" viewBox="0 0 164.88 26.54"><defs><style>.cls-1{fill:#f33;}</style></defs><title>lineas</title><path class="cls-1" d="M156.28,20l-1.64-1.37A30.82,30.82,0,0,0,158.37,13l1.89,1A32.81,32.81,0,0,1,156.28,20Z"/><path class="cls-1" d="M147.37,20.19l-1.32-1.68a27.5,27.5,0,0,0,2.56-2.27,31.41,31.41,0,0,0,6.88-10.63l2,.82a33.64,33.64,0,0,1-7.34,11.32A30.17,30.17,0,0,1,147.37,20.19Z"/><path class="cls-1" d="M135.56,20.33l-.87-1.95a30.59,30.59,0,0,0,9.61-6.45,29.46,29.46,0,0,0,4.86-6.43l1.86,1a31.93,31.93,0,0,1-5.21,6.89A33.32,33.32,0,0,1,135.56,20.33Z"/><path class="cls-1" d="M118.22,20.37l-.61-2,2.15-.63c7.39-2.17,14.37-4.21,20.23-10.08a25.81,25.81,0,0,0,2-2.27l1.66,1.34a29.78,29.78,0,0,1-2.19,2.44c-6.25,6.25-13.82,8.47-21.14,10.61Z"/><path class="cls-1" d="M102.91,20.29l-1-1.88a69.53,69.53,0,0,1,13.55-5C122,11.47,128.17,9.66,133.6,5.2L135,6.85c-5.77,4.74-12.45,6.69-18.91,8.58A68.58,68.58,0,0,0,102.91,20.29Z"/><path class="cls-1" d="M92.62,20.15l-1.43-1.59c6-5.4,13.1-7.47,20-9.48a79.34,79.34,0,0,0,11.48-4L123.53,7a80.63,80.63,0,0,1-11.79,4.14C104.81,13.16,98.26,15.07,92.62,20.15Z"/><path class="cls-1" d="M84.51,20,82.8,18.71a31.49,31.49,0,0,1,2.89-3.33C91.93,9.15,99.43,6.94,106,5l.6,2.05c-6.37,1.87-13.59,4-19.44,9.84A29.29,29.29,0,0,0,84.51,20Z"/><path class="cls-1" d="M77.58,19.85l-1.89-1A31.45,31.45,0,0,1,89.76,5.07l1,1.9a30.23,30.23,0,0,0-7.83,5.61A29.67,29.67,0,0,0,77.58,19.85Z"/><path class="cls-1" d="M71.36,19.74l-2-.78a34.45,34.45,0,0,1,7.7-12.2c.54-.53,1.1-1,1.67-1.54l1.39,1.61c-.53.46-1,.94-1.55,1.44A32.27,32.27,0,0,0,71.36,19.74Z"/><path class="cls-1" d="M65.56,19.68l-2-.65A43.23,43.23,0,0,1,70.19,5.37l1.69,1.31A40.83,40.83,0,0,0,65.56,19.68Z"/><path class="cls-1" d="M60,19.65l-2-.6A67.7,67.7,0,0,1,63,5.51l1.87,1A65.81,65.81,0,0,0,60,19.65Z"/><path class="cls-1" d="M54.35,19.67l-2-.64c.43-1.34.82-2.69,1.22-4a98.55,98.55,0,0,1,3.08-9.37l2,.8c-1.2,3-2.12,6.12-3,9.16C55.17,17,54.77,18.31,54.35,19.67Z"/><path class="cls-1" d="M48.54,19.73l-2-.76c1-2.7,1.86-5.55,2.67-8.3.49-1.66,1-3.33,1.51-5l2,.66c-.52,1.63-1,3.27-1.48,4.92C50.45,14.06,49.6,17,48.54,19.73Z"/><path class="cls-1" d="M42.28,19.84l-1.9-1A71.3,71.3,0,0,0,44.91,6.35l.19-.63,2,.6L47,7A73.08,73.08,0,0,1,42.28,19.84Z"/><path class="cls-1" d="M35.27,20l-1.73-1.25a43.8,43.8,0,0,0,6-13l2,.63A45.8,45.8,0,0,1,35.27,20Z"/><path class="cls-1" d="M27.05,20.13l-1.46-1.55.63-.61A32.73,32.73,0,0,0,33.77,5.65l2,.75a35.26,35.26,0,0,1-8,13.08Z"/><path class="cls-1" d="M16.69,20.28l-1.06-1.85a29.54,29.54,0,0,0,6.28-4.77,30.09,30.09,0,0,0,5.74-8.11l1.91,1a32.67,32.67,0,0,1-6.14,8.67A31.68,31.68,0,0,1,16.69,20.28Z"/><path class="cls-1" d="M7.07,18.49l-.78-2A32.17,32.17,0,0,0,17.6,9.35a29.62,29.62,0,0,0,3.29-3.94l1.75,1.22a31.8,31.8,0,0,1-3.53,4.23A34.25,34.25,0,0,1,7.07,18.49Z"/><path class="cls-1" d="M7.18,12.15l-1-1.88a30,30,0,0,0,6.89-5l1.49,1.52A31.87,31.87,0,0,1,7.18,12.15Z"/></svg>