<?xml version="1.0" encoding="utf-8"?>
<!-- Generator: Adobe Illustrator 22.0.0, SVG Export Plug-In . SVG Version: 6.00 Build 0)  -->
<svg version="1.1" id="Layer_1" xmlns="http://www.w3.org/2000/svg" xmlns:xlink="http://www.w3.org/1999/xlink" x="0px" y="0px"
	 viewBox="0 0 413.1 313.5" style="enable-background:new 0 0 413.1 313.5;" xml:space="preserve">
<style type="text/css">
	.st0{opacity:0.65;}
	.st1{fill:#00A99D;}
	.st2{fill:#1D1D4C;}
	.st3{enable-background:new    ;}
	.st4{fill:#FFFFFF;}
	.st5{fill:#F2353D;}
</style>
<title>curvas</title>
<g>
	<g class="st0">
		<g>
			<path class="st1" d="M215,308.6c-7.8,0-16.2-3.9-25.5-11.7c-10.4-8.8-39-21.4-69.3-34.7c-55-24.2-111.9-49.2-112-70.4
				c0-6.4,4.9-11.8,14.8-16.2c28.8-12.9,35.9-35.1,42.2-54.8c8-24.9,14.9-46.5,64.1-34.3c30.6,7.6,53.8-17,76.2-40.8
				c21-22.2,40.8-43.2,66.3-40.3c25.3,2.9,51.6,28.9,82.7,82c13.5,23.1,29.1,36.8,40.5,46.7c9.5,8.3,15.8,13.8,14.7,20.1
				c-1.1,6.5-9.7,12.2-33.2,22c-66.2,27.7-78.2,36.5-107.1,78.3c-2.1,3.1-4.2,6.1-6.2,9c-17,24.8-29.2,42.8-45.2,44.9
				C217.1,308.5,216.1,308.6,215,308.6z M104.6,86.8c-24.3,0-29.3,15.4-35.6,35.1c-6.2,19.4-13.9,43.6-44.3,57.2
				c-8.2,3.7-12.4,7.9-12.4,12.5c0.1,18.7,60.8,45.3,109.6,66.8c31.9,14,59.4,26.1,70.3,35.3c9.6,8.2,18,11.6,25.5,10.6
				c14.2-1.9,26.1-19.3,42.4-43.2c2-2.9,4-5.9,6.2-9c29.5-42.7,41.7-51.6,108.9-79.7c21.1-8.8,30-14.3,30.8-19
				c0.7-4.1-5.2-9.3-13.4-16.4c-11.6-10.1-27.4-24-41.3-47.7l0,0c-30-51.2-56-77.4-79.7-80.1c-23.6-2.7-42.7,17.6-63,39.1
				c-20.2,21.4-41,43.5-67.7,43.5c-4,0-8.1-0.5-12.4-1.5C118.8,87.9,111,86.8,104.6,86.8z"/>
		</g>
		<g>
			<path class="st1" d="M214.5,295.3c-7.2,0-14.8-3.5-23.3-10.8c-9.5-8.1-35.6-19.5-63.2-31.6c-50.2-22-102.1-44.8-102.1-64.3
				c0-5.9,4.5-10.9,13.6-14.9c26.2-11.7,32.6-32,38.3-49.8c7.3-22.8,13.6-42.5,58.7-31.4c27.8,6.9,48.9-15.5,69.3-37.1
				c18.3-19.4,37.2-39.4,60.6-36.8c23.1,2.6,47.1,26.4,75.5,74.8c12.3,21,26.5,33.5,36.8,42.6c8.7,7.6,14.4,12.7,13.5,18.5
				c-1,6-8.9,11.3-30.3,20.2c-60.3,25.2-71.3,33.2-97.6,71.3c-1.9,2.8-3.8,5.5-5.5,8.1c-15.5,22.7-26.7,39.1-41.4,41.1
				C216.4,295.2,215.5,295.3,214.5,295.3z M113.9,93.2c-22.1,0-26.6,14-32.3,31.9c-5.7,17.7-12.7,39.8-40.5,52.3
				c-7.4,3.3-11.2,7.1-11.2,11.3c0.1,16.9,55.3,41.2,99.7,60.7c29.1,12.8,54.2,23.8,64.1,32.2c8.7,7.4,16.3,10.6,23.1,9.6
				c12.9-1.7,23.7-17.5,38.6-39.4c1.8-2.6,3.6-5.3,5.6-8.1c26.9-38.9,38-47.1,99.3-72.7c13.3-5.6,27-12,27.9-17.2
				c0.6-3.6-4.8-8.3-12.2-14.8c-10.6-9.3-25-21.9-37.7-43.5v0c-27.3-46.6-51-70.4-72.5-72.9c-21.4-2.4-38.8,16-57.3,35.6
				c-18.4,19.5-37.4,39.7-61.9,39.7c-3.6,0-7.4-0.4-11.3-1.4C126.8,94.2,119.7,93.2,113.9,93.2z"/>
		</g>
		<g>
			<path class="st1" d="M213.9,281.3c-6.5,0-13.4-3.2-21.1-9.7c-8.5-7.2-31.9-17.5-56.6-28.3c-45.1-19.8-91.8-40.3-91.8-58
				c0-5.4,4.1-9.9,12.3-13.6c23.4-10.5,29.2-28.6,34.3-44.6c6.6-20.6,12.3-38.4,52.9-28.3c24.8,6.1,43.7-13.9,62-33.2
				c16.5-17.4,33.5-35.5,54.6-33.1c20.8,2.4,42.4,23.7,67.9,67.3v0c11,18.9,23.7,30,33,38.1c7.8,6.9,13,11.4,12.2,16.8
				c-0.9,5.4-8,10.2-27.3,18.3c-54.1,22.6-63.9,29.8-87.5,63.9c-1.7,2.5-3.4,4.9-5,7.3c-13.9,20.4-24,35.2-37.3,37
				C215.7,281.2,214.8,281.3,213.9,281.3z M123.6,99.9c-19.7,0-23.7,12.5-28.8,28.4c-5.1,16-11.4,35.8-36.5,47
				c-6.6,3-9.9,6.3-9.9,9.9c0,15,49.6,36.8,89.4,54.3c26.1,11.5,48.6,21.4,57.6,29c7.8,6.6,14.5,9.4,20.6,8.6
				c11.5-1.5,21.1-15.7,34.5-35.2c1.6-2.4,3.3-4.8,5-7.3c24.2-35,34.2-42.3,89.2-65.3c11.9-5,24.2-10.7,24.9-15.3
				c0.5-3.1-4.3-7.3-10.9-13.1c-8.9-7.8-22.5-19.7-33.8-39.1C300.5,60,279.3,38.7,260,36.5c-19.1-2.2-34.7,14.4-51.2,31.9
				c-16.6,17.6-33.6,35.7-55.6,35.7c-3.3,0-6.7-0.4-10.2-1.3C135.2,100.8,128.9,99.9,123.6,99.9z"/>
		</g>
		<g>
			<path class="st1" d="M213.3,266.3c-5.7,0-11.9-2.8-18.6-8.6c-7.4-6.3-27.9-15.3-49.6-24.9c-39.7-17.4-80.7-35.4-80.7-51.1
				c0-4.8,3.7-8.9,10.9-12.1c20.4-9.1,25.5-25,30-39c5.8-18.2,10.8-33.9,46.7-25c21.6,5.4,38.2-12.2,54.2-29.1
				c14.5-15.4,29.5-31.2,48.1-29.1c18.4,2.1,37.4,20.9,59.8,59.1c9.7,16.5,20.8,26.3,28.9,33.4c6.9,6.1,11.5,10.1,10.8,14.9
				c-0.8,4.9-6.9,9-24.1,16.2c-47.4,19.8-56,26.1-76.6,56c-1.5,2.2-3,4.3-4.4,6.4c-12.3,18-21.1,31-32.9,32.5
				C214.9,266.2,214.1,266.3,213.3,266.3z M134.2,107.1c-17.2,0-20.6,10.9-25.1,24.8c-4.5,14.1-10.1,31.6-32.1,41.4
				c-5.7,2.5-8.6,5.4-8.6,8.5c0,13,43.4,32.1,78.3,47.4c22.9,10.1,42.8,18.8,50.6,25.5c6.8,5.7,12.6,8.2,17.8,7.5
				c10-1.3,18.4-13.7,30.1-30.8c1.4-2.1,2.9-4.2,4.4-6.4c21.2-30.8,30-37.2,78.4-57.4c10.4-4.3,21.1-9.3,21.7-13.2
				c0.4-2.6-3.9-6.4-9.4-11.3c-7.9-6.9-19.8-17.3-29.8-34.4v0c-21.4-36.6-40-55.3-56.8-57.2C237.1,49.5,223.5,64,209,79.3
				c-16.8,17.8-34.1,36.2-58,30.2C144.2,107.9,138.7,107.1,134.2,107.1z"/>
		</g>
		<g>
			<path class="st1" d="M212.6,247.9c-4.8,0-10-2.4-15.7-7.2c-6.1-5.2-23-12.6-41-20.5c-39.3-17.3-67.1-30.4-67.1-42.7
				c0-4.1,3.1-7.6,9.3-10.4c16.8-7.5,21-20.6,24.6-32.1c4.7-14.6,9.1-28.4,39.1-21c17.7,4.4,31.4-10.1,44.5-24
				c12.1-12.8,24.5-26,40.1-24.2c15.3,1.7,31.2,17.4,49.8,49.2l0,0c8,13.6,17.2,21.7,23.9,27.6c5.8,5.1,9.7,8.5,9,12.7
				c-0.7,4.2-5.8,7.7-20.2,13.7c-39.2,16.4-46.3,21.6-63.4,46.3c-1.2,1.8-2.4,3.5-3.6,5.2c-10.2,15-17.6,25.8-27.5,27.2
				C213.9,247.8,213.3,247.9,212.6,247.9z M146.8,116c-13.8,0-16.5,8.6-20.3,20.3c-3.7,11.7-8.4,26.3-26.8,34.5
				c-4.6,2-6.9,4.3-6.9,6.7c0,10.6,37.4,27,64.7,39c19,8.4,35.4,15.6,41.9,21.1c5.5,4.7,10.3,6.7,14.5,6.1
				c8.1-1.1,15.1-11.3,24.7-25.5c1.2-1.7,2.4-3.5,3.6-5.3c17.6-25.6,24.9-30.9,65.1-47.7c8-3.4,17.3-7.6,17.8-10.7
				c0.3-2-3.2-5.1-7.7-9c-6.5-5.7-16.4-14.4-24.7-28.6l0,0c-17.7-30.2-33-45.6-46.8-47.2c-13.6-1.5-24.9,10.4-36.8,23
				c-12.1,12.9-24.6,26.1-40.8,26.1c-2.4,0-5-0.3-7.6-0.9C155.2,116.6,150.6,116,146.8,116z"/>
		</g>
		<g>
			<path class="st1" d="M212.1,234.3c-4.2,0-8.6-2-13.5-6.2c-5.1-4.4-19.5-10.7-34.7-17.3c-33.4-14.7-57-25.9-57.1-36.4
				c0-3.6,2.7-6.7,8-9.1c14.1-6.3,17.6-17.3,20.7-27c4-12.5,7.8-24.3,33.5-18c14.9,3.7,26.4-8.5,37.5-20.3
				c10.3-10.9,20.9-22.1,34.3-20.6c13.1,1.5,26.6,14.8,42.4,41.8l0,0c6.7,11.5,14.5,18.3,20.2,23.3c5,4.4,8.4,7.3,7.8,11
				c-0.6,3.7-5,6.7-17.3,11.9c-33.1,13.8-39.1,18.2-53.6,39.1c-1.1,1.6-2.1,3.1-3.1,4.5c-8.7,12.7-15,21.9-23.5,23.1
				C213.2,234.2,212.6,234.3,212.1,234.3z M156.4,122.5c-11.5,0-13.8,7.2-17,17c-3.2,10-7.2,22.4-22.9,29.5
				c-3.8,1.7-5.7,3.5-5.7,5.4c0,8.8,31.6,22.6,54.7,32.8c16.1,7.1,30.1,13.2,35.7,18c4.6,3.9,8.6,5.6,12.1,5.1
				c6.7-0.9,12.6-9.5,20.7-21.4c1-1.5,2-3,3.1-4.5c15-21.7,21.2-26.3,55.3-40.5c4-1.7,14.5-6,14.9-8.8c0.2-1.5-2.9-4.2-6.4-7.4
				c-5.6-4.9-13.9-12.2-21-24.3c-14.9-25.5-27.8-38.5-39.4-39.9c-11.4-1.3-20.9,8.8-30.9,19.4c-11.9,12.6-24.2,25.6-41.3,21.4
				C163.4,123,159.5,122.5,156.4,122.5z"/>
		</g>
		<g>
			<path class="st1" d="M211.4,219.2c-3.4,0-7.1-1.7-11-5c-4.1-3.5-15.6-8.5-27.8-13.9c-27.7-12.2-45.8-20.8-45.8-29.5
				c0-3.1,2.2-5.6,6.7-7.6c11.1-5,13.9-13.7,16.4-21.4c3.3-10.2,6.3-19.8,27.3-14.6c11.7,2.9,20.4-6.3,29.6-16.1
				c8.3-8.8,16.8-17.9,27.8-16.6c10.6,1.2,21.5,11.9,34.3,33.7l0,0c5.4,9.2,11.6,14.6,16.1,18.6c4.1,3.6,6.9,6,6.3,9.2
				c-0.5,3.2-3.9,5.6-14.1,9.8c-26.4,11-31.2,14.5-42.7,31.2c-0.9,1.2-1.7,2.4-2.5,3.6c-7,10.3-12.1,17.7-19.1,18.7
				C212.4,219.2,211.9,219.2,211.4,219.2z M166.8,129.7c-8.8,0-10.6,5.5-13.1,13.4c-2.6,8.1-5.8,18.1-18.5,23.8
				c-2,0.9-4.3,2.3-4.3,4c0,6.7,26.1,18.2,43.4,25.8c13,5.7,24.2,10.6,28.7,14.5c3.6,3.1,6.6,4.4,9.3,4c5.2-0.7,10.1-7.9,16.3-17
				c0.8-1.2,1.6-2.4,2.5-3.6c11.9-17.3,17.3-21.3,44.5-32.6c7.5-3.2,11.5-5.4,11.7-6.8c0.2-1-2.5-3.3-5-5.5
				c-4.5-3.9-11.2-9.8-16.9-19.6l0,0c-11.9-20.3-22.1-30.7-31.3-31.7c-8.9-1-16.5,7-24.4,15.4c-9.6,10.2-19.5,20.7-33.5,17.3
				C172.4,130.1,169.3,129.7,166.8,129.7z"/>
		</g>
		<g>
			<path class="st1" d="M210.9,206.3c-2.8,0-5.7-1.3-8.9-4.1c-3.1-2.7-12.1-6.6-21.7-10.8c-21.9-9.6-36.3-16.5-36.3-23.6
				c0-2.6,1.8-4.7,5.5-6.4c8.6-3.8,10.6-10.3,12.6-16.5c2.5-7.9,5.1-16,22-11.8c8.9,2.2,15.7-5,22.9-12.5c6.6-7,13.4-14.2,22.2-13.2
				c8.5,1,17.2,9.4,27.3,26.7l0,0c4.2,7.1,9,11.4,12.6,14.5c3.2,2.8,5.6,4.9,5.1,7.6c-0.4,2.7-3.2,4.6-11.3,8
				c-20.9,8.7-24.3,11.2-33.4,24.4c-0.7,0.9-1.3,1.9-1.9,2.8c-5.6,8.2-9.7,14.1-15.4,14.9C211.7,206.3,211.3,206.3,210.9,206.3z
				 M175.9,135.9c-6.8,0-8.1,4.2-10,10.2c-2.1,6.4-4.6,14.4-14.8,19c-2,0.9-3.1,1.9-3.1,2.7c0,5,21.2,14.4,33.9,19.9
				c10.2,4.5,19.1,8.4,22.7,11.4c2.7,2.3,5,3.3,7,3.1c3.9-0.5,7.7-6.1,12.6-13.2c0.6-0.9,1.3-1.8,1.9-2.8
				c9.5-13.7,13.7-16.8,35.1-25.8c7.8-3.3,8.8-4.6,8.9-5c0-0.7-2.2-2.6-3.8-4c-3.5-3.1-8.9-7.8-13.4-15.5l0,0
				c-9.3-15.8-17.2-23.9-24.3-24.7c-6.8-0.8-12.7,5.4-18.8,12c-7.3,7.7-15.5,16.5-26.7,13.7C180.2,136.3,177.8,135.9,175.9,135.9z"
				/>
		</g>
		<g>
			<path class="st1" d="M210.4,191.3c-2.1,0-4.2-1-6.5-2.9c-2.1-1.8-8.2-4.5-14.7-7.3c-15.7-6.9-25.2-11.5-25.2-16.7
				c0-2.1,1.4-3.7,4.1-4.9c5.6-2.5,7-6.8,8.3-10.9c1.7-5.4,3.7-11.5,15.8-8.5c5.8,1.4,10.3-3.4,15-8.4c4.6-4.9,9.4-10,15.7-9.2
				c6,0.7,12.1,6.6,19.1,18.6l0,0c2.8,4.8,6.1,7.7,8.5,9.8c2.3,2,4.1,3.6,3.7,5.8c-0.4,2.3-3,3.8-8.1,6
				c-14.2,5.9-16.5,7.6-22.6,16.4c-0.4,0.6-0.9,1.3-1.3,1.9c-3.9,5.8-6.8,9.9-10.9,10.5C211,191.3,210.7,191.3,210.4,191.3z
				 M186.4,143.1c-4.1,0-4.9,2.5-6.2,6.5c-1.4,4.5-3.2,10.1-10.5,13.4c-1.5,0.7-1.8,1.2-1.8,1.3c0,3,15.4,9.8,22.8,13.1
				c7,3.1,13.1,5.8,15.6,7.9c1.7,1.5,3.2,2.1,4.3,2c2.4-0.3,4.9-4.1,8.2-8.8c0.4-0.6,0.9-1.3,1.3-1.9c6.5-9.5,9.5-11.6,24.3-17.9
				c3.8-1.6,5.2-2.5,5.6-2.9c-0.4-0.5-1.4-1.4-2.3-2.2c-2.4-2.1-6.1-5.4-9.3-10.7l0,0c-6.2-10.5-11.6-16.1-16.1-16.6
				c-4.3-0.5-8.2,3.6-12.4,8c-5.1,5.4-10.9,11.5-18.9,9.5C189.2,143.4,187.6,143.1,186.4,143.1z"/>
		</g>
		<g>
			<path class="st1" d="M209.8,177c-1.4,0-2.8-0.6-4.2-1.9c-1.1-0.9-4.6-2.5-8-4c-9.1-4-14.7-6.6-14.7-10.2c0-1.1,0.5-2.5,2.8-3.6
				c2.8-1.3,3.5-3.4,4.2-5.6c1-3,2.3-7.2,9.9-5.3c2.6,0.6,4.6-1.3,7.6-4.5c2.6-2.8,5.6-5.9,9.6-5.5c3.7,0.4,7.3,3.9,11.4,10.9l0,0
				c1.5,2.6,3.3,4.1,4.6,5.3c1.4,1.2,2.7,2.3,2.4,4.1c-0.3,1.9-2.3,2.9-5.1,4c-8.1,3.4-9.1,4.2-12.3,8.9l-0.8,1.1
				c-2.2,3.3-4,5.8-6.7,6.2C210.2,177,210,177,209.8,177z M187.1,161.2c1.5,1.7,8.3,4.7,12.1,6.3c4.6,2,7.6,3.4,9,4.6
				c0.7,0.6,1.4,0.9,1.7,0.9c1-0.1,2.5-2.4,3.9-4.5l0.8-1.1c3.8-5.5,5.6-6.8,14-10.3c1-0.4,1.7-0.7,2.1-1c-0.2-0.1-0.3-0.3-0.5-0.4
				c-1.4-1.2-3.6-3.1-5.4-6.2l0,0c-4.1-7-6.8-8.7-8.4-8.9c-2-0.2-4,1.9-6.2,4.2c-2.9,3-6.5,6.8-11.5,5.6c-4-1-4.2-0.2-5.1,2.7
				c-0.8,2.6-1.9,6.1-6.4,8C187.2,161.1,187.1,161.2,187.1,161.2z"/>
		</g>
	</g>
	<g>
		<g>
			<g>
				<rect x="93.6" y="192" class="st2" width="104" height="24"/>
			</g>
		</g>
		<g>
			<g>
				<rect x="93.6" y="221" class="st2" width="192" height="24"/>
			</g>
		</g>
		<g class="st3">
			<g>
				<path class="st4" d="M111,211.5l-1.8-4.7h-4.8l-1.8,4.7h1.8v0.4h-3.7v-0.4h1.1l6.1-14.8h2l6,14.8h1.1v0.4h-7.8v-0.4H111z
					 M107,200.7l-2.3,5.7h4.3L107,200.7z"/>
			</g>
			<g>
				<path class="st4" d="M131.5,197.2v14.7h-3.4l-8.2-14v13.6h1.3v0.4h-3.3v-0.4h1.3v-14.3h-1.3v-0.4h6.6l6.3,10.8v-10.4h-1.3v-0.4
					h3.3v0.4H131.5z"/>
			</g>
			<g>
				<path class="st4" d="M143,211.5l-1.8-4.7h-4.8l-1.8,4.7h1.8v0.4h-3.7v-0.4h1.1l6.1-14.8h2l6,14.8h1.1v0.4h-7.8v-0.4H143z
					 M139,200.7l-2.3,5.7h4.3L139,200.7z"/>
			</g>
		</g>
		<g class="st3">
			<g>
				<path class="st4" d="M110.2,225.8c-2.5,0-3.7,2.2-3.7,6.5v1.7c0,2,0.3,3.6,1,4.8s1.6,1.7,2.9,1.7c1.8,0,3.4-1.5,4.8-4.6h0.4
					l-0.2,4.8h-0.3c-0.1-0.2-0.2-0.3-0.3-0.3c-0.1-0.1-0.2-0.1-0.3-0.1c-0.2,0-0.7,0.1-1.7,0.3c-1,0.2-2,0.3-3.1,0.3
					c-2.6,0-4.6-0.6-6.1-1.9c-1.4-1.3-2.1-3.2-2.1-5.7c0-2.5,0.7-4.5,2.2-5.9c1.5-1.4,3.5-2.1,6-2.1c1,0,1.9,0.1,2.9,0.3
					c0.9,0.2,1.5,0.3,1.6,0.3c0.2,0,0.3,0,0.4-0.1c0.1-0.1,0.2-0.2,0.3-0.3h0.3l0.2,4.7h-0.4c-0.7-1.5-1.5-2.6-2.2-3.3
					C112.1,226.2,111.2,225.8,110.2,225.8z"/>
			</g>
			<g>
				<path class="st4" d="M117.7,225.6h7.5v0.4h-1.4v6.7h4.8V226h-1.4v-0.4h7.5v0.4h-1.4v14.3h1.4v0.4h-7.5v-0.4h1.4v-7h-4.8v7h1.4
					v0.4h-7.5v-0.4h1.4V226h-1.4V225.6z"/>
			</g>
			<g>
				<path class="st4" d="M145.6,240.3l-1.8-4.7H139l-1.8,4.7h1.8v0.4h-3.7v-0.4h1.1l6.1-14.8h2l6,14.8h1.1v0.4h-7.8v-0.4H145.6z
					 M141.5,229.5l-2.3,5.7h4.3L141.5,229.5z"/>
			</g>
			<g>
				<path class="st4" d="M160.2,225.8c-2.5,0-3.7,2.2-3.7,6.5v1.7c0,2,0.3,3.6,1,4.8s1.6,1.7,2.9,1.7c1.8,0,3.4-1.5,4.8-4.6h0.4
					l-0.2,4.8h-0.3c-0.1-0.2-0.2-0.3-0.3-0.3c-0.1-0.1-0.2-0.1-0.3-0.1c-0.2,0-0.7,0.1-1.7,0.3c-1,0.2-2,0.3-3.1,0.3
					c-2.6,0-4.6-0.6-6.1-1.9c-1.4-1.3-2.1-3.2-2.1-5.7c0-2.5,0.7-4.5,2.2-5.9c1.5-1.4,3.5-2.1,6-2.1c1,0,1.9,0.1,2.9,0.3
					c0.9,0.2,1.5,0.3,1.6,0.3c0.2,0,0.3,0,0.4-0.1c0.1-0.1,0.2-0.2,0.3-0.3h0.3l0.2,4.7h-0.4c-0.7-1.5-1.5-2.6-2.2-3.3
					C162.1,226.2,161.2,225.8,160.2,225.8z"/>
			</g>
			<g>
				<path class="st4" d="M175.4,241c-2.7,0-4.7-0.7-6-2c-1.3-1.3-2-3.2-2-5.7s0.7-4.4,2.1-5.8c1.4-1.4,3.4-2.1,6-2.1
					c2.6,0,4.5,0.7,5.9,2c1.3,1.3,2,3.3,2,5.7s-0.7,4.4-2,5.8C180.1,240.3,178.1,241,175.4,241z M178.5,234.1v-1.6
					c0-2.6-0.1-4.3-0.4-5c-0.3-0.8-0.8-1.3-1.4-1.5c-0.3-0.1-0.7-0.2-1.2-0.2s-0.9,0.1-1.2,0.2c-0.3,0.1-0.6,0.3-0.9,0.6
					c-0.2,0.3-0.4,0.6-0.5,0.9c-0.1,0.3-0.2,0.8-0.3,1.3c-0.1,0.8-0.1,2.1-0.1,3.7v1.6c0,1.8,0.1,3,0.2,3.7s0.3,1.3,0.6,1.6
					c0.5,0.7,1.3,1.1,2.3,1.1c1.3,0,2.1-0.5,2.5-1.4C178.3,238.1,178.5,236.4,178.5,234.1z"/>
			</g>
			<g>
				<path class="st4" d="M198.6,226v14.7h-3.4l-8.2-14v13.6h1.3v0.4H185v-0.4h1.3V226H185v-0.4h6.6l6.3,10.8V226h-1.3v-0.4h3.3v0.4
					H198.6z"/>
			</g>
		</g>
		<g class="st3">
			<g>
				<path class="st4" d="M273.9,240.7v-1.4h1.5v1.4H273.9z"/>
			</g>
		</g>
		<g>
		</g>
		<g>
			<g>
				<polygon class="st5" points="126.6,262.9 136.5,270.6 146,262.4 157.3,271.1 154.8,274.4 146.1,267.7 136.6,276 126.7,268.2 
					117.2,276.5 107.2,268.8 99,275.9 96.3,272.7 107.1,263.4 117,271.1 				"/>
			</g>
		</g>
	</g>
</g>
</svg>
