<svg xmlns="http://www.w3.org/2000/svg" viewBox="0 0 150.93 956.52"><defs><style>.cls-1{isolation:isolate;}.cls-2{mix-blend-mode:screen;}.cls-3{fill:#00a99d;}</style></defs><title>puntos</title><g class="cls-1"><g id="Layer_1" data-name="Layer 1"><g class="cls-2"><path class="cls-3" d="M9.29,7.29A1.85,1.85,0,1,0,7.44,5.44,1.84,1.84,0,0,0,9.29,7.29Z"/><path class="cls-3" d="M27.77,7.29a1.85,1.85,0,1,0-1.85-1.85A1.85,1.85,0,0,0,27.77,7.29Z"/><path class="cls-3" d="M46.25,7.29a1.85,1.85,0,1,0-1.84-1.85A1.85,1.85,0,0,0,46.25,7.29Z"/><path class="cls-3" d="M64.74,7.29a1.85,1.85,0,1,0-1.85-1.85A1.84,1.84,0,0,0,64.74,7.29Z"/><path class="cls-3" d="M83.22,7.29a1.85,1.85,0,1,0-1.84-1.85A1.85,1.85,0,0,0,83.22,7.29Z"/><path class="cls-3" d="M101.71,7.29a1.85,1.85,0,1,0-1.85-1.85A1.84,1.84,0,0,0,101.71,7.29Z"/><path class="cls-3" d="M120.19,7.29a1.85,1.85,0,1,0-1.84-1.85A1.85,1.85,0,0,0,120.19,7.29Z"/><path class="cls-3" d="M138.68,7.29a1.85,1.85,0,1,0-1.85-1.85A1.84,1.84,0,0,0,138.68,7.29Z"/><path class="cls-3" d="M9.29,25.77a1.85,1.85,0,1,0-1.85-1.84A1.84,1.84,0,0,0,9.29,25.77Z"/><path class="cls-3" d="M27.77,25.77a1.85,1.85,0,1,0-1.85-1.84A1.84,1.84,0,0,0,27.77,25.77Z"/><path class="cls-3" d="M46.25,25.77a1.85,1.85,0,1,0-1.84-1.84A1.84,1.84,0,0,0,46.25,25.77Z"/><path class="cls-3" d="M64.74,25.77a1.85,1.85,0,1,0-1.85-1.84A1.84,1.84,0,0,0,64.74,25.77Z"/><path class="cls-3" d="M83.22,25.77a1.85,1.85,0,1,0-1.84-1.84A1.84,1.84,0,0,0,83.22,25.77Z"/><path class="cls-3" d="M101.71,25.77a1.85,1.85,0,1,0-1.85-1.84A1.84,1.84,0,0,0,101.71,25.77Z"/><path class="cls-3" d="M120.19,25.77a1.85,1.85,0,1,0-1.84-1.84A1.84,1.84,0,0,0,120.19,25.77Z"/><path class="cls-3" d="M138.68,25.77a1.85,1.85,0,1,0-1.85-1.84A1.84,1.84,0,0,0,138.68,25.77Z"/><path class="cls-3" d="M9.29,44.26a1.85,1.85,0,1,0-1.85-1.85A1.84,1.84,0,0,0,9.29,44.26Z"/><path class="cls-3" d="M27.77,44.26a1.85,1.85,0,1,0-1.85-1.85A1.85,1.85,0,0,0,27.77,44.26Z"/><path class="cls-3" d="M46.25,44.26a1.85,1.85,0,1,0-1.84-1.85A1.85,1.85,0,0,0,46.25,44.26Z"/><path class="cls-3" d="M64.74,44.26a1.85,1.85,0,1,0-1.85-1.85A1.84,1.84,0,0,0,64.74,44.26Z"/><path class="cls-3" d="M83.22,44.26a1.85,1.85,0,1,0-1.84-1.85A1.85,1.85,0,0,0,83.22,44.26Z"/><path class="cls-3" d="M101.71,44.26a1.85,1.85,0,1,0-1.85-1.85A1.84,1.84,0,0,0,101.71,44.26Z"/><path class="cls-3" d="M120.19,44.26a1.85,1.85,0,1,0-1.84-1.85A1.85,1.85,0,0,0,120.19,44.26Z"/><path class="cls-3" d="M138.68,44.26a1.85,1.85,0,1,0-1.85-1.85A1.84,1.84,0,0,0,138.68,44.26Z"/><path class="cls-3" d="M9.29,62.74A1.85,1.85,0,1,0,7.44,60.9,1.84,1.84,0,0,0,9.29,62.74Z"/><path class="cls-3" d="M27.77,62.74a1.85,1.85,0,1,0-1.85-1.84A1.84,1.84,0,0,0,27.77,62.74Z"/><path class="cls-3" d="M46.25,62.74a1.85,1.85,0,1,0-1.84-1.84A1.84,1.84,0,0,0,46.25,62.74Z"/><path class="cls-3" d="M64.74,62.74a1.85,1.85,0,1,0-1.85-1.84A1.84,1.84,0,0,0,64.74,62.74Z"/><path class="cls-3" d="M83.22,62.74a1.85,1.85,0,1,0-1.84-1.84A1.84,1.84,0,0,0,83.22,62.74Z"/><path class="cls-3" d="M101.71,62.74a1.85,1.85,0,1,0-1.85-1.84A1.84,1.84,0,0,0,101.71,62.74Z"/><path class="cls-3" d="M120.19,62.74a1.85,1.85,0,1,0-1.84-1.84A1.84,1.84,0,0,0,120.19,62.74Z"/><path class="cls-3" d="M138.68,62.74a1.85,1.85,0,1,0-1.85-1.84A1.84,1.84,0,0,0,138.68,62.74Z"/><path class="cls-3" d="M9.29,81.23a1.85,1.85,0,1,0-1.85-1.85A1.84,1.84,0,0,0,9.29,81.23Z"/><path class="cls-3" d="M27.77,81.23a1.85,1.85,0,1,0-1.85-1.85A1.85,1.85,0,0,0,27.77,81.23Z"/><path class="cls-3" d="M46.25,81.23a1.85,1.85,0,1,0-1.84-1.85A1.85,1.85,0,0,0,46.25,81.23Z"/><path class="cls-3" d="M64.74,81.23a1.85,1.85,0,1,0-1.85-1.85A1.84,1.84,0,0,0,64.74,81.23Z"/><path class="cls-3" d="M83.22,81.23a1.85,1.85,0,1,0-1.84-1.85A1.85,1.85,0,0,0,83.22,81.23Z"/><path class="cls-3" d="M101.71,81.23a1.85,1.85,0,1,0-1.85-1.85A1.84,1.84,0,0,0,101.71,81.23Z"/><path class="cls-3" d="M120.19,81.23a1.85,1.85,0,1,0-1.84-1.85A1.85,1.85,0,0,0,120.19,81.23Z"/><path class="cls-3" d="M138.68,81.23a1.85,1.85,0,1,0-1.85-1.85A1.84,1.84,0,0,0,138.68,81.23Z"/><path class="cls-3" d="M9.29,99.71a1.85,1.85,0,1,0-1.85-1.84A1.84,1.84,0,0,0,9.29,99.71Z"/><path class="cls-3" d="M27.77,99.71a1.85,1.85,0,1,0-1.85-1.84A1.84,1.84,0,0,0,27.77,99.71Z"/><path class="cls-3" d="M46.25,99.71a1.85,1.85,0,1,0-1.84-1.84A1.84,1.84,0,0,0,46.25,99.71Z"/><path class="cls-3" d="M64.74,99.71a1.85,1.85,0,1,0-1.85-1.84A1.84,1.84,0,0,0,64.74,99.71Z"/><path class="cls-3" d="M83.22,99.71a1.85,1.85,0,1,0-1.84-1.84A1.84,1.84,0,0,0,83.22,99.71Z"/><path class="cls-3" d="M101.71,99.71a1.85,1.85,0,1,0-1.85-1.84A1.84,1.84,0,0,0,101.71,99.71Z"/><path class="cls-3" d="M120.19,99.71a1.85,1.85,0,1,0-1.84-1.84A1.84,1.84,0,0,0,120.19,99.71Z"/><path class="cls-3" d="M138.68,99.71a1.85,1.85,0,1,0-1.85-1.84A1.84,1.84,0,0,0,138.68,99.71Z"/><path class="cls-3" d="M9.29,118.2a1.85,1.85,0,1,0-1.85-1.85A1.84,1.84,0,0,0,9.29,118.2Z"/><path class="cls-3" d="M27.77,118.2a1.85,1.85,0,1,0-1.85-1.85A1.85,1.85,0,0,0,27.77,118.2Z"/><path class="cls-3" d="M46.25,118.2a1.85,1.85,0,1,0-1.84-1.85A1.85,1.85,0,0,0,46.25,118.2Z"/><path class="cls-3" d="M64.74,118.2a1.85,1.85,0,1,0-1.85-1.85A1.84,1.84,0,0,0,64.74,118.2Z"/><path class="cls-3" d="M83.22,118.2a1.85,1.85,0,1,0-1.84-1.85A1.85,1.85,0,0,0,83.22,118.2Z"/><path class="cls-3" d="M101.71,118.2a1.85,1.85,0,1,0-1.85-1.85A1.84,1.84,0,0,0,101.71,118.2Z"/><path class="cls-3" d="M120.19,118.2a1.85,1.85,0,1,0-1.84-1.85A1.85,1.85,0,0,0,120.19,118.2Z"/><path class="cls-3" d="M138.68,118.2a1.85,1.85,0,1,0-1.85-1.85A1.84,1.84,0,0,0,138.68,118.2Z"/><path class="cls-3" d="M9.29,136.68a1.85,1.85,0,1,0-1.85-1.84A1.84,1.84,0,0,0,9.29,136.68Z"/><path class="cls-3" d="M27.77,136.68a1.85,1.85,0,1,0-1.85-1.84A1.84,1.84,0,0,0,27.77,136.68Z"/><path class="cls-3" d="M46.25,136.68a1.85,1.85,0,1,0-1.84-1.84A1.84,1.84,0,0,0,46.25,136.68Z"/><path class="cls-3" d="M64.74,136.68a1.85,1.85,0,1,0-1.85-1.84A1.84,1.84,0,0,0,64.74,136.68Z"/><path class="cls-3" d="M83.22,136.68a1.85,1.85,0,1,0-1.84-1.84A1.84,1.84,0,0,0,83.22,136.68Z"/><path class="cls-3" d="M101.71,136.68a1.85,1.85,0,1,0-1.85-1.84A1.84,1.84,0,0,0,101.71,136.68Z"/><path class="cls-3" d="M120.19,136.68a1.85,1.85,0,1,0-1.84-1.84A1.84,1.84,0,0,0,120.19,136.68Z"/><path class="cls-3" d="M138.68,136.68a1.85,1.85,0,1,0-1.85-1.84A1.84,1.84,0,0,0,138.68,136.68Z"/><path class="cls-3" d="M9.29,155.17a1.85,1.85,0,1,0-1.85-1.85A1.84,1.84,0,0,0,9.29,155.17Z"/><path class="cls-3" d="M27.77,155.17a1.85,1.85,0,1,0-1.85-1.85A1.85,1.85,0,0,0,27.77,155.17Z"/><path class="cls-3" d="M46.25,155.17a1.85,1.85,0,1,0-1.84-1.85A1.85,1.85,0,0,0,46.25,155.17Z"/><path class="cls-3" d="M64.74,155.17a1.85,1.85,0,1,0-1.85-1.85A1.84,1.84,0,0,0,64.74,155.17Z"/><path class="cls-3" d="M83.22,155.17a1.85,1.85,0,1,0-1.84-1.85A1.85,1.85,0,0,0,83.22,155.17Z"/><path class="cls-3" d="M101.71,155.17a1.85,1.85,0,1,0-1.85-1.85A1.84,1.84,0,0,0,101.71,155.17Z"/><path class="cls-3" d="M120.19,155.17a1.85,1.85,0,1,0-1.84-1.85A1.85,1.85,0,0,0,120.19,155.17Z"/><path class="cls-3" d="M138.68,155.17a1.85,1.85,0,1,0-1.85-1.85A1.84,1.84,0,0,0,138.68,155.17Z"/><path class="cls-3" d="M9.29,173.65a1.85,1.85,0,1,0-1.85-1.85A1.84,1.84,0,0,0,9.29,173.65Z"/><path class="cls-3" d="M27.77,173.65a1.85,1.85,0,1,0-1.85-1.85A1.85,1.85,0,0,0,27.77,173.65Z"/><path class="cls-3" d="M46.25,173.65a1.85,1.85,0,1,0-1.84-1.85A1.84,1.84,0,0,0,46.25,173.65Z"/><path class="cls-3" d="M64.74,173.65a1.85,1.85,0,1,0-1.85-1.85A1.84,1.84,0,0,0,64.74,173.65Z"/><path class="cls-3" d="M83.22,173.65a1.85,1.85,0,1,0-1.84-1.85A1.85,1.85,0,0,0,83.22,173.65Z"/><path class="cls-3" d="M101.71,173.65a1.85,1.85,0,1,0-1.85-1.85A1.84,1.84,0,0,0,101.71,173.65Z"/><path class="cls-3" d="M120.19,173.65a1.85,1.85,0,1,0-1.84-1.85A1.85,1.85,0,0,0,120.19,173.65Z"/><path class="cls-3" d="M138.68,173.65a1.85,1.85,0,1,0-1.85-1.85A1.84,1.84,0,0,0,138.68,173.65Z"/><path class="cls-3" d="M9.29,192.13a1.85,1.85,0,1,0-1.85-1.84A1.84,1.84,0,0,0,9.29,192.13Z"/><path class="cls-3" d="M27.77,192.13a1.85,1.85,0,1,0-1.85-1.84A1.84,1.84,0,0,0,27.77,192.13Z"/><path class="cls-3" d="M46.25,192.13a1.85,1.85,0,1,0-1.84-1.84A1.84,1.84,0,0,0,46.25,192.13Z"/><path class="cls-3" d="M64.74,192.13a1.85,1.85,0,1,0-1.85-1.84A1.84,1.84,0,0,0,64.74,192.13Z"/><path class="cls-3" d="M83.22,192.13a1.85,1.85,0,1,0-1.84-1.84A1.84,1.84,0,0,0,83.22,192.13Z"/><path class="cls-3" d="M101.71,192.13a1.85,1.85,0,1,0-1.85-1.84A1.84,1.84,0,0,0,101.71,192.13Z"/><path class="cls-3" d="M120.19,192.13a1.85,1.85,0,1,0-1.84-1.84A1.84,1.84,0,0,0,120.19,192.13Z"/><path class="cls-3" d="M138.68,192.13a1.85,1.85,0,1,0-1.85-1.84A1.84,1.84,0,0,0,138.68,192.13Z"/><path class="cls-3" d="M9.29,210.62a1.85,1.85,0,1,0-1.85-1.85A1.84,1.84,0,0,0,9.29,210.62Z"/><path class="cls-3" d="M27.77,210.62a1.85,1.85,0,1,0-1.85-1.85A1.85,1.85,0,0,0,27.77,210.62Z"/><path class="cls-3" d="M46.25,210.62a1.85,1.85,0,1,0-1.84-1.85A1.85,1.85,0,0,0,46.25,210.62Z"/><path class="cls-3" d="M64.74,210.62a1.85,1.85,0,1,0-1.85-1.85A1.84,1.84,0,0,0,64.74,210.62Z"/><path class="cls-3" d="M83.22,210.62a1.85,1.85,0,1,0-1.84-1.85A1.85,1.85,0,0,0,83.22,210.62Z"/><path class="cls-3" d="M101.71,210.62a1.85,1.85,0,1,0-1.85-1.85A1.84,1.84,0,0,0,101.71,210.62Z"/><path class="cls-3" d="M120.19,210.62a1.85,1.85,0,1,0-1.84-1.85A1.85,1.85,0,0,0,120.19,210.62Z"/><path class="cls-3" d="M138.68,210.62a1.85,1.85,0,1,0-1.85-1.85A1.84,1.84,0,0,0,138.68,210.62Z"/><path class="cls-3" d="M9.29,229.1a1.85,1.85,0,1,0-1.85-1.84A1.84,1.84,0,0,0,9.29,229.1Z"/><path class="cls-3" d="M27.77,229.1a1.85,1.85,0,1,0-1.85-1.84A1.84,1.84,0,0,0,27.77,229.1Z"/><path class="cls-3" d="M46.25,229.1a1.85,1.85,0,1,0-1.84-1.84A1.84,1.84,0,0,0,46.25,229.1Z"/><path class="cls-3" d="M64.74,229.1a1.85,1.85,0,1,0-1.85-1.84A1.84,1.84,0,0,0,64.74,229.1Z"/><path class="cls-3" d="M83.22,229.1a1.85,1.85,0,1,0-1.84-1.84A1.84,1.84,0,0,0,83.22,229.1Z"/><path class="cls-3" d="M101.71,229.1a1.85,1.85,0,1,0-1.85-1.84A1.84,1.84,0,0,0,101.71,229.1Z"/><path class="cls-3" d="M120.19,229.1a1.85,1.85,0,1,0-1.84-1.84A1.84,1.84,0,0,0,120.19,229.1Z"/><path class="cls-3" d="M138.68,229.1a1.85,1.85,0,1,0-1.85-1.84A1.84,1.84,0,0,0,138.68,229.1Z"/><path class="cls-3" d="M9.29,247.59a1.85,1.85,0,1,0-1.85-1.85A1.84,1.84,0,0,0,9.29,247.59Z"/><path class="cls-3" d="M27.77,247.59a1.85,1.85,0,1,0-1.85-1.85A1.85,1.85,0,0,0,27.77,247.59Z"/><path class="cls-3" d="M46.25,247.59a1.85,1.85,0,1,0-1.84-1.85A1.85,1.85,0,0,0,46.25,247.59Z"/><path class="cls-3" d="M64.74,247.59a1.85,1.85,0,1,0-1.85-1.85A1.84,1.84,0,0,0,64.74,247.59Z"/><path class="cls-3" d="M83.22,247.59a1.85,1.85,0,1,0-1.84-1.85A1.85,1.85,0,0,0,83.22,247.59Z"/><path class="cls-3" d="M101.71,247.59a1.85,1.85,0,1,0-1.85-1.85A1.84,1.84,0,0,0,101.71,247.59Z"/><path class="cls-3" d="M120.19,247.59a1.85,1.85,0,1,0-1.84-1.85A1.85,1.85,0,0,0,120.19,247.59Z"/><path class="cls-3" d="M138.68,247.59a1.85,1.85,0,1,0-1.85-1.85A1.84,1.84,0,0,0,138.68,247.59Z"/><path class="cls-3" d="M9.29,266.07a1.85,1.85,0,1,0-1.85-1.84A1.84,1.84,0,0,0,9.29,266.07Z"/><path class="cls-3" d="M27.77,266.07a1.85,1.85,0,1,0-1.85-1.84A1.84,1.84,0,0,0,27.77,266.07Z"/><path class="cls-3" d="M46.25,266.07a1.85,1.85,0,1,0-1.84-1.84A1.84,1.84,0,0,0,46.25,266.07Z"/><path class="cls-3" d="M64.74,266.07a1.85,1.85,0,1,0-1.85-1.84A1.84,1.84,0,0,0,64.74,266.07Z"/><path class="cls-3" d="M83.22,266.07a1.85,1.85,0,1,0-1.84-1.84A1.84,1.84,0,0,0,83.22,266.07Z"/><path class="cls-3" d="M101.71,266.07a1.85,1.85,0,1,0-1.85-1.84A1.84,1.84,0,0,0,101.71,266.07Z"/><path class="cls-3" d="M120.19,266.07a1.85,1.85,0,1,0-1.84-1.84A1.84,1.84,0,0,0,120.19,266.07Z"/><path class="cls-3" d="M138.68,266.07a1.85,1.85,0,1,0-1.85-1.84A1.84,1.84,0,0,0,138.68,266.07Z"/><path class="cls-3" d="M9.29,284.56a1.85,1.85,0,1,0-1.85-1.85A1.84,1.84,0,0,0,9.29,284.56Z"/><path class="cls-3" d="M27.77,284.56a1.85,1.85,0,1,0-1.85-1.85A1.85,1.85,0,0,0,27.77,284.56Z"/><path class="cls-3" d="M46.25,284.56a1.85,1.85,0,1,0-1.84-1.85A1.85,1.85,0,0,0,46.25,284.56Z"/><path class="cls-3" d="M64.74,284.56a1.85,1.85,0,1,0-1.85-1.85A1.84,1.84,0,0,0,64.74,284.56Z"/><path class="cls-3" d="M83.22,284.56a1.85,1.85,0,1,0-1.84-1.85A1.85,1.85,0,0,0,83.22,284.56Z"/><path class="cls-3" d="M101.71,284.56a1.85,1.85,0,1,0-1.85-1.85A1.84,1.84,0,0,0,101.71,284.56Z"/><path class="cls-3" d="M120.19,284.56a1.85,1.85,0,1,0-1.84-1.85A1.85,1.85,0,0,0,120.19,284.56Z"/><path class="cls-3" d="M138.68,284.56a1.85,1.85,0,1,0-1.85-1.85A1.84,1.84,0,0,0,138.68,284.56Z"/><path class="cls-3" d="M9.29,303a1.85,1.85,0,1,0-1.85-1.84A1.84,1.84,0,0,0,9.29,303Z"/><path class="cls-3" d="M27.77,303a1.85,1.85,0,1,0-1.85-1.84A1.84,1.84,0,0,0,27.77,303Z"/><path class="cls-3" d="M46.25,303a1.85,1.85,0,1,0-1.84-1.84A1.84,1.84,0,0,0,46.25,303Z"/><path class="cls-3" d="M64.74,303a1.85,1.85,0,1,0-1.85-1.84A1.84,1.84,0,0,0,64.74,303Z"/><path class="cls-3" d="M83.22,303a1.85,1.85,0,1,0-1.84-1.84A1.84,1.84,0,0,0,83.22,303Z"/><path class="cls-3" d="M101.71,303a1.85,1.85,0,1,0-1.85-1.84A1.84,1.84,0,0,0,101.71,303Z"/><path class="cls-3" d="M120.19,303a1.85,1.85,0,1,0-1.84-1.84A1.84,1.84,0,0,0,120.19,303Z"/><path class="cls-3" d="M138.68,303a1.85,1.85,0,1,0-1.85-1.84A1.84,1.84,0,0,0,138.68,303Z"/><path class="cls-3" d="M9.29,321.53a1.85,1.85,0,1,0-1.85-1.85A1.84,1.84,0,0,0,9.29,321.53Z"/><path class="cls-3" d="M27.77,321.53a1.85,1.85,0,1,0-1.85-1.85A1.85,1.85,0,0,0,27.77,321.53Z"/><path class="cls-3" d="M46.25,321.53a1.85,1.85,0,1,0-1.84-1.85A1.85,1.85,0,0,0,46.25,321.53Z"/><path class="cls-3" d="M64.74,321.53a1.85,1.85,0,1,0-1.85-1.85A1.84,1.84,0,0,0,64.74,321.53Z"/><path class="cls-3" d="M83.22,321.53a1.85,1.85,0,1,0-1.84-1.85A1.85,1.85,0,0,0,83.22,321.53Z"/><path class="cls-3" d="M101.71,321.53a1.85,1.85,0,1,0-1.85-1.85A1.84,1.84,0,0,0,101.71,321.53Z"/><path class="cls-3" d="M120.19,321.53a1.85,1.85,0,1,0-1.84-1.85A1.85,1.85,0,0,0,120.19,321.53Z"/><path class="cls-3" d="M138.68,321.53a1.85,1.85,0,1,0-1.85-1.85A1.84,1.84,0,0,0,138.68,321.53Z"/><path class="cls-3" d="M9.29,340a1.85,1.85,0,1,0-1.85-1.84A1.84,1.84,0,0,0,9.29,340Z"/><path class="cls-3" d="M27.77,340a1.85,1.85,0,1,0-1.85-1.84A1.84,1.84,0,0,0,27.77,340Z"/><path class="cls-3" d="M46.25,340a1.85,1.85,0,1,0-1.84-1.84A1.84,1.84,0,0,0,46.25,340Z"/><path class="cls-3" d="M64.74,340a1.85,1.85,0,1,0-1.85-1.84A1.84,1.84,0,0,0,64.74,340Z"/><path class="cls-3" d="M83.22,340a1.85,1.85,0,1,0-1.84-1.84A1.84,1.84,0,0,0,83.22,340Z"/><path class="cls-3" d="M101.71,340a1.85,1.85,0,1,0-1.85-1.84A1.84,1.84,0,0,0,101.71,340Z"/><path class="cls-3" d="M120.19,340a1.85,1.85,0,1,0-1.84-1.84A1.84,1.84,0,0,0,120.19,340Z"/><path class="cls-3" d="M138.68,340a1.85,1.85,0,1,0-1.85-1.84A1.84,1.84,0,0,0,138.68,340Z"/><path class="cls-3" d="M9.29,358.5a1.85,1.85,0,1,0-1.85-1.85A1.84,1.84,0,0,0,9.29,358.5Z"/><path class="cls-3" d="M27.77,358.5a1.85,1.85,0,1,0-1.85-1.85A1.85,1.85,0,0,0,27.77,358.5Z"/><path class="cls-3" d="M46.25,358.5a1.85,1.85,0,1,0-1.84-1.85A1.85,1.85,0,0,0,46.25,358.5Z"/><path class="cls-3" d="M64.74,358.5a1.85,1.85,0,1,0-1.85-1.85A1.84,1.84,0,0,0,64.74,358.5Z"/><path class="cls-3" d="M83.22,358.5a1.85,1.85,0,1,0-1.84-1.85A1.85,1.85,0,0,0,83.22,358.5Z"/><path class="cls-3" d="M101.71,358.5a1.85,1.85,0,1,0-1.85-1.85A1.84,1.84,0,0,0,101.71,358.5Z"/><path class="cls-3" d="M120.19,358.5a1.85,1.85,0,1,0-1.84-1.85A1.85,1.85,0,0,0,120.19,358.5Z"/><path class="cls-3" d="M138.68,358.5a1.85,1.85,0,1,0-1.85-1.85A1.84,1.84,0,0,0,138.68,358.5Z"/><path class="cls-3" d="M9.29,377a1.85,1.85,0,1,0-1.85-1.85A1.84,1.84,0,0,0,9.29,377Z"/><path class="cls-3" d="M27.77,377a1.85,1.85,0,1,0-1.85-1.85A1.85,1.85,0,0,0,27.77,377Z"/><path class="cls-3" d="M46.25,377a1.85,1.85,0,1,0-1.84-1.85A1.84,1.84,0,0,0,46.25,377Z"/><path class="cls-3" d="M64.74,377a1.85,1.85,0,1,0-1.85-1.85A1.84,1.84,0,0,0,64.74,377Z"/><path class="cls-3" d="M83.22,377a1.85,1.85,0,1,0-1.84-1.85A1.85,1.85,0,0,0,83.22,377Z"/><path class="cls-3" d="M101.71,377a1.85,1.85,0,1,0-1.85-1.85A1.84,1.84,0,0,0,101.71,377Z"/><path class="cls-3" d="M120.19,377a1.85,1.85,0,1,0-1.84-1.85A1.85,1.85,0,0,0,120.19,377Z"/><path class="cls-3" d="M138.68,377a1.85,1.85,0,1,0-1.85-1.85A1.84,1.84,0,0,0,138.68,377Z"/><path class="cls-3" d="M9.29,395.46a1.85,1.85,0,1,0-1.85-1.84A1.84,1.84,0,0,0,9.29,395.46Z"/><path class="cls-3" d="M27.77,395.46a1.85,1.85,0,1,0-1.85-1.84A1.84,1.84,0,0,0,27.77,395.46Z"/><path class="cls-3" d="M46.25,395.46a1.85,1.85,0,1,0-1.84-1.84A1.84,1.84,0,0,0,46.25,395.46Z"/><path class="cls-3" d="M64.74,395.46a1.85,1.85,0,1,0-1.85-1.84A1.84,1.84,0,0,0,64.74,395.46Z"/><path class="cls-3" d="M83.22,395.46a1.85,1.85,0,1,0-1.84-1.84A1.84,1.84,0,0,0,83.22,395.46Z"/><path class="cls-3" d="M101.71,395.46a1.85,1.85,0,1,0-1.85-1.84A1.84,1.84,0,0,0,101.71,395.46Z"/><path class="cls-3" d="M120.19,395.46a1.85,1.85,0,1,0-1.84-1.84A1.84,1.84,0,0,0,120.19,395.46Z"/><path class="cls-3" d="M138.68,395.46a1.85,1.85,0,1,0-1.85-1.84A1.84,1.84,0,0,0,138.68,395.46Z"/><path class="cls-3" d="M9.29,414a1.85,1.85,0,1,0-1.85-1.85A1.84,1.84,0,0,0,9.29,414Z"/><path class="cls-3" d="M27.77,414a1.85,1.85,0,1,0-1.85-1.85A1.85,1.85,0,0,0,27.77,414Z"/><path class="cls-3" d="M46.25,414a1.85,1.85,0,1,0-1.84-1.85A1.85,1.85,0,0,0,46.25,414Z"/><path class="cls-3" d="M64.74,414a1.85,1.85,0,1,0-1.85-1.85A1.84,1.84,0,0,0,64.74,414Z"/><path class="cls-3" d="M83.22,414a1.85,1.85,0,1,0-1.84-1.85A1.85,1.85,0,0,0,83.22,414Z"/><path class="cls-3" d="M101.71,414a1.85,1.85,0,1,0-1.85-1.85A1.84,1.84,0,0,0,101.71,414Z"/><path class="cls-3" d="M120.19,414a1.85,1.85,0,1,0-1.84-1.85A1.85,1.85,0,0,0,120.19,414Z"/><path class="cls-3" d="M138.68,414a1.85,1.85,0,1,0-1.85-1.85A1.84,1.84,0,0,0,138.68,414Z"/><path class="cls-3" d="M9.29,432.43a1.85,1.85,0,1,0-1.85-1.84A1.84,1.84,0,0,0,9.29,432.43Z"/><path class="cls-3" d="M27.77,432.43a1.85,1.85,0,1,0-1.85-1.84A1.84,1.84,0,0,0,27.77,432.43Z"/><path class="cls-3" d="M46.25,432.43a1.85,1.85,0,1,0-1.84-1.84A1.84,1.84,0,0,0,46.25,432.43Z"/><path class="cls-3" d="M64.74,432.43a1.85,1.85,0,1,0-1.85-1.84A1.84,1.84,0,0,0,64.74,432.43Z"/><path class="cls-3" d="M83.22,432.43a1.85,1.85,0,1,0-1.84-1.84A1.84,1.84,0,0,0,83.22,432.43Z"/><path class="cls-3" d="M101.71,432.43a1.85,1.85,0,1,0-1.85-1.84A1.84,1.84,0,0,0,101.71,432.43Z"/><path class="cls-3" d="M120.19,432.43a1.85,1.85,0,1,0-1.84-1.84A1.84,1.84,0,0,0,120.19,432.43Z"/><path class="cls-3" d="M138.68,432.43a1.85,1.85,0,1,0-1.85-1.84A1.84,1.84,0,0,0,138.68,432.43Z"/><path class="cls-3" d="M9.29,450.92a1.85,1.85,0,1,0-1.85-1.85A1.84,1.84,0,0,0,9.29,450.92Z"/><path class="cls-3" d="M27.77,450.92a1.85,1.85,0,1,0-1.85-1.85A1.85,1.85,0,0,0,27.77,450.92Z"/><path class="cls-3" d="M46.25,450.92a1.85,1.85,0,1,0-1.84-1.85A1.85,1.85,0,0,0,46.25,450.92Z"/><path class="cls-3" d="M64.74,450.92a1.85,1.85,0,1,0-1.85-1.85A1.84,1.84,0,0,0,64.74,450.92Z"/><path class="cls-3" d="M83.22,450.92a1.85,1.85,0,1,0-1.84-1.85A1.85,1.85,0,0,0,83.22,450.92Z"/><path class="cls-3" d="M101.71,450.92a1.85,1.85,0,1,0-1.85-1.85A1.84,1.84,0,0,0,101.71,450.92Z"/><path class="cls-3" d="M120.19,450.92a1.85,1.85,0,1,0-1.84-1.85A1.85,1.85,0,0,0,120.19,450.92Z"/><path class="cls-3" d="M138.68,450.92a1.85,1.85,0,1,0-1.85-1.85A1.84,1.84,0,0,0,138.68,450.92Z"/><path class="cls-3" d="M9.29,469.4a1.85,1.85,0,1,0-1.85-1.84A1.84,1.84,0,0,0,9.29,469.4Z"/><path class="cls-3" d="M27.77,469.4a1.85,1.85,0,1,0-1.85-1.84A1.84,1.84,0,0,0,27.77,469.4Z"/><path class="cls-3" d="M46.25,469.4a1.85,1.85,0,1,0-1.84-1.84A1.84,1.84,0,0,0,46.25,469.4Z"/><path class="cls-3" d="M64.74,469.4a1.85,1.85,0,1,0-1.85-1.84A1.84,1.84,0,0,0,64.74,469.4Z"/><path class="cls-3" d="M83.22,469.4a1.85,1.85,0,1,0-1.84-1.84A1.84,1.84,0,0,0,83.22,469.4Z"/><path class="cls-3" d="M101.71,469.4a1.85,1.85,0,1,0-1.85-1.84A1.84,1.84,0,0,0,101.71,469.4Z"/><path class="cls-3" d="M120.19,469.4a1.85,1.85,0,1,0-1.84-1.84A1.84,1.84,0,0,0,120.19,469.4Z"/><path class="cls-3" d="M138.68,469.4a1.85,1.85,0,1,0-1.85-1.84A1.84,1.84,0,0,0,138.68,469.4Z"/><path class="cls-3" d="M9.29,487.89A1.85,1.85,0,1,0,7.44,486,1.84,1.84,0,0,0,9.29,487.89Z"/><path class="cls-3" d="M27.77,487.89A1.85,1.85,0,1,0,25.92,486,1.85,1.85,0,0,0,27.77,487.89Z"/><path class="cls-3" d="M46.25,487.89A1.85,1.85,0,1,0,44.41,486,1.85,1.85,0,0,0,46.25,487.89Z"/><path class="cls-3" d="M64.74,487.89A1.85,1.85,0,1,0,62.89,486,1.84,1.84,0,0,0,64.74,487.89Z"/><path class="cls-3" d="M83.22,487.89A1.85,1.85,0,1,0,81.38,486,1.85,1.85,0,0,0,83.22,487.89Z"/><path class="cls-3" d="M101.71,487.89A1.85,1.85,0,1,0,99.86,486,1.84,1.84,0,0,0,101.71,487.89Z"/><path class="cls-3" d="M120.19,487.89a1.85,1.85,0,1,0-1.84-1.85A1.85,1.85,0,0,0,120.19,487.89Z"/><path class="cls-3" d="M138.68,487.89a1.85,1.85,0,1,0-1.85-1.85A1.84,1.84,0,0,0,138.68,487.89Z"/><path class="cls-3" d="M9.29,506.37a1.85,1.85,0,1,0-1.85-1.84A1.84,1.84,0,0,0,9.29,506.37Z"/><path class="cls-3" d="M27.77,506.37a1.85,1.85,0,1,0-1.85-1.84A1.84,1.84,0,0,0,27.77,506.37Z"/><path class="cls-3" d="M46.25,506.37a1.85,1.85,0,1,0-1.84-1.84A1.84,1.84,0,0,0,46.25,506.37Z"/><path class="cls-3" d="M64.74,506.37a1.85,1.85,0,1,0-1.85-1.84A1.84,1.84,0,0,0,64.74,506.37Z"/><path class="cls-3" d="M83.22,506.37a1.85,1.85,0,1,0-1.84-1.84A1.84,1.84,0,0,0,83.22,506.37Z"/><path class="cls-3" d="M101.71,506.37a1.85,1.85,0,1,0-1.85-1.84A1.84,1.84,0,0,0,101.71,506.37Z"/><path class="cls-3" d="M120.19,506.37a1.85,1.85,0,1,0-1.84-1.84A1.84,1.84,0,0,0,120.19,506.37Z"/><path class="cls-3" d="M138.68,506.37a1.85,1.85,0,1,0-1.85-1.84A1.84,1.84,0,0,0,138.68,506.37Z"/><path class="cls-3" d="M9.29,524.86A1.85,1.85,0,1,0,7.44,523,1.84,1.84,0,0,0,9.29,524.86Z"/><path class="cls-3" d="M27.77,524.86A1.85,1.85,0,1,0,25.92,523,1.85,1.85,0,0,0,27.77,524.86Z"/><path class="cls-3" d="M46.25,524.86A1.85,1.85,0,1,0,44.41,523,1.85,1.85,0,0,0,46.25,524.86Z"/><path class="cls-3" d="M64.74,524.86A1.85,1.85,0,1,0,62.89,523,1.84,1.84,0,0,0,64.74,524.86Z"/><path class="cls-3" d="M83.22,524.86A1.85,1.85,0,1,0,81.38,523,1.85,1.85,0,0,0,83.22,524.86Z"/><path class="cls-3" d="M101.71,524.86A1.85,1.85,0,1,0,99.86,523,1.84,1.84,0,0,0,101.71,524.86Z"/><path class="cls-3" d="M120.19,524.86a1.85,1.85,0,1,0-1.84-1.85A1.85,1.85,0,0,0,120.19,524.86Z"/><path class="cls-3" d="M138.68,524.86a1.85,1.85,0,1,0-1.85-1.85A1.84,1.84,0,0,0,138.68,524.86Z"/><path class="cls-3" d="M9.29,543.34a1.85,1.85,0,1,0-1.85-1.84A1.84,1.84,0,0,0,9.29,543.34Z"/><path class="cls-3" d="M27.77,543.34a1.85,1.85,0,1,0-1.85-1.84A1.84,1.84,0,0,0,27.77,543.34Z"/><path class="cls-3" d="M46.25,543.34a1.85,1.85,0,1,0-1.84-1.84A1.84,1.84,0,0,0,46.25,543.34Z"/><path class="cls-3" d="M64.74,543.34a1.85,1.85,0,1,0-1.85-1.84A1.84,1.84,0,0,0,64.74,543.34Z"/><path class="cls-3" d="M83.22,543.34a1.85,1.85,0,1,0-1.84-1.84A1.84,1.84,0,0,0,83.22,543.34Z"/><path class="cls-3" d="M101.71,543.34a1.85,1.85,0,1,0-1.85-1.84A1.84,1.84,0,0,0,101.71,543.34Z"/><path class="cls-3" d="M120.19,543.34a1.85,1.85,0,1,0-1.84-1.84A1.84,1.84,0,0,0,120.19,543.34Z"/><path class="cls-3" d="M138.68,543.34a1.85,1.85,0,1,0-1.85-1.84A1.84,1.84,0,0,0,138.68,543.34Z"/><path class="cls-3" d="M9.29,561.83A1.85,1.85,0,1,0,7.44,560,1.84,1.84,0,0,0,9.29,561.83Z"/><path class="cls-3" d="M27.77,561.83A1.85,1.85,0,1,0,25.92,560,1.85,1.85,0,0,0,27.77,561.83Z"/><path class="cls-3" d="M46.25,561.83A1.85,1.85,0,1,0,44.41,560,1.85,1.85,0,0,0,46.25,561.83Z"/><path class="cls-3" d="M64.74,561.83A1.85,1.85,0,1,0,62.89,560,1.84,1.84,0,0,0,64.74,561.83Z"/><path class="cls-3" d="M83.22,561.83A1.85,1.85,0,1,0,81.38,560,1.85,1.85,0,0,0,83.22,561.83Z"/><path class="cls-3" d="M101.71,561.83A1.85,1.85,0,1,0,99.86,560,1.84,1.84,0,0,0,101.71,561.83Z"/><path class="cls-3" d="M120.19,561.83a1.85,1.85,0,1,0-1.84-1.85A1.85,1.85,0,0,0,120.19,561.83Z"/><path class="cls-3" d="M138.68,561.83a1.85,1.85,0,1,0-1.85-1.85A1.84,1.84,0,0,0,138.68,561.83Z"/><path class="cls-3" d="M9.29,580.31a1.85,1.85,0,1,0-1.85-1.85A1.84,1.84,0,0,0,9.29,580.31Z"/><path class="cls-3" d="M27.77,580.31a1.85,1.85,0,1,0-1.85-1.85A1.85,1.85,0,0,0,27.77,580.31Z"/><path class="cls-3" d="M46.25,580.31a1.85,1.85,0,1,0-1.84-1.85A1.84,1.84,0,0,0,46.25,580.31Z"/><path class="cls-3" d="M64.74,580.31a1.85,1.85,0,1,0-1.85-1.85A1.84,1.84,0,0,0,64.74,580.31Z"/><path class="cls-3" d="M83.22,580.31a1.85,1.85,0,1,0-1.84-1.85A1.85,1.85,0,0,0,83.22,580.31Z"/><path class="cls-3" d="M101.71,580.31a1.85,1.85,0,1,0-1.85-1.85A1.84,1.84,0,0,0,101.71,580.31Z"/><path class="cls-3" d="M120.19,580.31a1.85,1.85,0,1,0-1.84-1.85A1.85,1.85,0,0,0,120.19,580.31Z"/><path class="cls-3" d="M138.68,580.31a1.85,1.85,0,1,0-1.85-1.85A1.84,1.84,0,0,0,138.68,580.31Z"/><path class="cls-3" d="M9.29,598.79A1.85,1.85,0,1,0,7.44,597,1.84,1.84,0,0,0,9.29,598.79Z"/><path class="cls-3" d="M27.77,598.79A1.85,1.85,0,1,0,25.92,597,1.84,1.84,0,0,0,27.77,598.79Z"/><path class="cls-3" d="M46.25,598.79A1.85,1.85,0,1,0,44.41,597,1.84,1.84,0,0,0,46.25,598.79Z"/><path class="cls-3" d="M64.74,598.79A1.85,1.85,0,1,0,62.89,597,1.84,1.84,0,0,0,64.74,598.79Z"/><path class="cls-3" d="M83.22,598.79A1.85,1.85,0,1,0,81.38,597,1.84,1.84,0,0,0,83.22,598.79Z"/><path class="cls-3" d="M101.71,598.79A1.85,1.85,0,1,0,99.86,597,1.84,1.84,0,0,0,101.71,598.79Z"/><path class="cls-3" d="M120.19,598.79a1.85,1.85,0,1,0-1.84-1.84A1.84,1.84,0,0,0,120.19,598.79Z"/><path class="cls-3" d="M138.68,598.79a1.85,1.85,0,1,0-1.85-1.84A1.84,1.84,0,0,0,138.68,598.79Z"/><path class="cls-3" d="M9.29,617.28a1.85,1.85,0,1,0-1.85-1.85A1.84,1.84,0,0,0,9.29,617.28Z"/><path class="cls-3" d="M27.77,617.28a1.85,1.85,0,1,0-1.85-1.85A1.85,1.85,0,0,0,27.77,617.28Z"/><path class="cls-3" d="M46.25,617.28a1.85,1.85,0,1,0-1.84-1.85A1.85,1.85,0,0,0,46.25,617.28Z"/><path class="cls-3" d="M64.74,617.28a1.85,1.85,0,1,0-1.85-1.85A1.84,1.84,0,0,0,64.74,617.28Z"/><path class="cls-3" d="M83.22,617.28a1.85,1.85,0,1,0-1.84-1.85A1.85,1.85,0,0,0,83.22,617.28Z"/><path class="cls-3" d="M101.71,617.28a1.85,1.85,0,1,0-1.85-1.85A1.84,1.84,0,0,0,101.71,617.28Z"/><path class="cls-3" d="M120.19,617.28a1.85,1.85,0,1,0-1.84-1.85A1.85,1.85,0,0,0,120.19,617.28Z"/><path class="cls-3" d="M138.68,617.28a1.85,1.85,0,1,0-1.85-1.85A1.84,1.84,0,0,0,138.68,617.28Z"/><path class="cls-3" d="M9.29,635.76a1.85,1.85,0,1,0-1.85-1.84A1.84,1.84,0,0,0,9.29,635.76Z"/><path class="cls-3" d="M27.77,635.76a1.85,1.85,0,1,0-1.85-1.84A1.84,1.84,0,0,0,27.77,635.76Z"/><path class="cls-3" d="M46.25,635.76a1.85,1.85,0,1,0-1.84-1.84A1.84,1.84,0,0,0,46.25,635.76Z"/><path class="cls-3" d="M64.74,635.76a1.85,1.85,0,1,0-1.85-1.84A1.84,1.84,0,0,0,64.74,635.76Z"/><path class="cls-3" d="M83.22,635.76a1.85,1.85,0,1,0-1.84-1.84A1.84,1.84,0,0,0,83.22,635.76Z"/><path class="cls-3" d="M101.71,635.76a1.85,1.85,0,1,0-1.85-1.84A1.84,1.84,0,0,0,101.71,635.76Z"/><path class="cls-3" d="M120.19,635.76a1.85,1.85,0,1,0-1.84-1.84A1.84,1.84,0,0,0,120.19,635.76Z"/><path class="cls-3" d="M138.68,635.76a1.85,1.85,0,1,0-1.85-1.84A1.84,1.84,0,0,0,138.68,635.76Z"/><path class="cls-3" d="M9.29,654.25a1.85,1.85,0,1,0-1.85-1.85A1.84,1.84,0,0,0,9.29,654.25Z"/><path class="cls-3" d="M27.77,654.25a1.85,1.85,0,1,0-1.85-1.85A1.85,1.85,0,0,0,27.77,654.25Z"/><path class="cls-3" d="M46.25,654.25a1.85,1.85,0,1,0-1.84-1.85A1.85,1.85,0,0,0,46.25,654.25Z"/><path class="cls-3" d="M64.74,654.25a1.85,1.85,0,1,0-1.85-1.85A1.84,1.84,0,0,0,64.74,654.25Z"/><path class="cls-3" d="M83.22,654.25a1.85,1.85,0,1,0-1.84-1.85A1.85,1.85,0,0,0,83.22,654.25Z"/><path class="cls-3" d="M101.71,654.25a1.85,1.85,0,1,0-1.85-1.85A1.84,1.84,0,0,0,101.71,654.25Z"/><path class="cls-3" d="M120.19,654.25a1.85,1.85,0,1,0-1.84-1.85A1.85,1.85,0,0,0,120.19,654.25Z"/><path class="cls-3" d="M138.68,654.25a1.85,1.85,0,1,0-1.85-1.85A1.84,1.84,0,0,0,138.68,654.25Z"/><path class="cls-3" d="M9.29,672.73a1.85,1.85,0,1,0-1.85-1.84A1.84,1.84,0,0,0,9.29,672.73Z"/><path class="cls-3" d="M27.77,672.73a1.85,1.85,0,1,0-1.85-1.84A1.84,1.84,0,0,0,27.77,672.73Z"/><path class="cls-3" d="M46.25,672.73a1.85,1.85,0,1,0-1.84-1.84A1.84,1.84,0,0,0,46.25,672.73Z"/><path class="cls-3" d="M64.74,672.73a1.85,1.85,0,1,0-1.85-1.84A1.84,1.84,0,0,0,64.74,672.73Z"/><path class="cls-3" d="M83.22,672.73a1.85,1.85,0,1,0-1.84-1.84A1.84,1.84,0,0,0,83.22,672.73Z"/><path class="cls-3" d="M101.71,672.73a1.85,1.85,0,1,0-1.85-1.84A1.84,1.84,0,0,0,101.71,672.73Z"/><path class="cls-3" d="M120.19,672.73a1.85,1.85,0,1,0-1.84-1.84A1.84,1.84,0,0,0,120.19,672.73Z"/><path class="cls-3" d="M138.68,672.73a1.85,1.85,0,1,0-1.85-1.84A1.84,1.84,0,0,0,138.68,672.73Z"/><path class="cls-3" d="M9.29,691.22a1.85,1.85,0,1,0-1.85-1.85A1.84,1.84,0,0,0,9.29,691.22Z"/><path class="cls-3" d="M27.77,691.22a1.85,1.85,0,1,0-1.85-1.85A1.85,1.85,0,0,0,27.77,691.22Z"/><path class="cls-3" d="M46.25,691.22a1.85,1.85,0,1,0-1.84-1.85A1.85,1.85,0,0,0,46.25,691.22Z"/><path class="cls-3" d="M64.74,691.22a1.85,1.85,0,1,0-1.85-1.85A1.84,1.84,0,0,0,64.74,691.22Z"/><path class="cls-3" d="M83.22,691.22a1.85,1.85,0,1,0-1.84-1.85A1.85,1.85,0,0,0,83.22,691.22Z"/><path class="cls-3" d="M101.71,691.22a1.85,1.85,0,1,0-1.85-1.85A1.84,1.84,0,0,0,101.71,691.22Z"/><path class="cls-3" d="M120.19,691.22a1.85,1.85,0,1,0-1.84-1.85A1.85,1.85,0,0,0,120.19,691.22Z"/><path class="cls-3" d="M138.68,691.22a1.85,1.85,0,1,0-1.85-1.85A1.84,1.84,0,0,0,138.68,691.22Z"/><path class="cls-3" d="M9.29,709.7a1.85,1.85,0,1,0-1.85-1.84A1.84,1.84,0,0,0,9.29,709.7Z"/><path class="cls-3" d="M27.77,709.7a1.85,1.85,0,1,0-1.85-1.84A1.84,1.84,0,0,0,27.77,709.7Z"/><path class="cls-3" d="M46.25,709.7a1.85,1.85,0,1,0-1.84-1.84A1.84,1.84,0,0,0,46.25,709.7Z"/><path class="cls-3" d="M64.74,709.7a1.85,1.85,0,1,0-1.85-1.84A1.84,1.84,0,0,0,64.74,709.7Z"/><path class="cls-3" d="M83.22,709.7a1.85,1.85,0,1,0-1.84-1.84A1.84,1.84,0,0,0,83.22,709.7Z"/><path class="cls-3" d="M101.71,709.7a1.85,1.85,0,1,0-1.85-1.84A1.84,1.84,0,0,0,101.71,709.7Z"/><path class="cls-3" d="M120.19,709.7a1.85,1.85,0,1,0-1.84-1.84A1.84,1.84,0,0,0,120.19,709.7Z"/><path class="cls-3" d="M138.68,709.7a1.85,1.85,0,1,0-1.85-1.84A1.84,1.84,0,0,0,138.68,709.7Z"/><path class="cls-3" d="M9.29,728.19a1.85,1.85,0,1,0-1.85-1.85A1.84,1.84,0,0,0,9.29,728.19Z"/><path class="cls-3" d="M27.77,728.19a1.85,1.85,0,1,0-1.85-1.85A1.85,1.85,0,0,0,27.77,728.19Z"/><path class="cls-3" d="M46.25,728.19a1.85,1.85,0,1,0-1.84-1.85A1.85,1.85,0,0,0,46.25,728.19Z"/><path class="cls-3" d="M64.74,728.19a1.85,1.85,0,1,0-1.85-1.85A1.84,1.84,0,0,0,64.74,728.19Z"/><path class="cls-3" d="M83.22,728.19a1.85,1.85,0,1,0-1.84-1.85A1.85,1.85,0,0,0,83.22,728.19Z"/><path class="cls-3" d="M101.71,728.19a1.85,1.85,0,1,0-1.85-1.85A1.84,1.84,0,0,0,101.71,728.19Z"/><path class="cls-3" d="M120.19,728.19a1.85,1.85,0,1,0-1.84-1.85A1.85,1.85,0,0,0,120.19,728.19Z"/><path class="cls-3" d="M138.68,728.19a1.85,1.85,0,1,0-1.85-1.85A1.84,1.84,0,0,0,138.68,728.19Z"/><path class="cls-3" d="M9.29,746.67a1.85,1.85,0,1,0-1.85-1.84A1.84,1.84,0,0,0,9.29,746.67Z"/><path class="cls-3" d="M27.77,746.67a1.85,1.85,0,1,0-1.85-1.84A1.84,1.84,0,0,0,27.77,746.67Z"/><path class="cls-3" d="M46.25,746.67a1.85,1.85,0,1,0-1.84-1.84A1.84,1.84,0,0,0,46.25,746.67Z"/><path class="cls-3" d="M64.74,746.67a1.85,1.85,0,1,0-1.85-1.84A1.84,1.84,0,0,0,64.74,746.67Z"/><path class="cls-3" d="M83.22,746.67a1.85,1.85,0,1,0-1.84-1.84A1.84,1.84,0,0,0,83.22,746.67Z"/><path class="cls-3" d="M101.71,746.67a1.85,1.85,0,1,0-1.85-1.84A1.84,1.84,0,0,0,101.71,746.67Z"/><path class="cls-3" d="M120.19,746.67a1.85,1.85,0,1,0-1.84-1.84A1.84,1.84,0,0,0,120.19,746.67Z"/><path class="cls-3" d="M138.68,746.67a1.85,1.85,0,1,0-1.85-1.84A1.84,1.84,0,0,0,138.68,746.67Z"/><path class="cls-3" d="M9.29,765.15a1.85,1.85,0,1,0-1.85-1.84A1.84,1.84,0,0,0,9.29,765.15Z"/><path class="cls-3" d="M27.77,765.15a1.85,1.85,0,1,0-1.85-1.84A1.84,1.84,0,0,0,27.77,765.15Z"/><path class="cls-3" d="M46.25,765.15a1.85,1.85,0,1,0-1.84-1.84A1.84,1.84,0,0,0,46.25,765.15Z"/><path class="cls-3" d="M64.74,765.15a1.85,1.85,0,1,0-1.85-1.84A1.84,1.84,0,0,0,64.74,765.15Z"/><path class="cls-3" d="M83.22,765.15a1.85,1.85,0,1,0-1.84-1.84A1.84,1.84,0,0,0,83.22,765.15Z"/><path class="cls-3" d="M101.71,765.15a1.85,1.85,0,1,0-1.85-1.84A1.84,1.84,0,0,0,101.71,765.15Z"/><path class="cls-3" d="M120.19,765.15a1.85,1.85,0,1,0-1.84-1.84A1.84,1.84,0,0,0,120.19,765.15Z"/><path class="cls-3" d="M138.68,765.15a1.85,1.85,0,1,0-1.85-1.84A1.84,1.84,0,0,0,138.68,765.15Z"/><path class="cls-3" d="M9.29,783.64a1.85,1.85,0,1,0-1.85-1.85A1.84,1.84,0,0,0,9.29,783.64Z"/><path class="cls-3" d="M27.77,783.64a1.85,1.85,0,1,0-1.85-1.85A1.85,1.85,0,0,0,27.77,783.64Z"/><path class="cls-3" d="M46.25,783.64a1.85,1.85,0,1,0-1.84-1.85A1.85,1.85,0,0,0,46.25,783.64Z"/><path class="cls-3" d="M64.74,783.64a1.85,1.85,0,1,0-1.85-1.85A1.84,1.84,0,0,0,64.74,783.64Z"/><path class="cls-3" d="M83.22,783.64a1.85,1.85,0,1,0-1.84-1.85A1.85,1.85,0,0,0,83.22,783.64Z"/><path class="cls-3" d="M101.71,783.64a1.85,1.85,0,1,0-1.85-1.85A1.84,1.84,0,0,0,101.71,783.64Z"/><path class="cls-3" d="M120.19,783.64a1.85,1.85,0,1,0-1.84-1.85A1.85,1.85,0,0,0,120.19,783.64Z"/><path class="cls-3" d="M138.68,783.64a1.85,1.85,0,1,0-1.85-1.85A1.84,1.84,0,0,0,138.68,783.64Z"/><path class="cls-3" d="M9.29,802.12a1.85,1.85,0,1,0-1.85-1.84A1.84,1.84,0,0,0,9.29,802.12Z"/><path class="cls-3" d="M27.77,802.12a1.85,1.85,0,1,0-1.85-1.84A1.84,1.84,0,0,0,27.77,802.12Z"/><path class="cls-3" d="M46.25,802.12a1.85,1.85,0,1,0-1.84-1.84A1.84,1.84,0,0,0,46.25,802.12Z"/><path class="cls-3" d="M64.74,802.12a1.85,1.85,0,1,0-1.85-1.84A1.84,1.84,0,0,0,64.74,802.12Z"/><path class="cls-3" d="M83.22,802.12a1.85,1.85,0,1,0-1.84-1.84A1.84,1.84,0,0,0,83.22,802.12Z"/><path class="cls-3" d="M101.71,802.12a1.85,1.85,0,1,0-1.85-1.84A1.84,1.84,0,0,0,101.71,802.12Z"/><path class="cls-3" d="M120.19,802.12a1.85,1.85,0,1,0-1.84-1.84A1.84,1.84,0,0,0,120.19,802.12Z"/><path class="cls-3" d="M138.68,802.12a1.85,1.85,0,1,0-1.85-1.84A1.84,1.84,0,0,0,138.68,802.12Z"/><path class="cls-3" d="M9.29,820.61a1.85,1.85,0,1,0-1.85-1.85A1.84,1.84,0,0,0,9.29,820.61Z"/><path class="cls-3" d="M27.77,820.61a1.85,1.85,0,1,0-1.85-1.85A1.85,1.85,0,0,0,27.77,820.61Z"/><path class="cls-3" d="M46.25,820.61a1.85,1.85,0,1,0-1.84-1.85A1.85,1.85,0,0,0,46.25,820.61Z"/><path class="cls-3" d="M64.74,820.61a1.85,1.85,0,1,0-1.85-1.85A1.84,1.84,0,0,0,64.74,820.61Z"/><path class="cls-3" d="M83.22,820.61a1.85,1.85,0,1,0-1.84-1.85A1.85,1.85,0,0,0,83.22,820.61Z"/><path class="cls-3" d="M101.71,820.61a1.85,1.85,0,1,0-1.85-1.85A1.84,1.84,0,0,0,101.71,820.61Z"/><path class="cls-3" d="M120.19,820.61a1.85,1.85,0,1,0-1.84-1.85A1.85,1.85,0,0,0,120.19,820.61Z"/><path class="cls-3" d="M138.68,820.61a1.85,1.85,0,1,0-1.85-1.85A1.84,1.84,0,0,0,138.68,820.61Z"/><path class="cls-3" d="M9.29,839.09a1.85,1.85,0,1,0-1.85-1.84A1.84,1.84,0,0,0,9.29,839.09Z"/><path class="cls-3" d="M27.77,839.09a1.85,1.85,0,1,0-1.85-1.84A1.84,1.84,0,0,0,27.77,839.09Z"/><path class="cls-3" d="M46.25,839.09a1.85,1.85,0,1,0-1.84-1.84A1.84,1.84,0,0,0,46.25,839.09Z"/><path class="cls-3" d="M64.74,839.09a1.85,1.85,0,1,0-1.85-1.84A1.84,1.84,0,0,0,64.74,839.09Z"/><path class="cls-3" d="M83.22,839.09a1.85,1.85,0,1,0-1.84-1.84A1.84,1.84,0,0,0,83.22,839.09Z"/><path class="cls-3" d="M101.71,839.09a1.85,1.85,0,1,0-1.85-1.84A1.84,1.84,0,0,0,101.71,839.09Z"/><path class="cls-3" d="M120.19,839.09a1.85,1.85,0,1,0-1.84-1.84A1.84,1.84,0,0,0,120.19,839.09Z"/><path class="cls-3" d="M138.68,839.09a1.85,1.85,0,1,0-1.85-1.84A1.84,1.84,0,0,0,138.68,839.09Z"/><path class="cls-3" d="M9.29,857.58a1.85,1.85,0,1,0-1.85-1.85A1.84,1.84,0,0,0,9.29,857.58Z"/><path class="cls-3" d="M27.77,857.58a1.85,1.85,0,1,0-1.85-1.85A1.85,1.85,0,0,0,27.77,857.58Z"/><path class="cls-3" d="M46.25,857.58a1.85,1.85,0,1,0-1.84-1.85A1.85,1.85,0,0,0,46.25,857.58Z"/><path class="cls-3" d="M64.74,857.58a1.85,1.85,0,1,0-1.85-1.85A1.84,1.84,0,0,0,64.74,857.58Z"/><path class="cls-3" d="M83.22,857.58a1.85,1.85,0,1,0-1.84-1.85A1.85,1.85,0,0,0,83.22,857.58Z"/><path class="cls-3" d="M101.71,857.58a1.85,1.85,0,1,0-1.85-1.85A1.84,1.84,0,0,0,101.71,857.58Z"/><path class="cls-3" d="M120.19,857.58a1.85,1.85,0,1,0-1.84-1.85A1.85,1.85,0,0,0,120.19,857.58Z"/><path class="cls-3" d="M138.68,857.58a1.85,1.85,0,1,0-1.85-1.85A1.84,1.84,0,0,0,138.68,857.58Z"/><path class="cls-3" d="M9.29,876.06a1.85,1.85,0,1,0-1.85-1.84A1.84,1.84,0,0,0,9.29,876.06Z"/><path class="cls-3" d="M27.77,876.06a1.85,1.85,0,1,0-1.85-1.84A1.84,1.84,0,0,0,27.77,876.06Z"/><path class="cls-3" d="M46.25,876.06a1.85,1.85,0,1,0-1.84-1.84A1.84,1.84,0,0,0,46.25,876.06Z"/><path class="cls-3" d="M64.74,876.06a1.85,1.85,0,1,0-1.85-1.84A1.84,1.84,0,0,0,64.74,876.06Z"/><path class="cls-3" d="M83.22,876.06a1.85,1.85,0,1,0-1.84-1.84A1.84,1.84,0,0,0,83.22,876.06Z"/><path class="cls-3" d="M101.71,876.06a1.85,1.85,0,1,0-1.85-1.84A1.84,1.84,0,0,0,101.71,876.06Z"/><path class="cls-3" d="M120.19,876.06a1.85,1.85,0,1,0-1.84-1.84A1.84,1.84,0,0,0,120.19,876.06Z"/><path class="cls-3" d="M138.68,876.06a1.85,1.85,0,1,0-1.85-1.84A1.84,1.84,0,0,0,138.68,876.06Z"/><path class="cls-3" d="M9.29,894.55a1.85,1.85,0,1,0-1.85-1.85A1.84,1.84,0,0,0,9.29,894.55Z"/><path class="cls-3" d="M27.77,894.55a1.85,1.85,0,1,0-1.85-1.85A1.85,1.85,0,0,0,27.77,894.55Z"/><path class="cls-3" d="M46.25,894.55a1.85,1.85,0,1,0-1.84-1.85A1.85,1.85,0,0,0,46.25,894.55Z"/><path class="cls-3" d="M64.74,894.55a1.85,1.85,0,1,0-1.85-1.85A1.84,1.84,0,0,0,64.74,894.55Z"/><path class="cls-3" d="M83.22,894.55a1.85,1.85,0,1,0-1.84-1.85A1.85,1.85,0,0,0,83.22,894.55Z"/><path class="cls-3" d="M101.71,894.55a1.85,1.85,0,1,0-1.85-1.85A1.84,1.84,0,0,0,101.71,894.55Z"/><path class="cls-3" d="M120.19,894.55a1.85,1.85,0,1,0-1.84-1.85A1.85,1.85,0,0,0,120.19,894.55Z"/><path class="cls-3" d="M138.68,894.55a1.85,1.85,0,1,0-1.85-1.85A1.84,1.84,0,0,0,138.68,894.55Z"/><path class="cls-3" d="M9.29,913a1.85,1.85,0,1,0-1.85-1.84A1.84,1.84,0,0,0,9.29,913Z"/><path class="cls-3" d="M27.77,913a1.85,1.85,0,1,0-1.85-1.84A1.84,1.84,0,0,0,27.77,913Z"/><path class="cls-3" d="M46.25,913a1.85,1.85,0,1,0-1.84-1.84A1.84,1.84,0,0,0,46.25,913Z"/><path class="cls-3" d="M64.74,913a1.85,1.85,0,1,0-1.85-1.84A1.84,1.84,0,0,0,64.74,913Z"/><path class="cls-3" d="M83.22,913a1.85,1.85,0,1,0-1.84-1.84A1.84,1.84,0,0,0,83.22,913Z"/><path class="cls-3" d="M101.71,913a1.85,1.85,0,1,0-1.85-1.84A1.84,1.84,0,0,0,101.71,913Z"/><path class="cls-3" d="M120.19,913a1.85,1.85,0,1,0-1.84-1.84A1.84,1.84,0,0,0,120.19,913Z"/><path class="cls-3" d="M138.68,913a1.85,1.85,0,1,0-1.85-1.84A1.84,1.84,0,0,0,138.68,913Z"/><path class="cls-3" d="M9.29,931.52a1.85,1.85,0,1,0-1.85-1.85A1.84,1.84,0,0,0,9.29,931.52Z"/><path class="cls-3" d="M27.77,931.52a1.85,1.85,0,1,0-1.85-1.85A1.85,1.85,0,0,0,27.77,931.52Z"/><path class="cls-3" d="M46.25,931.52a1.85,1.85,0,1,0-1.84-1.85A1.85,1.85,0,0,0,46.25,931.52Z"/><path class="cls-3" d="M64.74,931.52a1.85,1.85,0,1,0-1.85-1.85A1.84,1.84,0,0,0,64.74,931.52Z"/><path class="cls-3" d="M83.22,931.52a1.85,1.85,0,1,0-1.84-1.85A1.85,1.85,0,0,0,83.22,931.52Z"/><path class="cls-3" d="M101.71,931.52a1.85,1.85,0,1,0-1.85-1.85A1.84,1.84,0,0,0,101.71,931.52Z"/><path class="cls-3" d="M120.19,931.52a1.85,1.85,0,1,0-1.84-1.85A1.85,1.85,0,0,0,120.19,931.52Z"/><path class="cls-3" d="M138.68,931.52a1.85,1.85,0,1,0-1.85-1.85A1.84,1.84,0,0,0,138.68,931.52Z"/><path class="cls-3" d="M9.29,950a1.85,1.85,0,1,0-1.85-1.85A1.84,1.84,0,0,0,9.29,950Z"/><path class="cls-3" d="M27.77,950a1.85,1.85,0,1,0-1.85-1.85A1.85,1.85,0,0,0,27.77,950Z"/><path class="cls-3" d="M46.25,950a1.85,1.85,0,1,0-1.84-1.85A1.84,1.84,0,0,0,46.25,950Z"/><path class="cls-3" d="M64.74,950a1.85,1.85,0,1,0-1.85-1.85A1.84,1.84,0,0,0,64.74,950Z"/><path class="cls-3" d="M83.22,950a1.85,1.85,0,1,0-1.84-1.85A1.85,1.85,0,0,0,83.22,950Z"/><path class="cls-3" d="M101.71,950a1.85,1.85,0,1,0-1.85-1.85A1.84,1.84,0,0,0,101.71,950Z"/><path class="cls-3" d="M120.19,950a1.85,1.85,0,1,0-1.84-1.85A1.85,1.85,0,0,0,120.19,950Z"/><path class="cls-3" d="M138.68,950a1.85,1.85,0,1,0-1.85-1.85A1.84,1.84,0,0,0,138.68,950Z"/></g></g></g></svg>