<svg id="Layer_1" data-name="Layer 1" xmlns="http://www.w3.org/2000/svg" viewBox="0 0 40.54 34.91"><defs><style>.cls-1{fill:#f33;}</style></defs><title>redes</title><path class="cls-1" d="M18.7,8.92a5.72,5.72,0,0,1,1,3.44,5,5,0,0,1-1,3.31A5.61,5.61,0,0,1,17,17a5,5,0,0,1,2.59,2,5.9,5.9,0,0,1,.88,3.29,6.56,6.56,0,0,1-1,3.59,6.43,6.43,0,0,1-1.59,1.77,6.32,6.32,0,0,1-2.54,1.13,15.9,15.9,0,0,1-3.18.3H2V6.53H12.87Q17,6.59,18.7,8.92M6.49,10.43v5H12a4.56,4.56,0,0,0,2.38-.55,2.15,2.15,0,0,0,.91-2A2,2,0,0,0,14,10.79a8.25,8.25,0,0,0-2.66-.36Zm0,8.68v6H12a5.21,5.21,0,0,0,2.28-.4,2.84,2.84,0,0,0,1.48-2.81,2.4,2.4,0,0,0-1.44-2.4A5.53,5.53,0,0,0,12,19.11Z"/><path class="cls-1" d="M33,12.74a6.47,6.47,0,0,1,2.77,2.38,7.91,7.91,0,0,1,1.28,3.31,21,21,0,0,1,.14,3.19H25.53A3.85,3.85,0,0,0,27.2,25a4.33,4.33,0,0,0,2.32.6,3.26,3.26,0,0,0,3.19-1.84H37a5.26,5.26,0,0,1-1.56,2.9,7.81,7.81,0,0,1-6,2.34,8.78,8.78,0,0,1-5.65-2q-2.45-2-2.45-6.43a8.73,8.73,0,0,1,2.21-6.4A7.75,7.75,0,0,1,29.25,12a9.18,9.18,0,0,1,3.78.75m-6.28,3.63a4.3,4.3,0,0,0-1.12,2.48h7.23a3.54,3.54,0,0,0-1.12-2.54,3.71,3.71,0,0,0-2.49-.86,3.31,3.31,0,0,0-2.5.92"/><rect class="cls-1" x="23.83" y="7.26" width="10.86" height="3.39"/></svg>