<svg id="Layer_1" data-name="Layer 1" xmlns="http://www.w3.org/2000/svg" viewBox="0 0 32.66 34.61"
><defs>
<style>.cls-1,.cls-2{fill:#fff;}.cls-1{stroke:#fff;stroke-miterlimit:10;}</style></defs><title>redes</title><path class="cls-1" d="M22.05,31H10.8a9.06,9.06,0,0,1-9-9.06V12.05A9.06,9.06,0,0,1,10.8,3H22.05a9.06,9.06,0,0,1,9.05,9.05V22a9.06,9.06,0,0,1-9,9.06M10.8,5a7.05,7.05,0,0,0-7,7V22a7.05,7.05,0,0,0,7,7.05H22.05a7.05,7.05,0,0,0,7-7V12.05a7.05,7.05,0,0,0-7-7Z"/><path class="cls-1" d="M16.42,25.07A8.06,8.06,0,1,1,24.48,17a8.07,8.07,0,0,1-8.06,8.06m0-14.11a6,6,0,1,0,6,6.05,6,6,0,0,0-6-6.05"/><path class="cls-2" d="M26,9.2a1.67,1.67,0,1,1-1.67-1.67A1.67,1.67,0,0,1,26,9.2"/></svg>